<svg xmlns="http://www.w3.org/2000/svg" xmlns:xlink="http://www.w3.org/1999/xlink" contentStyleType="text/css" data-diagram-type="DESCRIPTION" height="764px" preserveAspectRatio="none" style="width:407px;height:764px;background:#FFFFFF;" version="1.1" viewBox="0 0 407 764" width="407px" zoomAndPan="magnify"><defs/><g><!--cluster ?????????? ????? ?????? ????????????--><g class="cluster" data-entity=".......... ..... ...... ............" data-source-line="6" data-uid="ent0005" id="cluster_.......... ..... ...... ............"><rect fill="none" height="751" rx="2.5" ry="2.5" style="stroke:#181818;stroke-width:1;" width="274" x="127" y="7"/><text fill="#000000" font-family="sans-serif" font-size="14" font-weight="bold" lengthAdjust="spacing" textLength="252" x="138" y="22.2344">&#1059;&#1087;&#1088;&#1072;&#1074;&#1083;&#1077;&#1085;&#1080;&#1077; &#1073;&#1072;&#1079;&#1086;&#1081; &#1076;&#1072;&#1085;&#1085;&#1099;&#1093; &#171;&#1040;&#1073;&#1080;&#1090;&#1091;&#1088;&#1080;&#1077;&#1085;&#1090;&#187;</text></g><!--entity UC1--><g class="entity" data-entity="UC1" data-source-line="7" data-uid="ent0006" id="entity_UC1"><ellipse cx="263.8935" cy="401.8787" fill="#F1F1F1" rx="82.3935" ry="18.8787" style="stroke:#181818;stroke-width:0.5;"/><text fill="#000000" font-family="sans-serif" font-size="14" lengthAdjust="spacing" textLength="140" x="193.8935" y="405.8709">&#1044;&#1086;&#1073;&#1072;&#1074;&#1080;&#1090;&#1100; &#1072;&#1073;&#1080;&#1090;&#1091;&#1088;&#1080;&#1077;&#1085;&#1090;&#1072;</text></g><!--entity UC2--><g class="entity" data-entity="UC2" data-source-line="8" data-uid="ent0007" id="entity_UC2"><ellipse cx="264.0988" cy="483.1198" fill="#F1F1F1" rx="121.0988" ry="26.6198" style="stroke:#181818;stroke-width:0.5;"/><text fill="#000000" font-family="sans-serif" font-size="14" lengthAdjust="spacing" textLength="224" x="152.0988" y="487.1119">&#1056;&#1077;&#1076;&#1072;&#1082;&#1090;&#1080;&#1088;&#1086;&#1074;&#1072;&#1090;&#1100; &#1076;&#1072;&#1085;&#1085;&#1099;&#1077; &#1072;&#1073;&#1080;&#1090;&#1091;&#1088;&#1080;&#1077;&#1085;&#1090;&#1072;</text></g><!--entity UC3--><g class="entity" data-entity="UC3" data-source-line="9" data-uid="ent0008" id="entity_UC3"><ellipse cx="263.8254" cy="562.7651" fill="#F1F1F1" rx="79.3254" ry="18.2651" style="stroke:#181818;stroke-width:0.5;"/><text fill="#000000" font-family="sans-serif" font-size="14" lengthAdjust="spacing" textLength="133" x="197.3254" y="566.7573">&#1059;&#1076;&#1072;&#1083;&#1080;&#1090;&#1100; &#1072;&#1073;&#1080;&#1090;&#1091;&#1088;&#1080;&#1077;&#1085;&#1090;&#1072;</text></g><!--entity UC4--><g class="entity" data-entity="UC4" data-source-line="10" data-uid="ent0009" id="entity_UC4"><ellipse cx="263.7849" cy="234.957" fill="#F1F1F1" rx="117.7849" ry="25.957" style="stroke:#181818;stroke-width:0.5;"/><text fill="#000000" font-family="sans-serif" font-size="14" lengthAdjust="spacing" textLength="217" x="155.2849" y="238.9492">&#1055;&#1088;&#1086;&#1089;&#1084;&#1086;&#1090;&#1088;&#1077;&#1090;&#1100; &#1089;&#1087;&#1080;&#1089;&#1086;&#1082; &#1072;&#1073;&#1080;&#1090;&#1091;&#1088;&#1080;&#1077;&#1085;&#1090;&#1086;&#1074;</text></g><!--entity UC5--><g class="entity" data-entity="UC5" data-source-line="11" data-uid="ent0010" id="entity_UC5"><ellipse cx="263.7849" cy="321.957" fill="#F1F1F1" rx="117.7849" ry="25.957" style="stroke:#181818;stroke-width:0.5;"/><text fill="#000000" font-family="sans-serif" font-size="14" lengthAdjust="spacing" textLength="217" x="155.2849" y="325.9492">&#1060;&#1080;&#1083;&#1100;&#1090;&#1088;&#1086;&#1074;&#1072;&#1090;&#1100; &#1087;&#1086; &#1087;&#1088;&#1086;&#1093;&#1086;&#1076;&#1085;&#1086;&#1084;&#1091; &#1073;&#1072;&#1083;&#1083;&#1091;</text></g><!--entity UC6--><g class="entity" data-entity="UC6" data-source-line="12" data-uid="ent0011" id="entity_UC6"><ellipse cx="263.7895" cy="637.7579" fill="#F1F1F1" rx="91.7895" ry="20.7579" style="stroke:#181818;stroke-width:0.5;"/><text fill="#000000" font-family="sans-serif" font-size="14" lengthAdjust="spacing" textLength="161" x="183.2895" y="641.7501">&#1055;&#1086;&#1080;&#1089;&#1082; &#1087;&#1086; &#1092;&#1072;&#1084;&#1080;&#1083;&#1080;&#1080; (LIKE)</text></g><!--entity UC7--><g class="entity" data-entity="UC7" data-source-line="13" data-uid="ent0012" id="entity_UC7"><ellipse cx="264.1542" cy="717.8308" fill="#F1F1F1" rx="104.6542" ry="23.3308" style="stroke:#181818;stroke-width:0.5;"/><text fill="#000000" font-family="sans-serif" font-size="14" lengthAdjust="spacing" textLength="189" x="169.6542" y="721.823">&#1069;&#1082;&#1089;&#1087;&#1086;&#1088;&#1090; &#1076;&#1072;&#1085;&#1085;&#1099;&#1093; (.sql, .csv)</text></g><!--entity UC8--><g class="entity" data-entity="UC8" data-source-line="14" data-uid="ent0013" id="entity_UC8"><ellipse cx="264.1542" cy="149.8308" fill="#F1F1F1" rx="104.6542" ry="23.3308" style="stroke:#181818;stroke-width:0.5;"/><text fill="#000000" font-family="sans-serif" font-size="14" lengthAdjust="spacing" textLength="189" x="169.6542" y="153.823">&#1055;&#1088;&#1086;&#1089;&#1084;&#1086;&#1090;&#1088; &#1082;&#1072;&#1090;&#1077;&#1075;&#1086;&#1088;&#1080;&#1081; &#1088;&#1072;&#1089;&#1093;&#1086;&#1076;&#1086;&#1074;</text></g><!--entity UC9--><g class="entity" data-entity="UC9" data-source-line="15" data-uid="ent0014" id="entity_UC9"><ellipse cx="263.9824" cy="65.7965" fill="#F1F1F1" rx="114.4824" ry="25.2965" style="stroke:#181818;stroke-width:0.5;"/><text fill="#000000" font-family="sans-serif" font-size="14" lengthAdjust="spacing" textLength="210" x="158.9824" y="69.7887">&#1055;&#1088;&#1086;&#1089;&#1084;&#1086;&#1090;&#1088; &#1087;&#1086;&#1082;&#1091;&#1087;&#1086;&#1082; &#1089; &#1089;&#1086;&#1088;&#1090;&#1080;&#1088;&#1086;&#1074;&#1082;&#1086;&#1081;</text></g><!--entity Applicant--><g class="entity" data-entity="Applicant" data-source-line="2" data-uid="ent0002" id="entity_Applicant"><ellipse cx="44.5" cy="121" fill="#F1F1F1" rx="8" ry="8" style="stroke:#181818;stroke-width:0.5;"/><path d="M44.5,129 L44.5,156 M31.5,137 L57.5,137 M44.5,156 L31.5,171 M44.5,156 L57.5,171" fill="none" style="stroke:#181818;stroke-width:0.5;"/><text fill="#000000" font-family="sans-serif" font-size="14" lengthAdjust="spacing" textLength="70" x="9.5" y="185.7344">&#1040;&#1073;&#1080;&#1090;&#1091;&#1088;&#1080;&#1077;&#1085;&#1090;</text></g><!--entity Operator--><g class="entity" data-entity="Operator" data-source-line="3" data-uid="ent0003" id="entity_Operator"><ellipse cx="44.5" cy="454" fill="#F1F1F1" rx="8" ry="8" style="stroke:#181818;stroke-width:0.5;"/><path d="M44.5,462 L44.5,489 M31.5,470 L57.5,470 M44.5,489 L31.5,504 M44.5,489 L57.5,504" fill="none" style="stroke:#181818;stroke-width:0.5;"/><text fill="#000000" font-family="sans-serif" font-size="14" lengthAdjust="spacing" textLength="77" x="6" y="518.7344">&#1054;&#1087;&#1077;&#1088;&#1072;&#1090;&#1086;&#1088; &#1055;&#1050;</text></g><!--entity System--><g class="entity" data-entity="System" data-source-line="4" data-uid="ent0004" id="entity_System"><ellipse cx="44.5" cy="689" fill="#F1F1F1" rx="8" ry="8" style="stroke:#181818;stroke-width:0.5;"/><path d="M44.5,697 L44.5,724 M31.5,705 L57.5,705 M44.5,724 L31.5,739 M44.5,724 L57.5,739" fill="none" style="stroke:#181818;stroke-width:0.5;"/><text fill="#000000" font-family="sans-serif" font-size="14" lengthAdjust="spacing" textLength="49" x="20" y="753.7344">&#1057;&#1080;&#1089;&#1090;&#1077;&#1084;&#1072;</text></g><!--link Operator to UC1--><g class="link" data-entity-1="Operator" data-entity-2="UC1" data-source-line="18" data-uid="lnk15" id="link_Operator_UC1"><path d="M83.31,457.54 C94.46,450.82 106.92,444.04 119,439 C144.73,428.26 168.5257,421.3581 194.2157,415.3881" fill="none" id="Operator-to-UC1" style="stroke:#181818;stroke-width:1;"/><polygon fill="#181818" points="200.06,414.03,190.3882,412.171,195.1898,415.1618,192.199,419.9634,200.06,414.03" style="stroke:#181818;stroke-width:1;"/></g><!--link Operator to UC2--><g class="link" data-entity-1="Operator" data-entity-2="UC2" data-source-line="19" data-uid="lnk16" id="link_Operator_UC2"><path d="M83.39,483 C100.3,483 115.27,483 136.85,483" fill="none" id="Operator-to-UC2" style="stroke:#181818;stroke-width:1;"/><polygon fill="#181818" points="142.85,483,133.85,479,137.85,483,133.85,487,142.85,483" style="stroke:#181818;stroke-width:1;"/></g><!--link Operator to UC3--><g class="link" data-entity-1="Operator" data-entity-2="UC3" data-source-line="20" data-uid="lnk17" id="link_Operator_UC3"><path d="M83.29,508.51 C94.44,515.24 106.91,522 119,527 C144.96,537.74 169.0546,544.5507 194.9046,550.3307" fill="none" id="Operator-to-UC3" style="stroke:#181818;stroke-width:1;"/><polygon fill="#181818" points="200.76,551.64,192.8497,545.7725,195.8805,550.549,191.104,553.5797,200.76,551.64" style="stroke:#181818;stroke-width:1;"/></g><!--link Operator to UC4--><g class="link" data-entity-1="Operator" data-entity-2="UC4" data-source-line="21" data-uid="lnk18" id="link_Operator_UC4"><path d="M48.85,445.32 C54.94,399.44 71.93,322.59 119,278 C132.45,265.26 143.8626,258.3065 161.5026,251.9765" fill="none" id="Operator-to-UC4" style="stroke:#181818;stroke-width:1;"/><polygon fill="#181818" points="167.15,249.95,157.3279,249.2249,162.4438,251.6388,160.0299,256.7547,167.15,249.95" style="stroke:#181818;stroke-width:1;"/></g><!--link Operator to UC5--><g class="link" data-entity-1="Operator" data-entity-2="UC5" data-source-line="22" data-uid="lnk19" id="link_Operator_UC5"><path d="M60.29,445.46 C72.4,419.35 91.95,385.65 119,365 C134.45,353.21 147.4079,346.5374 166.0979,340.3074" fill="none" id="Operator-to-UC5" style="stroke:#181818;stroke-width:1;"/><polygon fill="#181818" points="171.79,338.41,161.9869,337.4613,167.0466,339.9911,164.5168,345.0508,171.79,338.41" style="stroke:#181818;stroke-width:1;"/></g><!--link Operator to UC6--><g class="link" data-entity-1="Operator" data-entity-2="UC6" data-source-line="23" data-uid="lnk20" id="link_Operator_UC6"><path d="M60.55,520.67 C72.67,546.36 92.13,579.19 119,599 C137.87,612.91 155.577,620.3738 178.107,626.1338" fill="none" id="Operator-to-UC6" style="stroke:#181818;stroke-width:1;"/><polygon fill="#181818" points="183.92,627.62,176.1912,621.5154,179.0758,626.3815,174.2097,629.2661,183.92,627.62" style="stroke:#181818;stroke-width:1;"/></g><!--link Operator to UC7--><g class="link" data-entity-1="Operator" data-entity-2="UC7" data-source-line="24" data-uid="lnk21" id="link_Operator_UC7"><path d="M49.83,520.87 C56.81,564.38 74.6,635.02 119,676 C134.31,690.13 148.3831,697.7404 168.3831,703.9904" fill="none" id="Operator-to-UC7" style="stroke:#181818;stroke-width:1;"/><polygon fill="#181818" points="174.11,705.78,166.7128,699.2776,169.3376,704.2886,164.3266,706.9134,174.11,705.78" style="stroke:#181818;stroke-width:1;"/></g><!--link Applicant to UC4--><g class="link" data-entity-1="Applicant" data-entity-2="UC4" data-source-line="26" data-uid="lnk22" id="link_Applicant_UC4"><path d="M79.51,170.95 C91.68,177.92 105.69,185.33 119,191 C140.65,200.22 159.125,206.6695 181.435,213.3895" fill="none" id="Applicant-to-UC4" style="stroke:#181818;stroke-width:1;"/><polygon fill="#181818" points="187.18,215.12,179.7161,208.6943,182.3925,213.6779,177.4088,216.3543,187.18,215.12" style="stroke:#181818;stroke-width:1;"/></g><!--link Applicant to UC8--><g class="link" data-entity-1="Applicant" data-entity-2="UC8" data-source-line="27" data-uid="lnk23" id="link_Applicant_UC8"><path d="M79.96,150 C101.52,150 124.55,150 153.12,150" fill="none" id="Applicant-to-UC8" style="stroke:#181818;stroke-width:1;"/><polygon fill="#181818" points="159.12,150,150.12,146,154.12,150,150.12,154,159.12,150" style="stroke:#181818;stroke-width:1;"/></g><!--link Applicant to UC9--><g class="link" data-entity-1="Applicant" data-entity-2="UC9" data-source-line="28" data-uid="lnk24" id="link_Applicant_UC9"><path d="M79.86,128.79 C91.95,121.88 105.81,114.57 119,109 C140.75,99.82 159.3635,93.442 181.7835,86.852" fill="none" id="Applicant-to-UC9" style="stroke:#181818;stroke-width:1;"/><polygon fill="#181818" points="187.54,85.16,177.7773,83.8604,182.7429,86.57,180.0333,91.5357,187.54,85.16" style="stroke:#181818;stroke-width:1;"/></g><!--link System to UC7--><g class="link" data-entity-1="System" data-entity-2="UC7" data-source-line="30" data-uid="lnk25" id="link_System_UC7"><path d="M69.19,718 C91.21,718 119.6,718 153.34,718" fill="none" id="System-to-UC7" style="stroke:#181818;stroke-width:1;"/><polygon fill="#181818" points="159.34,718,150.34,714,154.34,718,150.34,722,159.34,718" style="stroke:#181818;stroke-width:1;"/></g><!--SRC=[ZPFBIiDG48Rtvoc6hXIqO2_QRWGH5wBWGdo046CjrBOsKH0HUh4hNRXmvS8BTIT2gnPhKXFe4ynv8sTEqcZIKboKXZ__VFEVEPEISM21LO5QiN1emNwnPkXMiL8MccvLQf306-pXG3PbIzPnW7tybiq4Q2QiLQkbegwLhT1vZnxsoTMLJNHb7V01xvHrfshKDFA4pYSYDiZLno5sbMNtpBIC8o6ukrOkb0noTT1Z6hwXmtsvEr2OBdwYYr-07_JuJNckP1j6BzE2Zfm4d0k04zFGDPEPjrJQKqosNWCzJbG5aVRMboAbZ_IMMzha693R9KZNXuH9EE4iOYf2xAX2vpzHqf721sul6pGzb_nrcZe3IF1ui9JCdawZo04l4-4zayEHruhrvrWUkg3km9LjqZ_eZ2uEPSk_1OTAMW4k6ur7DivX-mXvIUuXjw3V0EQsDxSsveF2vKZXAmsN3q7R8vlH2vvBciUb1KZgvkcuTcNMJ01jjOXzV6SSTVu2jPkDu2o_iyZDvdWyJzdo_sd8F6SLCDm2c_SnWEN5XH3ZXOV5nLMrHp4X5HVISI4J5x9nOJakh0WHVfCX9Qxa9fIy4Fx7DyRy0000]--></g></svg>