<svg xmlns="http://www.w3.org/2000/svg" xmlns:xlink="http://www.w3.org/1999/xlink" contentStyleType="text/css" data-diagram-type="DESCRIPTION" height="445px" preserveAspectRatio="none" style="width:644px;height:445px;background:#FFFFFF;" version="1.1" viewBox="0 0 644 445" width="644px" zoomAndPan="magnify"><defs/><g><!--cluster ?????????? ?????--><g class="cluster" data-entity=".......... ....." data-source-line="1" data-uid="ent0002" id="cluster_.......... ....."><path d="M115.5,6 L228.5,6 A3.75,3.75 0 0 1 231,8.5 L238,26.9844 L503.5,26.9844 A2.5,2.5 0 0 1 506,29.4844 L506,97.5 A2.5,2.5 0 0 1 503.5,100 L115.5,100 A2.5,2.5 0 0 1 113,97.5 L113,8.5 A2.5,2.5 0 0 1 115.5,6" fill="none" style="stroke:#000000;stroke-width:1.5;"/><line style="stroke:#000000;stroke-width:1.5;" x1="113" x2="238" y1="26.9844" y2="26.9844"/><text fill="#000000" font-family="sans-serif" font-size="14" font-weight="bold" lengthAdjust="spacing" textLength="112" x="117" y="21.2344">&#1050;&#1083;&#1080;&#1077;&#1085;&#1090;&#1089;&#1082;&#1072;&#1103; &#1095;&#1072;&#1089;&#1090;&#1100;</text></g><!--cluster ?????????? Business Logic--><g class="cluster" data-entity=".......... Business Logic" data-source-line="6" data-uid="ent0005" id="cluster_.......... Business Logic"><path d="M8.5,124 L184.5,124 A3.75,3.75 0 0 1 187,126.5 L194,144.9844 L569.5,144.9844 A2.5,2.5 0 0 1 572,147.4844 L572,215.5 A2.5,2.5 0 0 1 569.5,218 L8.5,218 A2.5,2.5 0 0 1 6,215.5 L6,126.5 A2.5,2.5 0 0 1 8.5,124" fill="none" style="stroke:#000000;stroke-width:1.5;"/><line style="stroke:#000000;stroke-width:1.5;" x1="6" x2="194" y1="144.9844" y2="144.9844"/><text fill="#000000" font-family="sans-serif" font-size="14" font-weight="bold" lengthAdjust="spacing" textLength="175" x="10" y="139.2344">&#1055;&#1088;&#1080;&#1083;&#1086;&#1078;&#1077;&#1085;&#1080;&#1077; Business Logic</text></g><!--cluster ????????? ??????--><g class="cluster" data-entity="......... ......" data-source-line="12" data-uid="ent0009" id="cluster_......... ......"><path d="M74.5,242 L187.5,242 A3.75,3.75 0 0 1 190,244.5 L197,262.9844 L634.5,262.9844 A2.5,2.5 0 0 1 637,265.4844 L637,435.5 A2.5,2.5 0 0 1 634.5,438 L74.5,438 A2.5,2.5 0 0 1 72,435.5 L72,244.5 A2.5,2.5 0 0 1 74.5,242" fill="none" style="stroke:#000000;stroke-width:1.5;"/><line style="stroke:#000000;stroke-width:1.5;" x1="72" x2="197" y1="262.9844" y2="262.9844"/><text fill="#000000" font-family="sans-serif" font-size="14" font-weight="bold" lengthAdjust="spacing" textLength="112" x="76" y="257.2344">&#1061;&#1088;&#1072;&#1085;&#1080;&#1083;&#1080;&#1097;&#1077; &#1076;&#1072;&#1085;&#1085;&#1099;&#1093;</text></g><!--cluster SQLite DB--><g class="cluster" data-entity="SQLite DB" data-source-line="13" data-uid="ent0010" id="cluster_SQLite DB"><path d="M398,301 C398,291 501.5,291 501.5,291 C501.5,291 605,291 605,301 L605,396 C605,406 501.5,406 501.5,406 C501.5,406 398,406 398,396 L398,301" fill="none" style="stroke:#181818;stroke-width:1;"/><path d="M398,301 C398,311 501.5,311 501.5,311 C501.5,311 605,311 605,301" fill="none" style="stroke:#181818;stroke-width:1;"/><text fill="#000000" font-family="sans-serif" font-size="14" font-weight="bold" lengthAdjust="spacing" textLength="63" x="470" y="326.2344">SQLite DB</text></g><!--cluster ????????--><g class="cluster" data-entity="........" data-source-line="16" data-uid="ent0012" id="cluster_........"><path d="M106.5,306 L163.5,306 A3.75,3.75 0 0 1 166,308.5 L173,326.9844 L355.5,326.9844 A2.5,2.5 0 0 1 358,329.4844 L358,403.5 A2.5,2.5 0 0 1 355.5,406 L106.5,406 A2.5,2.5 0 0 1 104,403.5 L104,308.5 A2.5,2.5 0 0 1 106.5,306" fill="none" style="stroke:#000000;stroke-width:1.5;"/><line style="stroke:#000000;stroke-width:1.5;" x1="104" x2="173" y1="326.9844" y2="326.9844"/><text fill="#000000" font-family="sans-serif" font-size="14" font-weight="bold" lengthAdjust="spacing" textLength="56" x="108" y="321.2344">&#1069;&#1082;&#1089;&#1087;&#1086;&#1088;&#1090;&#1099;</text></g><!--entity CLI / ??????? SQLite--><g class="entity" data-entity="CLI . ....... SQLite" data-source-line="2" data-uid="ent0003" id="entity_CLI . ....... SQLite"><rect fill="#F1F1F1" height="44.9844" rx="2.5" ry="2.5" style="stroke:#181818;stroke-width:0.5;" width="180" x="310" y="39"/><rect fill="#F1F1F1" height="10" style="stroke:#181818;stroke-width:0.5;" width="15" x="470" y="44"/><rect fill="#F1F1F1" height="2" style="stroke:#181818;stroke-width:0.5;" width="4" x="468" y="46"/><rect fill="#F1F1F1" height="2" style="stroke:#181818;stroke-width:0.5;" width="4" x="468" y="50"/><text fill="#000000" font-family="sans-serif" font-size="14" lengthAdjust="spacing" textLength="140" x="325" y="72.2344">CLI / &#1050;&#1086;&#1085;&#1089;&#1086;&#1083;&#1100; SQLite</text></g><!--entity ?????? ????????--><g class="entity" data-entity="...... ........" data-source-line="3" data-uid="ent0004" id="entity_...... ........"><rect fill="#F1F1F1" height="44.9844" rx="2.5" ry="2.5" style="stroke:#181818;stroke-width:0.5;" width="145" x="129.5" y="39"/><rect fill="#F1F1F1" height="10" style="stroke:#181818;stroke-width:0.5;" width="15" x="254.5" y="44"/><rect fill="#F1F1F1" height="2" style="stroke:#181818;stroke-width:0.5;" width="4" x="252.5" y="46"/><rect fill="#F1F1F1" height="2" style="stroke:#181818;stroke-width:0.5;" width="4" x="252.5" y="50"/><text fill="#000000" font-family="sans-serif" font-size="14" lengthAdjust="spacing" textLength="105" x="144.5" y="72.2344">&#1057;&#1082;&#1088;&#1080;&#1087;&#1090; &#1101;&#1082;&#1089;&#1087;&#1086;&#1088;&#1090;&#1072;</text></g><!--entity CRUD-????????--><g class="entity" data-entity="CRUD-........" data-source-line="7" data-uid="ent0006" id="entity_CRUD-........"><rect fill="#F1F1F1" height="44.9844" rx="2.5" ry="2.5" style="stroke:#181818;stroke-width:0.5;" width="131" x="424.5" y="157"/><rect fill="#F1F1F1" height="10" style="stroke:#181818;stroke-width:0.5;" width="15" x="535.5" y="162"/><rect fill="#F1F1F1" height="2" style="stroke:#181818;stroke-width:0.5;" width="4" x="533.5" y="164"/><rect fill="#F1F1F1" height="2" style="stroke:#181818;stroke-width:0.5;" width="4" x="533.5" y="168"/><text fill="#000000" font-family="sans-serif" font-size="14" lengthAdjust="spacing" textLength="91" x="439.5" y="190.2344">CRUD-&#1086;&#1087;&#1077;&#1088;&#1072;&#1094;&#1080;&#1080;</text></g><!--entity ????????? ??????--><g class="entity" data-entity="......... ......" data-source-line="8" data-uid="ent0007" id="entity_......... ......"><rect fill="#F1F1F1" height="44.9844" rx="2.5" ry="2.5" style="stroke:#181818;stroke-width:0.5;" width="152" x="237" y="157"/><rect fill="#F1F1F1" height="10" style="stroke:#181818;stroke-width:0.5;" width="15" x="369" y="162"/><rect fill="#F1F1F1" height="2" style="stroke:#181818;stroke-width:0.5;" width="4" x="367" y="164"/><rect fill="#F1F1F1" height="2" style="stroke:#181818;stroke-width:0.5;" width="4" x="367" y="168"/><text fill="#000000" font-family="sans-serif" font-size="14" lengthAdjust="spacing" textLength="112" x="252" y="190.2344">&#1042;&#1072;&#1083;&#1080;&#1076;&#1072;&#1094;&#1080;&#1103; &#1076;&#1072;&#1085;&#1085;&#1099;&#1093;</text></g><!--entity ???????????? ???????--><g class="entity" data-entity="............ ......." data-source-line="9" data-uid="ent0008" id="entity_............ ......."><rect fill="#F1F1F1" height="44.9844" rx="2.5" ry="2.5" style="stroke:#181818;stroke-width:0.5;" width="180" x="22" y="157"/><rect fill="#F1F1F1" height="10" style="stroke:#181818;stroke-width:0.5;" width="15" x="182" y="162"/><rect fill="#F1F1F1" height="2" style="stroke:#181818;stroke-width:0.5;" width="4" x="180" y="164"/><rect fill="#F1F1F1" height="2" style="stroke:#181818;stroke-width:0.5;" width="4" x="180" y="168"/><text fill="#000000" font-family="sans-serif" font-size="14" lengthAdjust="spacing" textLength="140" x="37" y="190.2344">&#1060;&#1086;&#1088;&#1084;&#1080;&#1088;&#1086;&#1074;&#1072;&#1085;&#1080;&#1077; &#1086;&#1090;&#1095;&#1077;&#1090;&#1086;&#1074;</text></g><!--entity Applicant.sqlite3--><g class="entity" data-entity="Applicant.sqlite3" data-source-line="14" data-uid="ent0011" id="entity_Applicant.sqlite3"><path d="M441.5,349.5 L441.5,379.4844 A2.5,2.5 0 0 0 444,381.9844 L578,381.9844 A2.5,2.5 0 0 0 580.5,379.4844 L580.5,357 L570.5,347 L444,347 A2.5,2.5 0 0 0 441.5,349.5" fill="#F1F1F1" style="stroke:#181818;stroke-width:0.5;"/><path d="M570.5,347 L570.5,354.5 A2.5,2.5 0 0 0 573,357 L580.5,357" fill="#F1F1F1" style="stroke:#181818;stroke-width:0.5;"/><text fill="#000000" font-family="sans-serif" font-size="14" lengthAdjust="spacing" textLength="119" x="451.5" y="370.2344">Applicant.sqlite3</text></g><!--entity data.sql--><g class="entity" data-entity="data.sql" data-source-line="17" data-uid="ent0013" id="entity_data.sql"><path d="M258,349.5 L258,379.4844 A2.5,2.5 0 0 0 260.5,381.9844 L331.5,381.9844 A2.5,2.5 0 0 0 334,379.4844 L334,357 L324,347 L260.5,347 A2.5,2.5 0 0 0 258,349.5" fill="#F1F1F1" style="stroke:#181818;stroke-width:0.5;"/><path d="M324,347 L324,354.5 A2.5,2.5 0 0 0 326.5,357 L334,357" fill="#F1F1F1" style="stroke:#181818;stroke-width:0.5;"/><text fill="#000000" font-family="sans-serif" font-size="14" lengthAdjust="spacing" textLength="56" x="268" y="370.2344">data.sql</text></g><!--entity data.csv--><g class="entity" data-entity="data.csv" data-source-line="18" data-uid="ent0014" id="entity_data.csv"><path d="M147,349.5 L147,379.4844 A2.5,2.5 0 0 0 149.5,381.9844 L220.5,381.9844 A2.5,2.5 0 0 0 223,379.4844 L223,357 L213,347 L149.5,347 A2.5,2.5 0 0 0 147,349.5" fill="#F1F1F1" style="stroke:#181818;stroke-width:0.5;"/><path d="M213,347 L213,354.5 A2.5,2.5 0 0 0 215.5,357 L223,357" fill="#F1F1F1" style="stroke:#181818;stroke-width:0.5;"/><text fill="#000000" font-family="sans-serif" font-size="14" lengthAdjust="spacing" textLength="56" x="157" y="370.2344">data.csv</text></g><!--link CLI / ??????? SQLite to CRUD-????????--><g class="link" data-entity-1="CLI . ....... SQLite" data-entity-2="CRUD-........" data-source-line="22" data-uid="lnk15" id="link_CLI . ....... SQLite_CRUD-........"><path d="M416.72,84.05 C432.78,104.75 453.2506,131.1406 469.3906,151.9306" fill="none" id="CLI / &#1050;&#1086;&#1085;&#1089;&#1086;&#1083;&#1100; SQLite-to-CRUD-&#1086;&#1087;&#1077;&#1088;&#1072;&#1094;&#1080;&#1080;" style="stroke:#181818;stroke-width:1;"/><polygon fill="#181818" points="473.07,156.67,470.7105,147.1079,470.0038,152.7205,464.3913,152.0138,473.07,156.67" style="stroke:#181818;stroke-width:1;"/></g><!--link ?????? ???????? to ???????????? ???????--><g class="link" data-entity-1="...... ........" data-entity-2="............ ......." data-source-line="23" data-uid="lnk16" id="link_...... ........_............ ......."><path d="M185.28,84.05 C169.22,104.75 148.7494,131.1406 132.6094,151.9306" fill="none" id="&#1057;&#1082;&#1088;&#1080;&#1087;&#1090; &#1101;&#1082;&#1089;&#1087;&#1086;&#1088;&#1090;&#1072;-to-&#1060;&#1086;&#1088;&#1084;&#1080;&#1088;&#1086;&#1074;&#1072;&#1085;&#1080;&#1077; &#1086;&#1090;&#1095;&#1077;&#1090;&#1086;&#1074;" style="stroke:#181818;stroke-width:1;"/><polygon fill="#181818" points="128.93,156.67,137.6087,152.0138,131.9962,152.7205,131.2895,147.1079,128.93,156.67" style="stroke:#181818;stroke-width:1;"/></g><!--link CRUD-???????? to SQLite DB--><g class="link" data-entity-1="CRUD-........" data-entity-2="SQLite DB" data-source-line="24" data-uid="lnk17" id="link_CRUD-........_SQLite DB"><path d="M454.33,202.23 C443.22,210.76 432.04,221.53 425,234 C417.9625,246.4675 413.2381,260.6413 410.1145,274.9264 C409.3336,278.4977 408.6528,282.0759 408.0609,285.6362 C407.7649,287.4164 408.3407,283.2525 408.0878,285.0206" fill="none" id="CRUD-&#1086;&#1087;&#1077;&#1088;&#1072;&#1094;&#1080;&#1080;-to-SQLite DB" style="stroke:#181818;stroke-width:1;"/><polygon fill="#181818" points="407.2383,290.9601,412.4723,282.6172,407.9462,286.0105,404.5529,281.4844,407.2383,290.9601" style="stroke:#181818;stroke-width:1;"/></g><!--link ???????????? ??????? to SQLite DB--><g class="link" data-entity-1="............ ......." data-entity-2="SQLite DB" data-source-line="25" data-uid="lnk18" id="link_............ ......._SQLite DB"><path d="M153.98,202.08 C173.53,211.11 197.42,220.71 220,226 C234.09,229.3 338.16,225.69 350,234 C375.26,251.735 389.22,283.3825 396.885,310.9513 C397.1245,311.8128 397.3579,312.6703 397.5853,313.5233 C397.699,313.9498 396.2959,308.5697 396.4066,308.9939" fill="none" id="&#1060;&#1086;&#1088;&#1084;&#1080;&#1088;&#1086;&#1074;&#1072;&#1085;&#1080;&#1077; &#1086;&#1090;&#1095;&#1077;&#1090;&#1086;&#1074;-to-SQLite DB" style="stroke:#181818;stroke-width:1;"/><polygon fill="#181818" points="397.9219,314.7994,399.5192,305.0809,396.6591,309.9615,391.7786,307.1014,397.9219,314.7994" style="stroke:#181818;stroke-width:1;"/></g><!--link ???????????? ??????? to ????????--><g class="link" data-entity-1="............ ......." data-entity-2="........" data-source-line="26" data-uid="lnk19" id="link_............ ......._........"><path d="M112,202.21 C112,226.07 112,265.515 112,299.4238 C112,301.543 112,297.6407 112,299.7116" fill="none" id="&#1060;&#1086;&#1088;&#1084;&#1080;&#1088;&#1086;&#1074;&#1072;&#1085;&#1080;&#1077; &#1086;&#1090;&#1095;&#1077;&#1090;&#1086;&#1074;-to-&#1069;&#1082;&#1089;&#1087;&#1086;&#1088;&#1090;&#1099;" style="stroke:#181818;stroke-width:1;"/><polygon fill="#181818" points="112,305.7116,116,296.7116,112,300.7116,108,296.7116,112,305.7116" style="stroke:#181818;stroke-width:1;"/></g><!--SRC=[fL4zIyDG5DtpAoxPguExOEqYP55nAXrYcfPWQAE9Bb9e0YhIYk3e8eAEGX0hfR7DNxZt7tbU7aeCL0iE-Jhtt7DEpWjivyZkkcJoFMSyvGdF9P6OPvpABSaL7Z60iKdd1b5pszgXTG9t0LwCUoPZsj-rlCXjgJa_yao6qCab8Rd1HymvBsGe2QSjOs0OmRVXGq7C8FAkR9KvrKz3h-U68LdzhkTycUuTD6gWvJp1IYgNe4wrtHsdHUmt3IEoUeNON4PoeJbFofy_C1r2vBKOAo_02NvmWcY0A-6UbLD1XBnSAtf9M0Thsv5zQ8UWwmQeKTS3eexd0zuA0jzpx5wq5Xxx86oO60vmTVf-sps1pKkv8HdzN5VwQjEiOavuffKG-TSZeLfjSsb_VnoMtbsvlIKkXKgf7sDbnNzkDglTjZu1]--></g></svg>