<svg xmlns="http://www.w3.org/2000/svg" xmlns:xlink="http://www.w3.org/1999/xlink" contentStyleType="text/css" data-diagram-type="CLASS" height="787px" preserveAspectRatio="none" style="width:236px;height:787px;background:#FFFFFF;" version="1.1" viewBox="0 0 236 787" width="236px" zoomAndPan="magnify"><defs/><g><!--class Applicant--><g class="entity" data-entity="Applicant" data-source-line="1" data-uid="ent0002" id="entity_Applicant"><rect fill="#F1F1F1" height="392.6406" rx="2.5" ry="2.5" style="stroke:#181818;stroke-width:0.5;" width="166" x="35" y="7"/><ellipse cx="82.25" cy="23" fill="#ADD1B2" rx="11" ry="11" style="stroke:#181818;stroke-width:1;"/><path d="M79.875,27.25 L79.875,29 L84.8125,29 L84.8125,27.25 L79.875,27.25 Z M80.5625,27.9375 Q80.5625,27.9375 80.5625,18.75 L78.8125,18.75 Q78.8125,18.75 78.8125,27.9375 L80.5625,27.9375 Z M84.125,27.9375 L85.875,27.9375 Q85.875,27.9375 85.875,25.125 L84.125,25.125 Q84.125,25.125 84.125,27.9375 Z M84.125,18.75 Q84.125,18.75 84.125,21.5625 L85.875,21.5625 Q85.875,21.5625 85.875,18.75 L84.125,18.75 Z M79.875,19.4375 L84.8125,19.4375 L84.8125,17.6875 L79.875,17.6875 L79.875,19.4375 Z " fill="#000000"/><text fill="#000000" font-family="sans-serif" font-size="14" lengthAdjust="spacing" textLength="63" x="102.75" y="28.7422">Applicant</text><line style="stroke:#181818;stroke-width:0.5;" x1="36" x2="200" y1="39" y2="39"/><ellipse cx="46" cy="51.9922" fill="none" rx="3" ry="3" style="stroke:#038048;stroke-width:1;"/><text fill="#000000" font-family="sans-serif" font-size="14" lengthAdjust="spacing" textLength="77" x="55" y="56.2344">id: INTEGER</text><ellipse cx="46" cy="66.9766" fill="none" rx="3" ry="3" style="stroke:#038048;stroke-width:1;"/><text fill="#000000" font-family="sans-serif" font-size="14" lengthAdjust="spacing" textLength="105" x="55" y="71.2188">last_name: TEXT</text><ellipse cx="46" cy="81.9609" fill="none" rx="3" ry="3" style="stroke:#038048;stroke-width:1;"/><text fill="#000000" font-family="sans-serif" font-size="14" lengthAdjust="spacing" textLength="112" x="55" y="86.2031">first_name: TEXT</text><ellipse cx="46" cy="96.9453" fill="none" rx="3" ry="3" style="stroke:#038048;stroke-width:1;"/><text fill="#000000" font-family="sans-serif" font-size="14" lengthAdjust="spacing" textLength="119" x="55" y="101.1875">middle_name: TEXT</text><ellipse cx="46" cy="111.9297" fill="none" rx="3" ry="3" style="stroke:#038048;stroke-width:1;"/><text fill="#000000" font-family="sans-serif" font-size="14" lengthAdjust="spacing" textLength="84" x="55" y="116.1719">gender: TEXT</text><ellipse cx="46" cy="126.9141" fill="none" rx="3" ry="3" style="stroke:#038048;stroke-width:1;"/><text fill="#000000" font-family="sans-serif" font-size="14" lengthAdjust="spacing" textLength="119" x="55" y="131.1563">nationality: TEXT</text><ellipse cx="46" cy="141.8984" fill="none" rx="3" ry="3" style="stroke:#038048;stroke-width:1;"/><text fill="#000000" font-family="sans-serif" font-size="14" lengthAdjust="spacing" textLength="112" x="55" y="146.1406">birth_date: TEXT</text><ellipse cx="46" cy="156.8828" fill="none" rx="3" ry="3" style="stroke:#038048;stroke-width:1;"/><text fill="#000000" font-family="sans-serif" font-size="14" lengthAdjust="spacing" textLength="119" x="55" y="161.125">postal_code: TEXT</text><ellipse cx="46" cy="171.8672" fill="none" rx="3" ry="3" style="stroke:#038048;stroke-width:1;"/><text fill="#000000" font-family="sans-serif" font-size="14" lengthAdjust="spacing" textLength="91" x="55" y="176.1094">country: TEXT</text><ellipse cx="46" cy="186.8516" fill="none" rx="3" ry="3" style="stroke:#038048;stroke-width:1;"/><text fill="#000000" font-family="sans-serif" font-size="14" lengthAdjust="spacing" textLength="84" x="55" y="191.0938">region: TEXT</text><ellipse cx="46" cy="201.8359" fill="none" rx="3" ry="3" style="stroke:#038048;stroke-width:1;"/><text fill="#000000" font-family="sans-serif" font-size="14" lengthAdjust="spacing" textLength="98" x="55" y="206.0781">district: TEXT</text><ellipse cx="46" cy="216.8203" fill="none" rx="3" ry="3" style="stroke:#038048;stroke-width:1;"/><text fill="#000000" font-family="sans-serif" font-size="14" lengthAdjust="spacing" textLength="70" x="55" y="221.0625">city: TEXT</text><ellipse cx="46" cy="231.8047" fill="none" rx="3" ry="3" style="stroke:#038048;stroke-width:1;"/><text fill="#000000" font-family="sans-serif" font-size="14" lengthAdjust="spacing" textLength="84" x="55" y="236.0469">street: TEXT</text><ellipse cx="46" cy="246.7891" fill="none" rx="3" ry="3" style="stroke:#038048;stroke-width:1;"/><text fill="#000000" font-family="sans-serif" font-size="14" lengthAdjust="spacing" textLength="77" x="55" y="251.0313">house: TEXT</text><ellipse cx="46" cy="261.7734" fill="none" rx="3" ry="3" style="stroke:#038048;stroke-width:1;"/><text fill="#000000" font-family="sans-serif" font-size="14" lengthAdjust="spacing" textLength="105" x="55" y="266.0156">apartment: TEXT</text><ellipse cx="46" cy="276.7578" fill="none" rx="3" ry="3" style="stroke:#038048;stroke-width:1;"/><text fill="#000000" font-family="sans-serif" font-size="14" lengthAdjust="spacing" textLength="105" x="55" y="281">ct_scores: TEXT</text><ellipse cx="46" cy="291.7422" fill="none" rx="3" ry="3" style="stroke:#038048;stroke-width:1;"/><text fill="#000000" font-family="sans-serif" font-size="14" lengthAdjust="spacing" textLength="133" x="55" y="295.9844">passing_score: REAL</text><line style="stroke:#181818;stroke-width:1;" x1="36" x2="200" y1="301.7344" y2="301.7344"/><ellipse cx="46" cy="314.7266" fill="#84BE84" rx="3" ry="3" style="stroke:#038048;stroke-width:1;"/><text fill="#000000" font-family="sans-serif" font-size="14" lengthAdjust="spacing" textLength="56" x="55" y="318.9688">create()</text><ellipse cx="46" cy="329.7109" fill="#84BE84" rx="3" ry="3" style="stroke:#038048;stroke-width:1;"/><text fill="#000000" font-family="sans-serif" font-size="14" lengthAdjust="spacing" textLength="56" x="55" y="333.9531">update()</text><ellipse cx="46" cy="344.6953" fill="#84BE84" rx="3" ry="3" style="stroke:#038048;stroke-width:1;"/><text fill="#000000" font-family="sans-serif" font-size="14" lengthAdjust="spacing" textLength="56" x="55" y="348.9375">delete()</text><ellipse cx="46" cy="359.6797" fill="#84BE84" rx="3" ry="3" style="stroke:#038048;stroke-width:1;"/><text fill="#000000" font-family="sans-serif" font-size="14" lengthAdjust="spacing" textLength="77" x="55" y="363.9219">selectAll()</text><ellipse cx="46" cy="374.6641" fill="#84BE84" rx="3" ry="3" style="stroke:#038048;stroke-width:1;"/><text fill="#000000" font-family="sans-serif" font-size="14" lengthAdjust="spacing" textLength="84" x="55" y="378.9063">selectById()</text><ellipse cx="46" cy="389.6484" fill="#84BE84" rx="3" ry="3" style="stroke:#038048;stroke-width:1;"/><text fill="#000000" font-family="sans-serif" font-size="14" lengthAdjust="spacing" textLength="140" x="55" y="393.8906">selectLikeLastName()</text></g><!--class Spending--><g class="entity" data-entity="Spending" data-source-line="28" data-uid="ent0003" id="entity_Spending"><rect fill="#F1F1F1" height="122.9219" rx="2.5" ry="2.5" style="stroke:#181818;stroke-width:0.5;" width="222" x="7" y="475"/><ellipse cx="85.75" cy="491" fill="#ADD1B2" rx="11" ry="11" style="stroke:#181818;stroke-width:1;"/><path d="M83.375,495.25 L83.375,497 L88.3125,497 L88.3125,495.25 L83.375,495.25 Z M84.0625,495.9375 Q84.0625,495.9375 84.0625,486.75 L82.3125,486.75 Q82.3125,486.75 82.3125,495.9375 L84.0625,495.9375 Z M87.625,495.9375 L89.375,495.9375 Q89.375,495.9375 89.375,493.125 L87.625,493.125 Q87.625,493.125 87.625,495.9375 Z M87.625,486.75 Q87.625,486.75 87.625,489.5625 L89.375,489.5625 Q89.375,489.5625 89.375,486.75 L87.625,486.75 Z M83.375,487.4375 L88.3125,487.4375 L88.3125,485.6875 L83.375,485.6875 L83.375,487.4375 Z " fill="#000000"/><text fill="#000000" font-family="sans-serif" font-size="14" lengthAdjust="spacing" textLength="56" x="106.25" y="496.7422">Spending</text><line style="stroke:#181818;stroke-width:0.5;" x1="8" x2="228" y1="507" y2="507"/><ellipse cx="18" cy="519.9922" fill="none" rx="3" ry="3" style="stroke:#038048;stroke-width:1;"/><text fill="#000000" font-family="sans-serif" font-size="14" lengthAdjust="spacing" textLength="77" x="27" y="524.2344">id: INTEGER</text><ellipse cx="18" cy="534.9766" fill="none" rx="3" ry="3" style="stroke:#038048;stroke-width:1;"/><text fill="#000000" font-family="sans-serif" font-size="14" lengthAdjust="spacing" textLength="112" x="27" y="539.2188">store_name: TEXT</text><ellipse cx="18" cy="549.9609" fill="none" rx="3" ry="3" style="stroke:#038048;stroke-width:1;"/><text fill="#000000" font-family="sans-serif" font-size="14" lengthAdjust="spacing" textLength="133" x="27" y="554.2031">purchase_date: TEXT</text><ellipse cx="18" cy="564.9453" fill="none" rx="3" ry="3" style="stroke:#038048;stroke-width:1;"/><text fill="#000000" font-family="sans-serif" font-size="14" lengthAdjust="spacing" textLength="84" x="27" y="569.1875">amount: REAL</text><line style="stroke:#181818;stroke-width:1;" x1="8" x2="228" y1="574.9375" y2="574.9375"/><ellipse cx="18" cy="587.9297" fill="#84BE84" rx="3" ry="3" style="stroke:#038048;stroke-width:1;"/><text fill="#000000" font-family="sans-serif" font-size="14" lengthAdjust="spacing" textLength="196" x="27" y="592.1719">selectAllOrderByAmountDesc()</text></g><!--class ExpenseCategory--><g class="entity" data-entity="ExpenseCategory" data-source-line="37" data-uid="ent0004" id="entity_ExpenseCategory"><rect fill="#F1F1F1" height="107.9375" rx="2.5" ry="2.5" style="stroke:#181818;stroke-width:0.5;" width="145" x="45.5" y="673"/><ellipse cx="64.1" cy="689" fill="#ADD1B2" rx="11" ry="11" style="stroke:#181818;stroke-width:1;"/><path d="M61.725,693.25 L61.725,695 L66.6625,695 L66.6625,693.25 L61.725,693.25 Z M62.4125,693.9375 Q62.4125,693.9375 62.4125,684.75 L60.6625,684.75 Q60.6625,684.75 60.6625,693.9375 L62.4125,693.9375 Z M65.975,693.9375 L67.725,693.9375 Q67.725,693.9375 67.725,691.125 L65.975,691.125 Q65.975,691.125 65.975,693.9375 Z M65.975,684.75 Q65.975,684.75 65.975,687.5625 L67.725,687.5625 Q67.725,687.5625 67.725,684.75 L65.975,684.75 Z M61.725,685.4375 L66.6625,685.4375 L66.6625,683.6875 L61.725,683.6875 L61.725,685.4375 Z " fill="#000000"/><text fill="#000000" font-family="sans-serif" font-size="14" lengthAdjust="spacing" textLength="105" x="78.9" y="694.7422">ExpenseCategory</text><line style="stroke:#181818;stroke-width:0.5;" x1="46.5" x2="189.5" y1="705" y2="705"/><ellipse cx="56.5" cy="717.9922" fill="none" rx="3" ry="3" style="stroke:#038048;stroke-width:1;"/><text fill="#000000" font-family="sans-serif" font-size="14" lengthAdjust="spacing" textLength="77" x="65.5" y="722.2344">id: INTEGER</text><ellipse cx="56.5" cy="732.9766" fill="none" rx="3" ry="3" style="stroke:#038048;stroke-width:1;"/><text fill="#000000" font-family="sans-serif" font-size="14" lengthAdjust="spacing" textLength="70" x="65.5" y="737.2188">name: TEXT</text><ellipse cx="56.5" cy="747.9609" fill="none" rx="3" ry="3" style="stroke:#038048;stroke-width:1;"/><text fill="#000000" font-family="sans-serif" font-size="14" lengthAdjust="spacing" textLength="119" x="65.5" y="752.2031">description: TEXT</text><line style="stroke:#181818;stroke-width:1;" x1="46.5" x2="189.5" y1="757.9531" y2="757.9531"/><ellipse cx="56.5" cy="770.9453" fill="#84BE84" rx="3" ry="3" style="stroke:#038048;stroke-width:1;"/><text fill="#000000" font-family="sans-serif" font-size="14" lengthAdjust="spacing" textLength="77" x="65.5" y="775.1875">selectAll()</text></g><!--link Applicant to Spending--><g class="link" data-entity-1="Applicant" data-entity-2="Spending" data-source-line="45" data-uid="lnk5" id="link_Applicant_Spending"><path codeLine="45" d="M118,400.39 C118,427.33 118,453.16 118,474.89" fill="none" id="Applicant-Spending" style="stroke:#181818;stroke-width:1;"/><text fill="#000000" font-family="sans-serif" font-size="13" lengthAdjust="spacing" textLength="39" x="119" y="443.2891">&#1076;&#1077;&#1083;&#1072;&#1077;&#1090;</text><text fill="#000000" font-family="sans-serif" font-size="13" lengthAdjust="spacing" textLength="6.5" x="111.9012" y="420.0113">1</text><text fill="#000000" font-family="sans-serif" font-size="13" lengthAdjust="spacing" textLength="6.5" x="111.6477" y="465.516">*</text></g><!--link Spending to ExpenseCategory--><g class="link" data-entity-1="Spending" data-entity-2="ExpenseCategory" data-source-line="46" data-uid="lnk6" id="link_Spending_ExpenseCategory"><path codeLine="46" d="M118,598.18 C118,622.18 118,649.52 118,672.74" fill="none" id="Spending-ExpenseCategory" style="stroke:#181818;stroke-width:1;"/><text fill="#000000" font-family="sans-serif" font-size="13" lengthAdjust="spacing" textLength="71.5" x="119" y="641.2891">&#1086;&#1090;&#1085;&#1086;&#1089;&#1080;&#1090;&#1089;&#1103; &#1082;</text><text fill="#000000" font-family="sans-serif" font-size="13" lengthAdjust="spacing" textLength="6.5" x="111.682" y="618.4097">*</text><text fill="#000000" font-family="sans-serif" font-size="13" lengthAdjust="spacing" textLength="6.5" x="111.6133" y="663.5534">1</text></g><!--SRC=[TLBBQiCm4BpxAuHFVP13hxuvhGc1a4AQGsz6bRQEg2mBIOQQqaFo0_sL7XeeBUqto7_KZGE9x9ABOMPtTaSxPf9QIrAjfM1KEV8I4N9914_8TBxC9jcYmzZaSaLBICWokrzstACm_ybIS2vXo1QWE9Y0KDI9Ib4fN1Em3yAuLSwf2xMwiexAd5KyP5bLAsT2iO42HmO45zOPmLoewk_3Ea1ONrMr3RTGJOqhGVLckDoooe0DFU8DXIhsXOGiidI6_6Yq5nZ05vsTTw3M_0WuI3W0Yu2vLCeU7ZTJtYDcuWbccCOSBuo5roXYNO9t6c-C7au4Q1qw6yQYQyDMrCBmvBJSNNVuZeF1MuDXZfkqwxe1oq8VsJCQiN2D4ulAD2Vi38nm76A4Tc60mwtx9SSVDRwAiOV45_7nxGdn7txhl_sxtxQRwC3lcdQzA1dwGyblk_4_-5txptRJhjituh_-0000]--></g></svg>