<svg xmlns="http://www.w3.org/2000/svg" xmlns:xlink="http://www.w3.org/1999/xlink" contentStyleType="text/css" data-diagram-type="ACTIVITY" height="564px" preserveAspectRatio="none" style="width:309px;height:564px;background:#FFFFFF;" version="1.1" viewBox="0 0 309 564" width="309px" zoomAndPan="magnify"><defs/><g><ellipse cx="144.5" cy="20" fill="#222222" rx="10" ry="10" style="stroke:#222222;stroke-width:1;"/><rect fill="#F1F1F1" height="32.8438" rx="12.5" ry="12.5" style="stroke:#181818;stroke-width:0.5;" width="188" x="50.5" y="50"/><text fill="#000000" font-family="sans-serif" font-size="12" lengthAdjust="spacing" textLength="168" x="60.5" y="71.3438">&#1054;&#1087;&#1077;&#1088;&#1072;&#1090;&#1086;&#1088; &#1074;&#1099;&#1073;&#1080;&#1088;&#1072;&#1077;&#1090; "&#1044;&#1086;&#1073;&#1072;&#1074;&#1080;&#1090;&#1100;"</text><rect fill="#F1F1F1" height="32.8438" rx="12.5" ry="12.5" style="stroke:#181818;stroke-width:0.5;" width="164" x="62.5" y="102.8438"/><text fill="#000000" font-family="sans-serif" font-size="12" lengthAdjust="spacing" textLength="144" x="72.5" y="124.1875">&#1057;&#1080;&#1089;&#1090;&#1077;&#1084;&#1072; &#1087;&#1086;&#1082;&#1072;&#1079;&#1099;&#1074;&#1072;&#1077;&#1090; &#1092;&#1086;&#1088;&#1084;&#1091;</text><rect fill="#F1F1F1" height="32.8438" rx="12.5" ry="12.5" style="stroke:#181818;stroke-width:0.5;" width="152" x="68.5" y="199.6875"/><text fill="#000000" font-family="sans-serif" font-size="12" lengthAdjust="spacing" textLength="132" x="78.5" y="221.0313">&#1054;&#1087;&#1077;&#1088;&#1072;&#1090;&#1086;&#1088; &#1074;&#1074;&#1086;&#1076;&#1080;&#1090; &#1076;&#1072;&#1085;&#1085;&#1099;&#1077;</text><rect fill="#F1F1F1" height="32.8438" rx="12.5" ry="12.5" style="stroke:#181818;stroke-width:0.5;" width="170" x="59.5" y="252.5313"/><text fill="#000000" font-family="sans-serif" font-size="12" lengthAdjust="spacing" textLength="150" x="69.5" y="273.875">&#1057;&#1080;&#1089;&#1090;&#1077;&#1084;&#1072; &#1074;&#1072;&#1083;&#1080;&#1076;&#1080;&#1088;&#1091;&#1077;&#1090; &#1076;&#1072;&#1085;&#1085;&#1099;&#1077;</text><polygon fill="#F1F1F1" points="97.75,305.375,191.25,305.375,203.25,317.375,191.25,329.375,97.75,329.375,85.75,317.375,97.75,305.375" style="stroke:#181818;stroke-width:0.5;"/><text fill="#000000" font-family="sans-serif" font-size="11" lengthAdjust="spacing" textLength="93.5" x="97.75" y="321.8867">&#1044;&#1072;&#1085;&#1085;&#1099;&#1077; &#1082;&#1086;&#1088;&#1088;&#1077;&#1082;&#1090;&#1085;&#1099;?</text><text fill="#000000" font-family="sans-serif" font-size="11" lengthAdjust="spacing" textLength="11" x="74.75" y="316">&#1076;&#1072;</text><text fill="#000000" font-family="sans-serif" font-size="11" lengthAdjust="spacing" textLength="16.5" x="203.25" y="316">&#1085;&#1077;&#1090;</text><rect fill="#F1F1F1" height="32.8438" rx="12.5" ry="12.5" style="stroke:#181818;stroke-width:0.5;" width="116" x="17" y="339.375"/><text fill="#000000" font-family="sans-serif" font-size="12" lengthAdjust="spacing" textLength="96" x="27" y="360.7188">&#1042;&#1099;&#1087;&#1086;&#1083;&#1085;&#1080;&#1090;&#1100; INSERT</text><rect fill="#F1F1F1" height="32.8438" rx="12.5" ry="12.5" style="stroke:#181818;stroke-width:0.5;" width="128" x="11" y="392.2188"/><text fill="#000000" font-family="sans-serif" font-size="12" lengthAdjust="spacing" textLength="108" x="21" y="413.5625">&#1055;&#1086;&#1082;&#1072;&#1079;&#1072;&#1090;&#1100; "&#1059;&#1089;&#1087;&#1077;&#1096;&#1085;&#1086;"</text><ellipse cx="75" cy="456.0625" fill="none" rx="11" ry="11" style="stroke:#222222;stroke-width:1;"/><ellipse cx="75" cy="456.0625" fill="#222222" rx="6" ry="6" style="stroke:#222222;stroke-width:1;"/><rect fill="#F1F1F1" height="32.8438" rx="12.5" ry="12.5" style="stroke:#181818;stroke-width:0.5;" width="110" x="159" y="339.375"/><text fill="#000000" font-family="sans-serif" font-size="12" lengthAdjust="spacing" textLength="90" x="169" y="360.7188">&#1055;&#1086;&#1082;&#1072;&#1079;&#1072;&#1090;&#1100; &#1086;&#1096;&#1080;&#1073;&#1082;&#1091;</text><polygon fill="#F1F1F1" points="144.5,155.6875,156.5,167.6875,144.5,179.6875,132.5,167.6875,144.5,155.6875" style="stroke:#181818;stroke-width:0.5;"/><polygon fill="#F1F1F1" points="103.25,487.0625,185.75,487.0625,197.75,499.0625,185.75,511.0625,103.25,511.0625,91.25,499.0625,103.25,487.0625" style="stroke:#181818;stroke-width:0.5;"/><text fill="#000000" font-family="sans-serif" font-size="11" lengthAdjust="spacing" textLength="82.5" x="103.25" y="503.5742">&#1055;&#1086;&#1074;&#1090;&#1086;&#1088;&#1080;&#1090;&#1100; &#1074;&#1074;&#1086;&#1076;?</text><text fill="#000000" font-family="sans-serif" font-size="11" lengthAdjust="spacing" textLength="11" x="197.75" y="497.6875">&#1076;&#1072;</text><ellipse cx="144.5" cy="542.0625" fill="none" rx="11" ry="11" style="stroke:#222222;stroke-width:1;"/><ellipse cx="144.5" cy="542.0625" fill="#222222" rx="6" ry="6" style="stroke:#222222;stroke-width:1;"/><line style="stroke:#181818;stroke-width:1;" x1="144.5" x2="144.5" y1="30" y2="50"/><polygon fill="#181818" points="140.5,40,144.5,50,148.5,40,144.5,44" style="stroke:#181818;stroke-width:1;"/><line style="stroke:#181818;stroke-width:1;" x1="144.5" x2="144.5" y1="82.8438" y2="102.8438"/><polygon fill="#181818" points="140.5,92.8438,144.5,102.8438,148.5,92.8438,144.5,96.8438" style="stroke:#181818;stroke-width:1;"/><line style="stroke:#181818;stroke-width:1;" x1="144.5" x2="144.5" y1="232.5313" y2="252.5313"/><polygon fill="#181818" points="140.5,242.5313,144.5,252.5313,148.5,242.5313,144.5,246.5313" style="stroke:#181818;stroke-width:1;"/><line style="stroke:#181818;stroke-width:1;" x1="75" x2="75" y1="372.2188" y2="392.2188"/><polygon fill="#181818" points="71,382.2188,75,392.2188,79,382.2188,75,386.2188" style="stroke:#181818;stroke-width:1;"/><line style="stroke:#181818;stroke-width:1;" x1="75" x2="75" y1="425.0625" y2="445.0625"/><polygon fill="#181818" points="71,435.0625,75,445.0625,79,435.0625,75,439.0625" style="stroke:#181818;stroke-width:1;"/><line style="stroke:#181818;stroke-width:1;" x1="85.75" x2="75" y1="317.375" y2="317.375"/><line style="stroke:#181818;stroke-width:1;" x1="75" x2="75" y1="317.375" y2="339.375"/><polygon fill="#181818" points="71,329.375,75,339.375,79,329.375,75,333.375" style="stroke:#181818;stroke-width:1;"/><line style="stroke:#181818;stroke-width:1;" x1="203.25" x2="214" y1="317.375" y2="317.375"/><line style="stroke:#181818;stroke-width:1;" x1="214" x2="214" y1="317.375" y2="339.375"/><polygon fill="#181818" points="210,329.375,214,339.375,218,329.375,214,333.375" style="stroke:#181818;stroke-width:1;"/><line style="stroke:#181818;stroke-width:1;" x1="214" x2="214" y1="372.2188" y2="472.0625"/><line style="stroke:#181818;stroke-width:1;" x1="214" x2="144.5" y1="472.0625" y2="472.0625"/><line style="stroke:#181818;stroke-width:1;" x1="144.5" x2="144.5" y1="472.0625" y2="487.0625"/><polygon fill="#181818" points="140.5,477.0625,144.5,487.0625,148.5,477.0625,144.5,481.0625" style="stroke:#181818;stroke-width:1;"/><line style="stroke:#181818;stroke-width:1;" x1="144.5" x2="144.5" y1="285.375" y2="305.375"/><polygon fill="#181818" points="140.5,295.375,144.5,305.375,148.5,295.375,144.5,299.375" style="stroke:#181818;stroke-width:1;"/><line style="stroke:#181818;stroke-width:1;" x1="144.5" x2="144.5" y1="179.6875" y2="199.6875"/><polygon fill="#181818" points="140.5,189.6875,144.5,199.6875,148.5,189.6875,144.5,193.6875" style="stroke:#181818;stroke-width:1;"/><line style="stroke:#181818;stroke-width:1;" x1="197.75" x2="283" y1="499.0625" y2="499.0625"/><polygon fill="#181818" points="279,346.375,283,336.375,287,346.375,283,342.375" style="stroke:#181818;stroke-width:1;"/><line style="stroke:#181818;stroke-width:1;" x1="283" x2="283" y1="167.6875" y2="499.0625"/><line style="stroke:#181818;stroke-width:1;" x1="283" x2="156.5" y1="167.6875" y2="167.6875"/><polygon fill="#181818" points="166.5,163.6875,156.5,167.6875,166.5,171.6875,162.5,167.6875" style="stroke:#181818;stroke-width:1;"/><line style="stroke:#181818;stroke-width:1;" x1="144.5" x2="144.5" y1="135.6875" y2="155.6875"/><polygon fill="#181818" points="140.5,145.6875,144.5,155.6875,148.5,145.6875,144.5,149.6875" style="stroke:#181818;stroke-width:1;"/><line style="stroke:#181818;stroke-width:1;" x1="144.5" x2="144.5" y1="511.0625" y2="531.0625"/><polygon fill="#181818" points="140.5,521.0625,144.5,531.0625,148.5,521.0625,144.5,525.0625" style="stroke:#181818;stroke-width:1;"/><!--SRC=[TL0xJiD04ErzYf4hV0LSK57GK00NYCH6iHI5A5w9rh4f8a65g4682pWM5b4IBrTuUoFUR6oA2EJ2gvdtdToE5ZOwnIk-qVe2jI_XV25e_2FMsEY8Yr9YlC1nKgFXjFHFSKhQEzzBKbhiKGir7BQ4V97Sz4J_e8BO-ogD5cPkHZOI-SkGdyEdYWj_DJfqb6dJ03yoKl4TDW5U-2eO7PEoiPmmzEzC68rEz6onfHI7PudOYPaHHsv2Zbez4wn5TYI6fd9nUNr-TPFs-xUXf6RdDiQ7NuOsAp9SVC3bzcxEXvdcXlAT9ap-4M2g5RkicQfIifdTPkF-Ld8_oQQgeAJcSAi-rN0nbiZoeOBQ_W00]--></g></svg>