<svg xmlns="http://www.w3.org/2000/svg" xmlns:xlink="http://www.w3.org/1999/xlink" contentStyleType="text/css" data-diagram-type="SEQUENCE" height="332px" preserveAspectRatio="none" style="width:453px;height:332px;background:#FFFFFF;" version="1.1" viewBox="0 0 453 332" width="453px" zoomAndPan="magnify"><defs/><g><g><title>........</title><rect fill="#000000" fill-opacity="0.00000" height="172.5703" width="8" x="32" y="79.9844"/><line style="stroke:#181818;stroke-width:0.5;stroke-dasharray:5,5;" x1="36" x2="36" y1="79.9844" y2="252.5547"/></g><g><title>..........</title><rect fill="#000000" fill-opacity="0.00000" height="172.5703" width="8" x="205.5" y="79.9844"/><line style="stroke:#181818;stroke-width:0.5;stroke-dasharray:5,5;" x1="209.5" x2="209.5" y1="79.9844" y2="252.5547"/></g><g><title>SQLite DB</title><rect fill="#000000" fill-opacity="0.00000" height="172.5703" width="8" x="405" y="79.9844"/><line style="stroke:#181818;stroke-width:0.5;stroke-dasharray:5,5;" x1="408.5" x2="408.5" y1="79.9844" y2="252.5547"/></g><g class="participant participant-head" data-participant="Op"><text fill="#000000" font-family="sans-serif" font-size="14" lengthAdjust="spacing" textLength="56" x="5" y="78.2344">&#1054;&#1087;&#1077;&#1088;&#1072;&#1090;&#1086;&#1088;</text><ellipse cx="36" cy="13.5" fill="#E2E2F0" rx="8" ry="8" style="stroke:#181818;stroke-width:0.5;"/><path d="M36,21.5 L36,48.5 M23,29.5 L49,29.5 M36,48.5 L23,63.5 M36,48.5 L49,63.5" fill="none" style="stroke:#181818;stroke-width:0.5;"/></g><g class="participant participant-tail" data-participant="Op"><text fill="#000000" font-family="sans-serif" font-size="14" lengthAdjust="spacing" textLength="56" x="5" y="264.7891">&#1054;&#1087;&#1077;&#1088;&#1072;&#1090;&#1086;&#1088;</text><ellipse cx="36" cy="275.0391" fill="#E2E2F0" rx="8" ry="8" style="stroke:#181818;stroke-width:0.5;"/><path d="M36,283.0391 L36,310.0391 M23,291.0391 L49,291.0391 M36,310.0391 L23,325.0391 M36,310.0391 L49,325.0391" fill="none" style="stroke:#181818;stroke-width:0.5;"/></g><g class="participant participant-head" data-participant="App"><rect fill="#E2E2F0" height="28.9844" rx="2.5" ry="2.5" style="stroke:#181818;stroke-width:0.5;" width="84" x="167.5" y="50"/><text fill="#000000" font-family="sans-serif" font-size="14" lengthAdjust="spacing" textLength="70" x="174.5" y="70.2344">&#1055;&#1088;&#1080;&#1083;&#1086;&#1078;&#1077;&#1085;&#1080;&#1077;</text></g><g class="participant participant-tail" data-participant="App"><rect fill="#E2E2F0" height="28.9844" rx="2.5" ry="2.5" style="stroke:#181818;stroke-width:0.5;" width="84" x="167.5" y="251.5547"/><text fill="#000000" font-family="sans-serif" font-size="14" lengthAdjust="spacing" textLength="70" x="174.5" y="271.7891">&#1055;&#1088;&#1080;&#1083;&#1086;&#1078;&#1077;&#1085;&#1080;&#1077;</text></g><g class="participant participant-head" data-participant="DB"><rect fill="#E2E2F0" height="28.9844" rx="2.5" ry="2.5" style="stroke:#181818;stroke-width:0.5;" width="77" x="370.5" y="50"/><text fill="#000000" font-family="sans-serif" font-size="14" lengthAdjust="spacing" textLength="63" x="377.5" y="70.2344">SQLite DB</text></g><g class="participant participant-tail" data-participant="DB"><rect fill="#E2E2F0" height="28.9844" rx="2.5" ry="2.5" style="stroke:#181818;stroke-width:0.5;" width="77" x="370.5" y="251.5547"/><text fill="#000000" font-family="sans-serif" font-size="14" lengthAdjust="spacing" textLength="63" x="377.5" y="271.7891">SQLite DB</text></g><g class="message" data-participant-1="Op" data-participant-2="App"><polygon fill="#181818" points="197.5,105.8984,207.5,109.8984,197.5,113.8984,201.5,109.8984" style="stroke:#181818;stroke-width:1;"/><line style="stroke:#181818;stroke-width:1;" x1="36" x2="203.5" y1="109.8984" y2="109.8984"/><text fill="#000000" font-family="sans-serif" font-size="13" lengthAdjust="spacing" textLength="149.5" x="43" y="106.2734">&#1042;&#1074;&#1086;&#1076; &#1076;&#1072;&#1085;&#1085;&#1099;&#1093; &#1072;&#1073;&#1080;&#1090;&#1091;&#1088;&#1080;&#1077;&#1085;&#1090;&#1072;</text></g><g class="message" data-participant-1="App" data-participant-2="App"><line style="stroke:#181818;stroke-width:1;" x1="209.5" x2="251.5" y1="137.8125" y2="137.8125"/><line style="stroke:#181818;stroke-width:1;" x1="251.5" x2="251.5" y1="137.8125" y2="150.8125"/><line style="stroke:#181818;stroke-width:1;" x1="210.5" x2="251.5" y1="150.8125" y2="150.8125"/><polygon fill="#181818" points="220.5,146.8125,210.5,150.8125,220.5,154.8125,216.5,150.8125" style="stroke:#181818;stroke-width:1;"/><text fill="#000000" font-family="sans-serif" font-size="13" lengthAdjust="spacing" textLength="58.5" x="216.5" y="134.1875">&#1042;&#1072;&#1083;&#1080;&#1076;&#1072;&#1094;&#1080;&#1103;</text></g><g class="message" data-participant-1="App" data-participant-2="DB"><polygon fill="#181818" points="397,174.7266,407,178.7266,397,182.7266,401,178.7266" style="stroke:#181818;stroke-width:1;"/><line style="stroke:#181818;stroke-width:1;" x1="209.5" x2="403" y1="178.7266" y2="178.7266"/><text fill="#000000" font-family="sans-serif" font-size="13" lengthAdjust="spacing" textLength="175.5" x="216.5" y="175.1016">INSERT INTO Applicant (...)</text></g><g class="message" data-participant-1="DB" data-participant-2="App"><polygon fill="#181818" points="220.5,202.6406,210.5,206.6406,220.5,210.6406,216.5,206.6406" style="stroke:#181818;stroke-width:1;"/><line style="stroke:#181818;stroke-width:1;stroke-dasharray:2,2;" x1="214.5" x2="408" y1="206.6406" y2="206.6406"/><text fill="#000000" font-family="sans-serif" font-size="13" lengthAdjust="spacing" textLength="45.5" x="226.5" y="203.0156">OK (id)</text></g><g class="message" data-participant-1="App" data-participant-2="Op"><polygon fill="#181818" points="47,230.5547,37,234.5547,47,238.5547,43,234.5547" style="stroke:#181818;stroke-width:1;"/><line style="stroke:#181818;stroke-width:1;stroke-dasharray:2,2;" x1="41" x2="208.5" y1="234.5547" y2="234.5547"/><text fill="#000000" font-family="sans-serif" font-size="13" lengthAdjust="spacing" textLength="136.5" x="53" y="230.9297">"&#1040;&#1073;&#1080;&#1090;&#1091;&#1088;&#1080;&#1077;&#1085;&#1090; &#1076;&#1086;&#1073;&#1072;&#1074;&#1083;&#1077;&#1085;"</text></g><!--SRC=[POun2i9044NxFSMGAXRc01Q2org8ugBc0Y5QB8WkcWD8H1iBnGFe5LP99236AypUoDc885hDyEVzFp-Aa_a2F3pX4tExGcDJBEtAWsW9KZCTBH8LAntD4eBE11Hunn9lcEE3zhm2M_g770rwAfc0uDLPSCQaXdhJWGt08ruf8WFCq53Am-xi1cYzO65JkwwUK3mrCOmStqP3tmldirk2zv-pu0tez4VjOKWZb0wVgjXLyOCWg371eVv9aLtmrRZsjf8eIVFmyF_TzIj9DbJtxYJl1G00]--></g></svg>