<svg xmlns="http://www.w3.org/2000/svg" xmlns:xlink="http://www.w3.org/1999/xlink" contentStyleType="text/css" data-diagram-type="CLASS" height="1144px" preserveAspectRatio="none" style="width:1444px;height:1144px;background:#FFFFFF;" version="1.1" viewBox="0 0 1444 1144" width="1444px" zoomAndPan="magnify"><title>&#1044;&#1080;&#1072;&#1075;&#1088;&#1072;&#1084;&#1084;&#1072; &#1082;&#1083;&#1072;&#1089;&#1089;&#1086;&#1074; - &#1057;&#1080;&#1089;&#1090;&#1077;&#1084;&#1072; &#1062;&#1074;&#1077;&#1090;&#1086;&#1095;&#1085;&#1072;&#1103; &#1086;&#1088;&#1072;&#1085;&#1078;&#1077;&#1088;&#1077;&#1103;</title><defs/><g><g class="title" data-source-line="1"><text fill="#000000" font-family="sans-serif" font-size="14" font-weight="bold" lengthAdjust="spacing" textLength="329" x="550.5" y="23.2344">&#1044;&#1080;&#1072;&#1075;&#1088;&#1072;&#1084;&#1084;&#1072; &#1082;&#1083;&#1072;&#1089;&#1089;&#1086;&#1074; - &#1057;&#1080;&#1089;&#1090;&#1077;&#1084;&#1072; &#1062;&#1074;&#1077;&#1090;&#1086;&#1095;&#1085;&#1072;&#1103; &#1086;&#1088;&#1072;&#1085;&#1078;&#1077;&#1088;&#1077;&#1103;</text></g><!--class Flower--><g class="entity" data-entity="Flower" data-source-line="8" data-uid="ent0002" id="entity_Flower"><rect fill="#F1F1F1" height="182.8594" rx="2.5" ry="2.5" style="stroke:#181818;stroke-width:0.5;" width="229" x="270.5" y="393.9844"/><ellipse cx="359.75" cy="409.9844" fill="#ADD1B2" rx="11" ry="11" style="stroke:#181818;stroke-width:1;"/><path d="M357.375,414.2344 L357.375,415.9844 L362.3125,415.9844 L362.3125,414.2344 L357.375,414.2344 Z M358.0625,414.9219 Q358.0625,414.9219 358.0625,405.7344 L356.3125,405.7344 Q356.3125,405.7344 356.3125,414.9219 L358.0625,414.9219 Z M361.625,414.9219 L363.375,414.9219 Q363.375,414.9219 363.375,412.1094 L361.625,412.1094 Q361.625,412.1094 361.625,414.9219 Z M361.625,405.7344 Q361.625,405.7344 361.625,408.5469 L363.375,408.5469 Q363.375,408.5469 363.375,405.7344 L361.625,405.7344 Z M357.375,406.4219 L362.3125,406.4219 L362.3125,404.6719 L357.375,404.6719 L357.375,406.4219 Z " fill="#000000"/><text fill="#000000" font-family="sans-serif" font-size="14" font-weight="bold" lengthAdjust="spacing" textLength="42" x="380.25" y="415.7266">Flower</text><line style="stroke:#181818;stroke-width:0.5;" x1="271.5" x2="498.5" y1="425.9844" y2="425.9844"/><text fill="#000000" font-family="sans-serif" font-size="14" lengthAdjust="spacing" textLength="56" x="276.5" y="443.2188">-id: int</text><text fill="#000000" font-family="sans-serif" font-size="14" lengthAdjust="spacing" textLength="91" x="276.5" y="458.2031">-name: String</text><text fill="#000000" font-family="sans-serif" font-size="14" lengthAdjust="spacing" textLength="91" x="276.5" y="473.1875">-sort: String</text><text fill="#000000" font-family="sans-serif" font-size="14" lengthAdjust="spacing" textLength="105" x="276.5" y="488.1719">-price: decimal</text><line style="stroke:#181818;stroke-width:1;" x1="271.5" x2="498.5" y1="493.9219" y2="493.9219"/><text fill="#000000" font-family="sans-serif" font-size="14" lengthAdjust="spacing" textLength="91" x="276.5" y="511.1563">+getId(): int</text><text fill="#000000" font-family="sans-serif" font-size="14" lengthAdjust="spacing" textLength="126" x="276.5" y="526.1406">+getName(): String</text><text fill="#000000" font-family="sans-serif" font-size="14" lengthAdjust="spacing" textLength="126" x="276.5" y="541.125">+getSort(): String</text><text fill="#000000" font-family="sans-serif" font-size="14" lengthAdjust="spacing" textLength="140" x="276.5" y="556.1094">+getPrice(): decimal</text><text fill="#000000" font-family="sans-serif" font-size="14" lengthAdjust="spacing" textLength="217" x="276.5" y="571.0938">+setPrice(price: decimal): void</text></g><!--class Composition--><g class="entity" data-entity="Composition" data-source-line="21" data-uid="ent0003" id="entity_Composition"><rect fill="#F1F1F1" height="122.9219" rx="2.5" ry="2.5" style="stroke:#181818;stroke-width:0.5;" width="187" x="43.5" y="423.9844"/><ellipse cx="94.25" cy="439.9844" fill="#ADD1B2" rx="11" ry="11" style="stroke:#181818;stroke-width:1;"/><path d="M91.875,444.2344 L91.875,445.9844 L96.8125,445.9844 L96.8125,444.2344 L91.875,444.2344 Z M92.5625,444.9219 Q92.5625,444.9219 92.5625,435.7344 L90.8125,435.7344 Q90.8125,435.7344 90.8125,444.9219 L92.5625,444.9219 Z M96.125,444.9219 L97.875,444.9219 Q97.875,444.9219 97.875,442.1094 L96.125,442.1094 Q96.125,442.1094 96.125,444.9219 Z M96.125,435.7344 Q96.125,435.7344 96.125,438.5469 L97.875,438.5469 Q97.875,438.5469 97.875,435.7344 L96.125,435.7344 Z M91.875,436.4219 L96.8125,436.4219 L96.8125,434.6719 L91.875,434.6719 L91.875,436.4219 Z " fill="#000000"/><text fill="#000000" font-family="sans-serif" font-size="14" font-weight="bold" lengthAdjust="spacing" textLength="77" x="114.75" y="445.7266">Composition</text><line style="stroke:#181818;stroke-width:0.5;" x1="44.5" x2="229.5" y1="455.9844" y2="455.9844"/><text fill="#000000" font-family="sans-serif" font-size="14" lengthAdjust="spacing" textLength="56" x="49.5" y="473.2188">-id: int</text><text fill="#000000" font-family="sans-serif" font-size="14" lengthAdjust="spacing" textLength="91" x="49.5" y="488.2031">-name: String</text><line style="stroke:#181818;stroke-width:1;" x1="44.5" x2="229.5" y1="493.9531" y2="493.9531"/><text fill="#000000" font-family="sans-serif" font-size="14" lengthAdjust="spacing" textLength="91" x="49.5" y="511.1875">+getId(): int</text><text fill="#000000" font-family="sans-serif" font-size="14" lengthAdjust="spacing" textLength="126" x="49.5" y="526.1719">+getName(): String</text><text fill="#000000" font-family="sans-serif" font-size="14" lengthAdjust="spacing" textLength="175" x="49.5" y="541.1563">+calculateCost(): decimal</text></g><!--class CompositionItem--><g class="entity" data-entity="CompositionItem" data-source-line="30" data-uid="ent0004" id="entity_CompositionItem"><rect fill="#F1F1F1" height="107.9375" rx="2.5" ry="2.5" style="stroke:#181818;stroke-width:0.5;" width="173" x="295.5" y="726.9844"/><ellipse cx="326.7" cy="742.9844" fill="#ADD1B2" rx="11" ry="11" style="stroke:#181818;stroke-width:1;"/><path d="M324.325,747.2344 L324.325,748.9844 L329.2625,748.9844 L329.2625,747.2344 L324.325,747.2344 Z M325.0125,747.9219 Q325.0125,747.9219 325.0125,738.7344 L323.2625,738.7344 Q323.2625,738.7344 323.2625,747.9219 L325.0125,747.9219 Z M328.575,747.9219 L330.325,747.9219 Q330.325,747.9219 330.325,745.1094 L328.575,745.1094 Q328.575,745.1094 328.575,747.9219 Z M328.575,738.7344 Q328.575,738.7344 328.575,741.5469 L330.325,741.5469 Q330.325,741.5469 330.325,738.7344 L328.575,738.7344 Z M324.325,739.4219 L329.2625,739.4219 L329.2625,737.6719 L324.325,737.6719 L324.325,739.4219 Z " fill="#000000"/><text fill="#000000" font-family="sans-serif" font-size="14" font-weight="bold" lengthAdjust="spacing" textLength="105" x="344.3" y="748.7266">CompositionItem</text><line style="stroke:#181818;stroke-width:0.5;" x1="296.5" x2="467.5" y1="758.9844" y2="758.9844"/><text fill="#000000" font-family="sans-serif" font-size="14" lengthAdjust="spacing" textLength="56" x="301.5" y="776.2188">-id: int</text><text fill="#000000" font-family="sans-serif" font-size="14" lengthAdjust="spacing" textLength="98" x="301.5" y="791.2031">-quantity: int</text><line style="stroke:#181818;stroke-width:1;" x1="296.5" x2="467.5" y1="796.9531" y2="796.9531"/><text fill="#000000" font-family="sans-serif" font-size="14" lengthAdjust="spacing" textLength="133" x="301.5" y="814.1875">+getQuantity(): int</text><text fill="#000000" font-family="sans-serif" font-size="14" lengthAdjust="spacing" textLength="161" x="301.5" y="829.1719">+getItemCost(): decimal</text></g><!--class Order--><g class="entity" data-entity="Order" data-source-line="38" data-uid="ent0005" id="entity_Order"><rect fill="#F1F1F1" height="257.7813" rx="2.5" ry="2.5" style="stroke:#181818;stroke-width:0.5;" width="250" x="7" y="651.9844"/><ellipse cx="110.25" cy="667.9844" fill="#ADD1B2" rx="11" ry="11" style="stroke:#181818;stroke-width:1;"/><path d="M107.875,672.2344 L107.875,673.9844 L112.8125,673.9844 L112.8125,672.2344 L107.875,672.2344 Z M108.5625,672.9219 Q108.5625,672.9219 108.5625,663.7344 L106.8125,663.7344 Q106.8125,663.7344 106.8125,672.9219 L108.5625,672.9219 Z M112.125,672.9219 L113.875,672.9219 Q113.875,672.9219 113.875,670.1094 L112.125,670.1094 Q112.125,670.1094 112.125,672.9219 Z M112.125,663.7344 Q112.125,663.7344 112.125,666.5469 L113.875,666.5469 Q113.875,666.5469 113.875,663.7344 L112.125,663.7344 Z M107.875,664.4219 L112.8125,664.4219 L112.8125,662.6719 L107.875,662.6719 L107.875,664.4219 Z " fill="#000000"/><text fill="#000000" font-family="sans-serif" font-size="14" font-weight="bold" lengthAdjust="spacing" textLength="35" x="130.75" y="673.7266">Order</text><line style="stroke:#181818;stroke-width:0.5;" x1="8" x2="256" y1="683.9844" y2="683.9844"/><text fill="#000000" font-family="sans-serif" font-size="14" lengthAdjust="spacing" textLength="56" x="13" y="701.2188">-id: int</text><text fill="#000000" font-family="sans-serif" font-size="14" lengthAdjust="spacing" textLength="112" x="13" y="716.2031">-orderDate: Date</text><text fill="#000000" font-family="sans-serif" font-size="14" lengthAdjust="spacing" textLength="133" x="13" y="731.1875">-deliveryDate: Date</text><text fill="#000000" font-family="sans-serif" font-size="14" lengthAdjust="spacing" textLength="119" x="13" y="746.1719">-customer: String</text><text fill="#000000" font-family="sans-serif" font-size="14" lengthAdjust="spacing" textLength="98" x="13" y="761.1563">-quantity: int</text><text fill="#000000" font-family="sans-serif" font-size="14" lengthAdjust="spacing" textLength="119" x="13" y="776.1406">-urgencyType: int</text><text fill="#000000" font-family="sans-serif" font-size="14" lengthAdjust="spacing" textLength="140" x="13" y="791.125">-totalPrice: decimal</text><line style="stroke:#181818;stroke-width:1;" x1="8" x2="256" y1="796.875" y2="796.875"/><text fill="#000000" font-family="sans-serif" font-size="14" lengthAdjust="spacing" textLength="91" x="13" y="814.1094">+getId(): int</text><text fill="#000000" font-family="sans-serif" font-size="14" lengthAdjust="spacing" textLength="147" x="13" y="829.0938">+getOrderDate(): Date</text><text fill="#000000" font-family="sans-serif" font-size="14" lengthAdjust="spacing" textLength="168" x="13" y="844.0781">+getDeliveryDate(): Date</text><text fill="#000000" font-family="sans-serif" font-size="14" lengthAdjust="spacing" textLength="154" x="13" y="859.0625">+getCustomer(): String</text><text fill="#000000" font-family="sans-serif" font-size="14" lengthAdjust="spacing" textLength="154" x="13" y="874.0469">+getUrgencyType(): int</text><text fill="#000000" font-family="sans-serif" font-size="14" lengthAdjust="spacing" textLength="238" x="13" y="889.0313">+calculateUrgencyMarkup(): decimal</text><text fill="#000000" font-family="sans-serif" font-size="14" lengthAdjust="spacing" textLength="182" x="13" y="904.0156">+calculateTotal(): decimal</text></g><!--class OrderCost--><g class="entity" data-entity="OrderCost" data-source-line="56" data-uid="ent0006" id="entity_OrderCost"><rect fill="#F1F1F1" height="152.8906" rx="2.5" ry="2.5" style="stroke:#181818;stroke-width:0.5;" width="208" x="28" y="984.9844"/><ellipse cx="96.25" cy="1000.9844" fill="#ADD1B2" rx="11" ry="11" style="stroke:#181818;stroke-width:1;"/><path d="M93.875,1005.2344 L93.875,1006.9844 L98.8125,1006.9844 L98.8125,1005.2344 L93.875,1005.2344 Z M94.5625,1005.9219 Q94.5625,1005.9219 94.5625,996.7344 L92.8125,996.7344 Q92.8125,996.7344 92.8125,1005.9219 L94.5625,1005.9219 Z M98.125,1005.9219 L99.875,1005.9219 Q99.875,1005.9219 99.875,1003.1094 L98.125,1003.1094 Q98.125,1003.1094 98.125,1005.9219 Z M98.125,996.7344 Q98.125,996.7344 98.125,999.5469 L99.875,999.5469 Q99.875,999.5469 99.875,996.7344 L98.125,996.7344 Z M93.875,997.4219 L98.8125,997.4219 L98.8125,995.6719 L93.875,995.6719 L93.875,997.4219 Z " fill="#000000"/><text fill="#000000" font-family="sans-serif" font-size="14" font-weight="bold" lengthAdjust="spacing" textLength="63" x="116.75" y="1006.7266">OrderCost</text><line style="stroke:#181818;stroke-width:0.5;" x1="29" x2="235" y1="1016.9844" y2="1016.9844"/><text fill="#000000" font-family="sans-serif" font-size="14" lengthAdjust="spacing" textLength="56" x="34" y="1034.2188">-id: int</text><text fill="#000000" font-family="sans-serif" font-size="14" lengthAdjust="spacing" textLength="133" x="34" y="1049.2031">-basePrice: decimal</text><text fill="#000000" font-family="sans-serif" font-size="14" lengthAdjust="spacing" textLength="161" x="34" y="1064.1875">-urgencyMarkup: decimal</text><text fill="#000000" font-family="sans-serif" font-size="14" lengthAdjust="spacing" textLength="140" x="34" y="1079.1719">-finalPrice: decimal</text><line style="stroke:#181818;stroke-width:1;" x1="29" x2="235" y1="1084.9219" y2="1084.9219"/><text fill="#000000" font-family="sans-serif" font-size="14" lengthAdjust="spacing" textLength="168" x="34" y="1102.1563">+getBasePrice(): decimal</text><text fill="#000000" font-family="sans-serif" font-size="14" lengthAdjust="spacing" textLength="196" x="34" y="1117.1406">+getUrgencyMarkup(): decimal</text><text fill="#000000" font-family="sans-serif" font-size="14" lengthAdjust="spacing" textLength="175" x="34" y="1132.125">+getFinalPrice(): decimal</text></g><!--class DatabaseManager--><g class="entity" data-entity="DatabaseManager" data-source-line="69" data-uid="ent0007" id="entity_DatabaseManager"><rect fill="#F1F1F1" height="107.9375" rx="2.5" ry="2.5" style="stroke:#181818;stroke-width:0.5;" width="271" x="917.5" y="431.4844"/><ellipse cx="996.25" cy="447.4844" fill="#ADD1B2" rx="11" ry="11" style="stroke:#181818;stroke-width:1;"/><path d="M993.875,451.7344 L993.875,453.4844 L998.8125,453.4844 L998.8125,451.7344 L993.875,451.7344 Z M994.5625,452.4219 Q994.5625,452.4219 994.5625,443.2344 L992.8125,443.2344 Q992.8125,443.2344 992.8125,452.4219 L994.5625,452.4219 Z M998.125,452.4219 L999.875,452.4219 Q999.875,452.4219 999.875,449.6094 L998.125,449.6094 Q998.125,449.6094 998.125,452.4219 Z M998.125,443.2344 Q998.125,443.2344 998.125,446.0469 L999.875,446.0469 Q999.875,446.0469 999.875,443.2344 L998.125,443.2344 Z M993.875,443.9219 L998.8125,443.9219 L998.8125,442.1719 L993.875,442.1719 L993.875,443.9219 Z " fill="#000000"/><text fill="#000000" font-family="sans-serif" font-size="14" font-weight="bold" lengthAdjust="spacing" textLength="105" x="1016.75" y="453.2266">DatabaseManager</text><line style="stroke:#181818;stroke-width:0.5;" x1="918.5" x2="1187.5" y1="463.4844" y2="463.4844"/><line style="stroke:#181818;stroke-width:1;" x1="918.5" x2="1187.5" y1="471.4844" y2="471.4844"/><text fill="#000000" font-family="sans-serif" font-size="14" lengthAdjust="spacing" textLength="154" x="923.5" y="488.7188">+connect(): Connection</text><text fill="#000000" font-family="sans-serif" font-size="14" lengthAdjust="spacing" textLength="133" x="923.5" y="503.7031">+disconnect(): void</text><text fill="#000000" font-family="sans-serif" font-size="14" lengthAdjust="spacing" textLength="259" x="923.5" y="518.6875">+executeQuery(sql: String): ResultSet</text><text fill="#000000" font-family="sans-serif" font-size="14" lengthAdjust="spacing" textLength="224" x="923.5" y="533.6719">+executeUpdate(sql: String): int</text></g><!--class OrderRepository--><g class="entity" data-entity="OrderRepository" data-source-line="77" data-uid="ent0008" id="entity_OrderRepository"><rect fill="#F1F1F1" height="122.9219" rx="2.5" ry="2.5" style="stroke:#181818;stroke-width:0.5;" width="264" x="1173" y="195.9844"/><ellipse cx="1248.25" cy="211.9844" fill="#ADD1B2" rx="11" ry="11" style="stroke:#181818;stroke-width:1;"/><path d="M1245.875,216.2344 L1245.875,217.9844 L1250.8125,217.9844 L1250.8125,216.2344 L1245.875,216.2344 Z M1246.5625,216.9219 Q1246.5625,216.9219 1246.5625,207.7344 L1244.8125,207.7344 Q1244.8125,207.7344 1244.8125,216.9219 L1246.5625,216.9219 Z M1250.125,216.9219 L1251.875,216.9219 Q1251.875,216.9219 1251.875,214.1094 L1250.125,214.1094 Q1250.125,214.1094 1250.125,216.9219 Z M1250.125,207.7344 Q1250.125,207.7344 1250.125,210.5469 L1251.875,210.5469 Q1251.875,210.5469 1251.875,207.7344 L1250.125,207.7344 Z M1245.875,208.4219 L1250.8125,208.4219 L1250.8125,206.6719 L1245.875,206.6719 L1245.875,208.4219 Z " fill="#000000"/><text fill="#000000" font-family="sans-serif" font-size="14" font-weight="bold" lengthAdjust="spacing" textLength="105" x="1268.75" y="217.7266">OrderRepository</text><line style="stroke:#181818;stroke-width:0.5;" x1="1174" x2="1436" y1="227.9844" y2="227.9844"/><line style="stroke:#181818;stroke-width:1;" x1="1174" x2="1436" y1="235.9844" y2="235.9844"/><text fill="#000000" font-family="sans-serif" font-size="14" lengthAdjust="spacing" textLength="182" x="1179" y="253.2188">+insert(order: Order): int</text><text fill="#000000" font-family="sans-serif" font-size="14" lengthAdjust="spacing" textLength="210" x="1179" y="268.2031">+update(order: Order): boolean</text><text fill="#000000" font-family="sans-serif" font-size="14" lengthAdjust="spacing" textLength="175" x="1179" y="283.1875">+delete(id: int): boolean</text><text fill="#000000" font-family="sans-serif" font-size="14" lengthAdjust="spacing" textLength="175" x="1179" y="298.1719">+findById(id: int): Order</text><text fill="#000000" font-family="sans-serif" font-size="14" lengthAdjust="spacing" textLength="252" x="1179" y="313.1563">+findByDate(date: Date): List~Order~</text></g><!--class ReportService--><g class="entity" data-entity="ReportService" data-source-line="86" data-uid="ent0009" id="entity_ReportService"><rect fill="#F1F1F1" height="122.9219" rx="2.5" ry="2.5" style="stroke:#181818;stroke-width:0.5;" width="418" x="720" y="195.9844"/><ellipse cx="879.25" cy="211.9844" fill="#ADD1B2" rx="11" ry="11" style="stroke:#181818;stroke-width:1;"/><path d="M876.875,216.2344 L876.875,217.9844 L881.8125,217.9844 L881.8125,216.2344 L876.875,216.2344 Z M877.5625,216.9219 Q877.5625,216.9219 877.5625,207.7344 L875.8125,207.7344 Q875.8125,207.7344 875.8125,216.9219 L877.5625,216.9219 Z M881.125,216.9219 L882.875,216.9219 Q882.875,216.9219 882.875,214.1094 L881.125,214.1094 Q881.125,214.1094 881.125,216.9219 Z M881.125,207.7344 Q881.125,207.7344 881.125,210.5469 L882.875,210.5469 Q882.875,210.5469 882.875,207.7344 L881.125,207.7344 Z M876.875,208.4219 L881.8125,208.4219 L881.8125,206.6719 L876.875,206.6719 L876.875,208.4219 Z " fill="#000000"/><text fill="#000000" font-family="sans-serif" font-size="14" font-weight="bold" lengthAdjust="spacing" textLength="91" x="899.75" y="217.7266">ReportService</text><line style="stroke:#181818;stroke-width:0.5;" x1="721" x2="1137" y1="227.9844" y2="227.9844"/><line style="stroke:#181818;stroke-width:1;" x1="721" x2="1137" y1="235.9844" y2="235.9844"/><text fill="#000000" font-family="sans-serif" font-size="14" lengthAdjust="spacing" textLength="364" x="726" y="253.2188">+getRevenueByPeriod(start: Date, end: Date): decimal</text><text fill="#000000" font-family="sans-serif" font-size="14" lengthAdjust="spacing" textLength="287" x="726" y="268.2031">+getMostPopularComposition(): Composition</text><text fill="#000000" font-family="sans-serif" font-size="14" lengthAdjust="spacing" textLength="266" x="726" y="283.1875">+getOrdersByUrgency(): Map~String,int~</text><text fill="#000000" font-family="sans-serif" font-size="14" lengthAdjust="spacing" textLength="406" x="726" y="298.1719">+getFlowerUsageByPeriod(start: Date, end: Date): ResultSet</text><text fill="#000000" font-family="sans-serif" font-size="14" lengthAdjust="spacing" textLength="273" x="726" y="313.1563">+getSalesByCompositionType(): ResultSet</text></g><!--class PriceController--><g class="entity" data-entity="PriceController" data-source-line="95" data-uid="ent0010" id="entity_PriceController"><rect fill="#F1F1F1" height="77.9688" rx="2.5" ry="2.5" style="stroke:#181818;stroke-width:0.5;" width="600" x="85" y="218.4844"/><ellipse cx="328.25" cy="234.4844" fill="#ADD1B2" rx="11" ry="11" style="stroke:#181818;stroke-width:1;"/><path d="M325.875,238.7344 L325.875,240.4844 L330.8125,240.4844 L330.8125,238.7344 L325.875,238.7344 Z M326.5625,239.4219 Q326.5625,239.4219 326.5625,230.2344 L324.8125,230.2344 Q324.8125,230.2344 324.8125,239.4219 L326.5625,239.4219 Z M330.125,239.4219 L331.875,239.4219 Q331.875,239.4219 331.875,236.6094 L330.125,236.6094 Q330.125,236.6094 330.125,239.4219 Z M330.125,230.2344 Q330.125,230.2344 330.125,233.0469 L331.875,233.0469 Q331.875,233.0469 331.875,230.2344 L330.125,230.2344 Z M325.875,230.9219 L330.8125,230.9219 L330.8125,229.1719 L325.875,229.1719 L325.875,230.9219 Z " fill="#000000"/><text fill="#000000" font-family="sans-serif" font-size="14" font-weight="bold" lengthAdjust="spacing" textLength="105" x="348.75" y="240.2266">PriceController</text><line style="stroke:#181818;stroke-width:0.5;" x1="86" x2="684" y1="250.4844" y2="250.4844"/><line style="stroke:#181818;stroke-width:1;" x1="86" x2="684" y1="258.4844" y2="258.4844"/><text fill="#000000" font-family="sans-serif" font-size="14" lengthAdjust="spacing" textLength="462" x="91" y="275.7188">+validatePriceIncrease(flower: Flower, newPrice: decimal): boolean</text><text fill="#000000" font-family="sans-serif" font-size="14" lengthAdjust="spacing" textLength="588" x="91" y="290.7031">+checkCompositionCostIncrease(composition: Composition, threshold: decimal): boolean</text></g><!--class OrderService--><g class="entity" data-entity="OrderService" data-source-line="101" data-uid="ent0011" id="entity_OrderService"><rect fill="#F1F1F1" height="77.9688" rx="2.5" ry="2.5" style="stroke:#181818;stroke-width:0.5;" width="327" x="681.5" y="42.9844"/><ellipse cx="798.75" cy="58.9844" fill="#ADD1B2" rx="11" ry="11" style="stroke:#181818;stroke-width:1;"/><path d="M796.375,63.2344 L796.375,64.9844 L801.3125,64.9844 L801.3125,63.2344 L796.375,63.2344 Z M797.0625,63.9219 Q797.0625,63.9219 797.0625,54.7344 L795.3125,54.7344 Q795.3125,54.7344 795.3125,63.9219 L797.0625,63.9219 Z M800.625,63.9219 L802.375,63.9219 Q802.375,63.9219 802.375,61.1094 L800.625,61.1094 Q800.625,61.1094 800.625,63.9219 Z M800.625,54.7344 Q800.625,54.7344 800.625,57.5469 L802.375,57.5469 Q802.375,57.5469 802.375,54.7344 L800.625,54.7344 Z M796.375,55.4219 L801.3125,55.4219 L801.3125,53.6719 L796.375,53.6719 L796.375,55.4219 Z " fill="#000000"/><text fill="#000000" font-family="sans-serif" font-size="14" font-weight="bold" lengthAdjust="spacing" textLength="84" x="819.25" y="64.7266">OrderService</text><line style="stroke:#181818;stroke-width:0.5;" x1="682.5" x2="1007.5" y1="74.9844" y2="74.9844"/><line style="stroke:#181818;stroke-width:1;" x1="682.5" x2="1007.5" y1="82.9844" y2="82.9844"/><text fill="#000000" font-family="sans-serif" font-size="14" lengthAdjust="spacing" textLength="315" x="687.5" y="100.2188">+createOrderWithCost(order: Order): OrderCost</text><text fill="#000000" font-family="sans-serif" font-size="14" lengthAdjust="spacing" textLength="287" x="687.5" y="115.2031">+getOrdersByDate(date: Date): List~Order~</text></g><!--link Flower to CompositionItem--><g class="link" data-entity-1="Flower" data-entity-2="CompositionItem" data-source-line="109" data-uid="lnk12" id="link_Flower_CompositionItem"><path codeLine="109" d="M384.07,577.3444 C383.57,626.3344 382.97,685.0944 382.54,726.6944" fill="none" id="Flower-CompositionItem" style="stroke:#181818;stroke-width:1;"/><polygon fill="#000000" points="388.9488,619.9411,391.9802,610.9266,386.1027,610.8664,388.9488,619.9411" style="stroke:#000000;stroke-width:1;"/><text fill="#000000" font-family="sans-serif" font-size="13" lengthAdjust="spacing" textLength="91" x="398" y="620.2734">&#1080;&#1089;&#1087;&#1086;&#1083;&#1100;&#1079;&#1091;&#1077;&#1090;&#1089;&#1103; &#1074;</text><text fill="#000000" font-family="sans-serif" font-size="13" lengthAdjust="spacing" textLength="6.5" x="377.7883" y="597.2045">1</text><text fill="#000000" font-family="sans-serif" font-size="13" lengthAdjust="spacing" textLength="26" x="354.7878" y="717.5035">0..*</text></g><!--link Composition to CompositionItem--><g class="link" data-entity-1="Composition" data-entity-2="CompositionItem" data-source-line="110" data-uid="lnk13" id="link_Composition_CompositionItem"><path codeLine="110" d="M188.51,547.0544 C204.71,566.1844 222.65,587.4344 239,606.9844 C272.5,647.0344 310.11,692.5544 338.35,726.8544" fill="none" id="Composition-CompositionItem" style="stroke:#181818;stroke-width:1;"/><polygon fill="#000000" points="259.201,618.7824,255.668,609.9524,251.1526,613.7154,259.201,618.7824" style="stroke:#000000;stroke-width:1;"/><text fill="#000000" font-family="sans-serif" font-size="13" lengthAdjust="spacing" textLength="52" x="265" y="620.2734">&#1089;&#1086;&#1076;&#1077;&#1088;&#1078;&#1080;&#1090;</text><text fill="#000000" font-family="sans-serif" font-size="13" lengthAdjust="spacing" textLength="6.5" x="188.1479" y="567.2714">1</text><text fill="#000000" font-family="sans-serif" font-size="13" lengthAdjust="spacing" textLength="26" x="304.0295" y="717.3101">1..*</text></g><!--link Composition to Order--><g class="link" data-entity-1="Composition" data-entity-2="Order" data-source-line="111" data-uid="lnk14" id="link_Composition_Order"><path codeLine="111" d="M132.19,547.1244 C130.88,566.2644 129.65,587.4944 129,606.9844 C128.52,621.5444 128.32,636.7944 128.33,651.9544" fill="none" id="Composition-Order" style="stroke:#181818;stroke-width:1;"/><polygon fill="#000000" points="133.816,619.938,137.0858,611.0072,131.2119,610.7909,133.816,619.938" style="stroke:#000000;stroke-width:1;"/><text fill="#000000" font-family="sans-serif" font-size="13" lengthAdjust="spacing" textLength="91" x="143" y="620.2734">&#1079;&#1072;&#1082;&#1072;&#1079;&#1099;&#1074;&#1072;&#1077;&#1090;&#1089;&#1103; &#1074;</text><text fill="#000000" font-family="sans-serif" font-size="13" lengthAdjust="spacing" textLength="6.5" x="125.3159" y="567.3495">1</text><text fill="#000000" font-family="sans-serif" font-size="13" lengthAdjust="spacing" textLength="26" x="101.21" y="642.1756">0..*</text></g><!--link Order to OrderCost--><g class="link" data-entity-1="Order" data-entity-2="OrderCost" data-source-line="112" data-uid="lnk15" id="link_Order_OrderCost"><path codeLine="112" d="M132,910.2344 C132,935.7844 132,961.8344 132,984.9144" fill="none" id="Order-OrderCost" style="stroke:#181818;stroke-width:1;"/><polygon fill="#000000" points="137,952.9414,139.9389,943.8963,134.0611,943.8963,137,952.9414" style="stroke:#000000;stroke-width:1;"/><text fill="#000000" font-family="sans-serif" font-size="13" lengthAdjust="spacing" textLength="78" x="146" y="953.2734">&#1080;&#1084;&#1077;&#1077;&#1090; &#1088;&#1072;&#1089;&#1095;&#1077;&#1090;</text><text fill="#000000" font-family="sans-serif" font-size="13" lengthAdjust="spacing" textLength="6.5" x="125.8496" y="929.9782">1</text><text fill="#000000" font-family="sans-serif" font-size="13" lengthAdjust="spacing" textLength="6.5" x="125.6992" y="975.1736">1</text></g><!--link OrderService to OrderRepository--><g class="link" data-entity-1="OrderService" data-entity-2="OrderRepository" data-source-line="114" data-uid="lnk16" id="link_OrderService_OrderRepository"><path codeLine="114" d="M952.95,121.0944 C1012.95,142.5544 1088.84,170.1644 1156,195.9844 C1161.47,198.0844 1161.4615,198.0706 1167.0915,200.2706" fill="none" id="OrderService-to-OrderRepository" style="stroke:#181818;stroke-width:1;stroke-dasharray:7,7;"/><polygon fill="#181818" points="1172.68,202.4544,1165.7531,195.4531,1168.0229,200.6346,1162.8414,202.9044,1172.68,202.4544" style="stroke:#181818;stroke-width:1;"/><polygon fill="#000000" points="1079.6897,160.6754,1072.2251,154.7821,1070.1867,160.2951,1079.6897,160.6754" style="stroke:#000000;stroke-width:1;"/><text fill="#000000" font-family="sans-serif" font-size="13" lengthAdjust="spacing" textLength="65" x="1084" y="164.2734">&#1080;&#1089;&#1087;&#1086;&#1083;&#1100;&#1079;&#1091;&#1077;&#1090;</text></g><!--link OrderService to PriceController--><g class="link" data-entity-1="OrderService" data-entity-2="PriceController" data-source-line="115" data-uid="lnk17" id="link_OrderService_PriceController"><path codeLine="115" d="M744.05,121.0644 C667.49,149.9344 568.324,187.337 491.724,216.227" fill="none" id="OrderService-to-PriceController" style="stroke:#181818;stroke-width:1;stroke-dasharray:7,7;"/><polygon fill="#181818" points="486.11,218.3444,495.9425,218.911,490.7883,216.5799,493.1194,211.4257,486.11,218.3444" style="stroke:#181818;stroke-width:1;"/><polygon fill="#000000" points="657.3217,160.7058,666.8219,160.2638,664.7478,154.7641,657.3217,160.7058" style="stroke:#000000;stroke-width:1;"/><text fill="#000000" font-family="sans-serif" font-size="13" lengthAdjust="spacing" textLength="65" x="671" y="164.2734">&#1080;&#1089;&#1087;&#1086;&#1083;&#1100;&#1079;&#1091;&#1077;&#1090;</text></g><!--link OrderRepository to DatabaseManager--><g class="link" data-entity-1="OrderRepository" data-entity-2="DatabaseManager" data-source-line="116" data-uid="lnk18" id="link_OrderRepository_DatabaseManager"><path codeLine="116" d="M1237.47,319.0444 C1198.4,354.0844 1154.1571,393.7687 1116.5971,427.4487" fill="none" id="OrderRepository-to-DatabaseManager" style="stroke:#181818;stroke-width:1;stroke-dasharray:7,7;"/><polygon fill="#181818" points="1112.13,431.4544,1121.5011,428.424,1115.8526,428.1163,1116.1602,422.4679,1112.13,431.4544" style="stroke:#181818;stroke-width:1;"/><polygon fill="#000000" points="1202.2777,360.2797,1210.9736,356.4286,1207.0492,352.0527,1202.2777,360.2797" style="stroke:#000000;stroke-width:1;"/><text fill="#000000" font-family="sans-serif" font-size="13" lengthAdjust="spacing" textLength="65" x="1215" y="362.2734">&#1080;&#1089;&#1087;&#1086;&#1083;&#1100;&#1079;&#1091;&#1077;&#1090;</text></g><!--link ReportService to DatabaseManager--><g class="link" data-entity-1="ReportService" data-entity-2="DatabaseManager" data-source-line="117" data-uid="lnk19" id="link_ReportService_DatabaseManager"><path codeLine="117" d="M962.23,319.0444 C981.46,354.0844 1002.5338,392.5142 1021.0138,426.1942" fill="none" id="ReportService-to-DatabaseManager" style="stroke:#181818;stroke-width:1;stroke-dasharray:7,7;"/><polygon fill="#181818" points="1023.9,431.4544,1023.0774,421.6399,1021.4948,427.0709,1016.0639,425.4882,1023.9,431.4544" style="stroke:#181818;stroke-width:1;"/><polygon fill="#000000" points="990.4049,361.3251,988.631,351.9814,983.4777,354.8085,990.4049,361.3251" style="stroke:#000000;stroke-width:1;"/><text fill="#000000" font-family="sans-serif" font-size="13" lengthAdjust="spacing" textLength="65" x="997" y="362.2734">&#1080;&#1089;&#1087;&#1086;&#1083;&#1100;&#1079;&#1072;&#1077;&#1090;</text></g><!--link PriceController to Flower--><g class="link" data-entity-1="PriceController" data-entity-2="Flower" data-source-line="118" data-uid="lnk20" id="link_PriceController_Flower"><path codeLine="118" d="M385,296.5644 C385,323.1144 385,353.6944 385,387.5244" fill="none" id="PriceController-to-Flower" style="stroke:#181818;stroke-width:1;stroke-dasharray:7,7;"/><polygon fill="#181818" points="385,393.5244,389,384.5244,385,388.5244,381,384.5244,385,393.5244" style="stroke:#181818;stroke-width:1;"/><polygon fill="#000000" points="390,361.9414,392.9389,352.8963,387.0611,352.8963,390,361.9414" style="stroke:#000000;stroke-width:1;"/><text fill="#000000" font-family="sans-serif" font-size="13" lengthAdjust="spacing" textLength="58.5" x="399" y="362.2734">&#1087;&#1088;&#1086;&#1074;&#1077;&#1088;&#1103;&#1077;&#1090;</text></g><!--SRC=[dLPRRnGt57wVNs7j2qj98dXTgP78eaYHI5coH3mxCuV4YdUys9w5eMeKu847AgL2HQMj2WGafAeFH6b349Vm5xp_gCUUoywLfDreDpC-j-_uV3u-ccaEnFnitfi3y_Tq5ty_uTy1CH_CHtCmlJ-zRqxC8PadPj-ynzS7vYYHlp67vWXVJwQFp6VKt2FuQEq_ctSesCNldkUfRHQEgQGZudEgr6Mj9Tk8DApu8XooUq0kLbMMHQY7EaPK6u87ddUEVDlm8UOtyxlv2K7jcxyijjVcJ_E7UOvFhynJyskZaUUv26IPYpiWoVSUmSyyOK6Fi52dRo4TGOyC4MUucIuf8NLbQIoPZse1-6n4UR8ux_vT89kWLuBk-PbJj_GT-hMB1JTkVOZEczO7De8L56DS82gJb16WtaImmFiXox4lHcEXc6OYF7EY_oC1dt8_ubH3NoXTHDi4P4N3g0NCxOY6ckcui5P0SpsLrZ1PZwsHhycWjSh2oguWxXwnl-bg09nDGCOrWHyfBKOWAoneG4qYkGcX7z-8nr1Sra9JFlZFhBcMuRII790JNIc0hKlxAU8cQgtF89O3vjLCDLQft8x6THBcUZTiLksRRqlJKe0Dgg1fExBzIq9NXRTOUEekBcMUwxXdkRTbXXhBUOnAOcVgHA_D2_CINv_WubFiIC_CMzBjpolRqSv_jIjX_QZTbLKQqiqPSRFCi666u3kczvD7F56fB62g87QD8170NV2nsrwFa2TTTPjdN42jDL0HrqFGPTNrSM3vLDQrPIjNTWtSeHOohk9aeGBiQEw0zHBb4iUY9415lY441vhd0nnG9sLCJOmi29PYF2qp1UUd97R78iWFCkfSPKhlECMTMJOs4OdR82TOy6eko8Orc40OmL8y0Cb4q5MQsil0kfmZ40QvzngFLf7y0p76So8BFJ2fN_vQEUbgAKu9QlLMwNWdgS4SPhbJeAYxmDOLykHqODL2spk7Si1G1HnPBvWfvplaZW9IJal1UPsN4ygPtMQdjXBw4f33tLiEOI-zQkT827S6rGkhN5H_2_pj0YBREt9t_cozj7rpH6z9K5iuAJHvBdEsfSWsX0QdSPFfBNUTLDYPDxDwkKwbMLlNsCSMyTRyOfwrD8LqIEbSwY1KqhcuiF1DftQPzeWToimNdD4-JdyqnzE7TYR3CGsdiKEow1MdWCpJfHPFRjBxnurkxz3hWnRp14XojsBuOvpuFk3tUFeO1yA3SlX4Am_SATmA5ZaEaaVMWDYv4QqUkPT5pokLQs5XiTPpclFE8XOjg-pzkcKXX3MkjkHMut8NEOjfibLeMWLeZTFQeyqNt9eJDsdlJlSIYty1]--></g></svg>