<svg xmlns="http://www.w3.org/2000/svg" xmlns:xlink="http://www.w3.org/1999/xlink" contentStyleType="text/css" data-diagram-type="DESCRIPTION" height="955px" preserveAspectRatio="none" style="width:646px;height:955px;background:#FFFFFF;" version="1.1" viewBox="0 0 646 955" width="646px" zoomAndPan="magnify"><title>&#1044;&#1080;&#1072;&#1075;&#1088;&#1072;&#1084;&#1084;&#1072; &#1088;&#1072;&#1079;&#1084;&#1077;&#1097;&#1077;&#1085;&#1080;&#1103; - &#1048;&#1085;&#1092;&#1088;&#1072;&#1089;&#1090;&#1088;&#1091;&#1082;&#1090;&#1091;&#1088;&#1072; &#1094;&#1074;&#1077;&#1090;&#1086;&#1095;&#1085;&#1086;&#1081; &#1086;&#1088;&#1072;&#1085;&#1078;&#1077;&#1088;&#1077;&#1080;</title><defs/><g><g class="title" data-source-line="1"><text fill="#000000" font-family="sans-serif" font-size="14" font-weight="bold" lengthAdjust="spacing" textLength="399" x="116.5" y="23.2344">&#1044;&#1080;&#1072;&#1075;&#1088;&#1072;&#1084;&#1084;&#1072; &#1088;&#1072;&#1079;&#1084;&#1077;&#1097;&#1077;&#1085;&#1080;&#1103; - &#1048;&#1085;&#1092;&#1088;&#1072;&#1089;&#1090;&#1088;&#1091;&#1082;&#1090;&#1091;&#1088;&#1072; &#1094;&#1074;&#1077;&#1090;&#1086;&#1095;&#1085;&#1086;&#1081; &#1086;&#1088;&#1072;&#1085;&#1078;&#1077;&#1088;&#1077;&#1080;</text></g><!--cluster ClientDevices--><g class="cluster" data-entity="ClientDevices" data-source-line="3" data-uid="ent0002" id="cluster_ClientDevices"><polygon fill="none" points="16,51.9844,26,41.9844,464,41.9844,464,193.9844,454,203.9844,16,203.9844,16,51.9844" style="stroke:#181818;stroke-width:1;"/><line style="stroke:#181818;stroke-width:1;" x1="454" x2="464" y1="51.9844" y2="41.9844"/><line style="stroke:#181818;stroke-width:1;" x1="16" x2="454" y1="51.9844" y2="51.9844"/><line style="stroke:#181818;stroke-width:1;" x1="454" x2="454" y1="51.9844" y2="203.9844"/><text fill="#000000" font-family="sans-serif" font-size="14" font-weight="bold" lengthAdjust="spacing" textLength="147" x="162.5" y="68.2188">&#1050;&#1083;&#1080;&#1077;&#1085;&#1090;&#1089;&#1082;&#1080;&#1077; &#1091;&#1089;&#1090;&#1088;&#1086;&#1081;&#1089;&#1090;&#1074;&#1072;</text></g><!--cluster PC--><g class="cluster" data-entity="PC" data-source-line="4" data-uid="ent0003" id="cluster_PC"><polygon fill="none" points="40,97.9844,50,87.9844,207,87.9844,207,169.9844,197,179.9844,40,179.9844,40,97.9844" style="stroke:#181818;stroke-width:1;"/><line style="stroke:#181818;stroke-width:1;" x1="197" x2="207" y1="97.9844" y2="87.9844"/><line style="stroke:#181818;stroke-width:1;" x1="40" x2="197" y1="97.9844" y2="97.9844"/><line style="stroke:#181818;stroke-width:1;" x1="197" x2="197" y1="97.9844" y2="179.9844"/><text fill="#000000" font-family="sans-serif" font-size="14" font-weight="bold" lengthAdjust="spacing" textLength="91" x="74" y="114.2188">&#1055;&#1050; &#1087;&#1086;&#1082;&#1091;&#1087;&#1072;&#1090;&#1077;&#1083;&#1103;</text></g><!--cluster Phone--><g class="cluster" data-entity="Phone" data-source-line="7" data-uid="ent0005" id="cluster_Phone"><polygon fill="none" points="231,97.9844,241,87.9844,440,87.9844,440,169.9844,430,179.9844,231,179.9844,231,97.9844" style="stroke:#181818;stroke-width:1;"/><line style="stroke:#181818;stroke-width:1;" x1="430" x2="440" y1="97.9844" y2="87.9844"/><line style="stroke:#181818;stroke-width:1;" x1="231" x2="430" y1="97.9844" y2="97.9844"/><line style="stroke:#181818;stroke-width:1;" x1="430" x2="430" y1="97.9844" y2="179.9844"/><text fill="#000000" font-family="sans-serif" font-size="14" font-weight="bold" lengthAdjust="spacing" textLength="133" x="265" y="114.2188">&#1057;&#1084;&#1072;&#1088;&#1090;&#1092;&#1086;&#1085; &#1087;&#1086;&#1082;&#1091;&#1087;&#1072;&#1090;&#1077;&#1083;&#1103;</text></g><!--cluster AppServer--><g class="cluster" data-entity="AppServer" data-source-line="12" data-uid="ent0007" id="cluster_AppServer"><polygon fill="none" points="110,380.9844,120,370.9844,360,370.9844,360,762.9844,350,772.9844,110,772.9844,110,380.9844" style="stroke:#181818;stroke-width:1;"/><line style="stroke:#181818;stroke-width:1;" x1="350" x2="360" y1="380.9844" y2="370.9844"/><line style="stroke:#181818;stroke-width:1;" x1="110" x2="350" y1="380.9844" y2="380.9844"/><line style="stroke:#181818;stroke-width:1;" x1="350" x2="350" y1="380.9844" y2="772.9844"/><text fill="#000000" font-family="sans-serif" font-size="14" font-weight="bold" lengthAdjust="spacing" textLength="119" x="171.5" y="397.2188">&#1057;&#1077;&#1088;&#1074;&#1077;&#1088; &#1087;&#1088;&#1080;&#1083;&#1086;&#1078;&#1077;&#1085;&#1080;&#1081;</text></g><!--cluster Backend--><g class="cluster" data-entity="Backend" data-source-line="13" data-uid="ent0008" id="cluster_Backend"><polygon fill="none" points="144,426.9844,154,416.9844,332,416.9844,332,513.9844,322,523.9844,144,523.9844,144,426.9844" style="stroke:#181818;stroke-width:1;"/><line style="stroke:#181818;stroke-width:1;" x1="322" x2="332" y1="426.9844" y2="416.9844"/><line style="stroke:#181818;stroke-width:1;" x1="144" x2="322" y1="426.9844" y2="426.9844"/><line style="stroke:#181818;stroke-width:1;" x1="322" x2="322" y1="426.9844" y2="523.9844"/><text fill="#000000" font-family="sans-serif" font-size="14" font-weight="bold" lengthAdjust="spacing" textLength="112" x="178" y="443.2188">Docker Container</text><text fill="#000000" font-family="sans-serif" font-size="14" font-weight="bold" lengthAdjust="spacing" textLength="49" x="209.5" y="458.2031">Backend</text></g><!--cluster ReportService--><g class="cluster" data-entity="ReportService" data-source-line="16" data-uid="ent0010" id="cluster_ReportService"><polygon fill="none" points="134,651.9844,144,641.9844,336,641.9844,336,738.9844,326,748.9844,134,748.9844,134,651.9844" style="stroke:#181818;stroke-width:1;"/><line style="stroke:#181818;stroke-width:1;" x1="326" x2="336" y1="651.9844" y2="641.9844"/><line style="stroke:#181818;stroke-width:1;" x1="134" x2="326" y1="651.9844" y2="651.9844"/><line style="stroke:#181818;stroke-width:1;" x1="326" x2="326" y1="651.9844" y2="748.9844"/><text fill="#000000" font-family="sans-serif" font-size="14" font-weight="bold" lengthAdjust="spacing" textLength="112" x="175" y="668.2188">Docker Container</text><text fill="#000000" font-family="sans-serif" font-size="14" font-weight="bold" lengthAdjust="spacing" textLength="98" x="182" y="683.2031">Report Service</text></g><!--cluster DBServer--><g class="cluster" data-entity="DBServer" data-source-line="21" data-uid="ent0012" id="cluster_DBServer"><polygon fill="none" points="384,594.9844,394,584.9844,629,584.9844,629,778.9844,619,788.9844,384,788.9844,384,594.9844" style="stroke:#181818;stroke-width:1;"/><line style="stroke:#181818;stroke-width:1;" x1="619" x2="629" y1="594.9844" y2="584.9844"/><line style="stroke:#181818;stroke-width:1;" x1="384" x2="619" y1="594.9844" y2="594.9844"/><line style="stroke:#181818;stroke-width:1;" x1="619" x2="619" y1="594.9844" y2="788.9844"/><text fill="#000000" font-family="sans-serif" font-size="14" font-weight="bold" lengthAdjust="spacing" textLength="126" x="439.5" y="611.2188">&#1057;&#1077;&#1088;&#1074;&#1077;&#1088; &#1073;&#1072;&#1079;&#1099; &#1076;&#1072;&#1085;&#1085;&#1099;&#1093;</text></g><!--cluster Postgres--><g class="cluster" data-entity="Postgres" data-source-line="22" data-uid="ent0013" id="cluster_Postgres"><path d="M416,648.9844 C416,638.9844 506.5,638.9844 506.5,638.9844 C506.5,638.9844 597,638.9844 597,648.9844 L597,746.9844 C597,756.9844 506.5,756.9844 506.5,756.9844 C506.5,756.9844 416,756.9844 416,746.9844 L416,648.9844" fill="none" style="stroke:#181818;stroke-width:1;"/><path d="M416,648.9844 C416,658.9844 506.5,658.9844 506.5,658.9844 C506.5,658.9844 597,658.9844 597,648.9844" fill="none" style="stroke:#181818;stroke-width:1;"/><text fill="#000000" font-family="sans-serif" font-size="14" font-weight="bold" lengthAdjust="spacing" textLength="91" x="461" y="674.2188">PostgreSQL 15</text></g><!--cluster BackupServer--><g class="cluster" data-entity="BackupServer" data-source-line="27" data-uid="ent0015" id="cluster_BackupServer"><polygon fill="none" points="285,859.9844,295,849.9844,564,849.9844,564,928.9844,554,938.9844,285,938.9844,285,859.9844" style="stroke:#181818;stroke-width:1;"/><line style="stroke:#181818;stroke-width:1;" x1="554" x2="564" y1="859.9844" y2="849.9844"/><line style="stroke:#181818;stroke-width:1;" x1="285" x2="554" y1="859.9844" y2="859.9844"/><line style="stroke:#181818;stroke-width:1;" x1="554" x2="554" y1="859.9844" y2="938.9844"/><text fill="#000000" font-family="sans-serif" font-size="14" font-weight="bold" lengthAdjust="spacing" textLength="203" x="319" y="876.2188">&#1057;&#1077;&#1088;&#1074;&#1077;&#1088; &#1088;&#1077;&#1079;&#1077;&#1088;&#1074;&#1085;&#1086;&#1075;&#1086; &#1082;&#1086;&#1087;&#1080;&#1088;&#1086;&#1074;&#1072;&#1085;&#1080;&#1103;</text></g><!--entity Browser--><g class="entity" data-entity="Browser" data-source-line="5" data-uid="ent0004" id="entity_Browser"><rect fill="#F1F1F1" height="37.9844" rx="2.5" ry="2.5" style="stroke:#181818;stroke-width:0.5;" width="79" x="112.5" y="125.9844"/><polygon fill="#F1F1F1" points="174.5,130.9844,174.5,144.9844,186.5,144.9844,186.5,136.9844,180.5,130.9844,174.5,130.9844" style="stroke:#181818;stroke-width:0.5;"/><line style="stroke:#181818;stroke-width:0.5;" x1="180.5" x2="180.5" y1="130.9844" y2="136.9844"/><line style="stroke:#181818;stroke-width:0.5;" x1="186.5" x2="180.5" y1="136.9844" y2="136.9844"/><text fill="#000000" font-family="sans-serif" font-size="14" lengthAdjust="spacing" textLength="49" x="122.5" y="152.2188">&#1041;&#1088;&#1072;&#1091;&#1079;&#1077;&#1088;</text></g><!--entity MobileApp--><g class="entity" data-entity="MobileApp" data-source-line="8" data-uid="ent0006" id="entity_MobileApp"><rect fill="#F1F1F1" height="37.9844" rx="2.5" ry="2.5" style="stroke:#181818;stroke-width:0.5;" width="170" x="247" y="125.9844"/><polygon fill="#F1F1F1" points="400,130.9844,400,144.9844,412,144.9844,412,136.9844,406,130.9844,400,130.9844" style="stroke:#181818;stroke-width:0.5;"/><line style="stroke:#181818;stroke-width:0.5;" x1="406" x2="406" y1="130.9844" y2="136.9844"/><line style="stroke:#181818;stroke-width:0.5;" x1="412" x2="406" y1="136.9844" y2="136.9844"/><text fill="#000000" font-family="sans-serif" font-size="14" lengthAdjust="spacing" textLength="140" x="257" y="152.2188">&#1052;&#1086;&#1073;&#1080;&#1083;&#1100;&#1085;&#1086;&#1077; &#1087;&#1088;&#1080;&#1083;&#1086;&#1078;&#1077;&#1085;&#1080;&#1077;</text></g><!--entity WebApp--><g class="entity" data-entity="WebApp" data-source-line="14" data-uid="ent0009" id="entity_WebApp"><rect fill="#F1F1F1" height="37.9844" rx="2.5" ry="2.5" style="stroke:#181818;stroke-width:0.5;" width="142" x="171" y="469.9844"/><polygon fill="#F1F1F1" points="296,474.9844,296,488.9844,308,488.9844,308,480.9844,302,474.9844,296,474.9844" style="stroke:#181818;stroke-width:0.5;"/><line style="stroke:#181818;stroke-width:0.5;" x1="302" x2="302" y1="474.9844" y2="480.9844"/><line style="stroke:#181818;stroke-width:0.5;" x1="308" x2="302" y1="480.9844" y2="480.9844"/><text fill="#000000" font-family="sans-serif" font-size="14" lengthAdjust="spacing" textLength="112" x="181" y="496.2188">Flask/Django App</text></g><!--entity ReportMod--><g class="entity" data-entity="ReportMod" data-source-line="17" data-uid="ent0011" id="entity_ReportMod"><rect fill="#F1F1F1" height="37.9844" rx="2.5" ry="2.5" style="stroke:#181818;stroke-width:0.5;" width="170" x="150" y="694.9844"/><polygon fill="#F1F1F1" points="303,699.9844,303,713.9844,315,713.9844,315,705.9844,309,699.9844,303,699.9844" style="stroke:#181818;stroke-width:0.5;"/><line style="stroke:#181818;stroke-width:0.5;" x1="309" x2="309" y1="699.9844" y2="705.9844"/><line style="stroke:#181818;stroke-width:0.5;" x1="315" x2="309" y1="705.9844" y2="705.9844"/><text fill="#000000" font-family="sans-serif" font-size="14" lengthAdjust="spacing" textLength="140" x="160" y="721.2188">Python Report Module</text></g><!--entity DBSchema--><g class="entity" data-entity="DBSchema" data-source-line="23" data-uid="ent0014" id="entity_DBSchema"><rect fill="#F1F1F1" height="37.9844" rx="2.5" ry="2.5" style="stroke:#181818;stroke-width:0.5;" width="114" x="459" y="694.9844"/><polygon fill="#F1F1F1" points="556,699.9844,556,713.9844,568,713.9844,568,705.9844,562,699.9844,556,699.9844" style="stroke:#181818;stroke-width:0.5;"/><line style="stroke:#181818;stroke-width:0.5;" x1="562" x2="562" y1="699.9844" y2="705.9844"/><line style="stroke:#181818;stroke-width:0.5;" x1="568" x2="562" y1="705.9844" y2="705.9844"/><text fill="#000000" font-family="sans-serif" font-size="14" lengthAdjust="spacing" textLength="84" x="469" y="721.2188">&#1041;&#1044; &#1054;&#1088;&#1072;&#1085;&#1078;&#1077;&#1088;&#1077;&#1103;</text></g><!--entity Backups--><g class="entity" data-entity="Backups" data-source-line="28" data-uid="ent0016" id="entity_Backups"><rect fill="#F1F1F1" height="34.9844" rx="35" ry="35" style="stroke:#181818;stroke-width:0.5;" width="146" x="351" y="887.9844"/><text fill="#000000" font-family="sans-serif" font-size="14" lengthAdjust="spacing" textLength="126" x="361" y="911.2188">&#1056;&#1077;&#1079;&#1077;&#1088;&#1074;&#1085;&#1099;&#1077; &#1082;&#1086;&#1087;&#1080;&#1080; &#1041;&#1044;</text></g><!--entity Internet--><g class="entity" data-entity="Internet" data-source-line="31" data-uid="ent0017" id="entity_Internet"><path d="M207.6092,274.4403 C210.2877,268.8848 214.9147,266.9458 219.2172,272.786 C223.8293,267.7289 228.2321,267.3387 231.5908,274.0985 C234.9779,268.794 239.5406,268.1885 243.2642,273.7365 C246.7789,269.2354 250.518,269.0154 253.8988,273.8884 C257.7527,267.2975 261.8425,267.2798 266.4129,273.1699 C269.409,267.7625 274.7898,268.462 277.4379,273.5359 C286.8587,275.4872 290.9774,280.1806 285.5889,289.6315 C290.3998,297.3657 286.0348,303.5739 277.3062,302.7774 C276.143,309.4617 270.603,310.7804 266.1823,305.9148 C263.7637,311.0409 258.0979,312.1987 254.5156,307.2644 C251.7869,312.6352 246.9246,314.4324 242.6455,308.962 C237.946,313.496 234.0756,313.554 231.1508,307.1047 C226.9104,312.6598 222.4463,311.9357 219.8473,305.5508 C215.9006,310.2351 210.8321,308.7149 209.1925,303.152 C198.8996,302.9377 196.0452,296.2519 201.4119,287.9976 C196.9766,280.367 199.0379,276.1253 207.6092,274.4403" fill="#F1F1F1" style="stroke:#181818;stroke-width:0.5;"/><text fill="#000000" font-family="sans-serif" font-size="14" lengthAdjust="spacing" textLength="56" x="214" y="293.2188">&#1048;&#1085;&#1090;&#1077;&#1088;&#1085;&#1077;&#1090;</text></g><!--link Browser to Internet--><g class="link" data-entity-1="Browser" data-entity-2="Internet" data-source-line="34" data-uid="lnk18" id="link_Browser_Internet"><path d="M163.58,164.0644 C180.1,189.8544 207.153,232.0924 224.863,259.7324" fill="none" id="Browser-to-Internet" style="stroke:#181818;stroke-width:1;"/><polygon fill="#181818" points="228.1,264.7844,226.6125,255.0485,225.4025,260.5744,219.8766,259.3645,228.1,264.7844" style="stroke:#181818;stroke-width:1;"/><text fill="#000000" font-family="sans-serif" font-size="13" lengthAdjust="spacing" textLength="32.5" x="208" y="233.2734">HTTPS</text></g><!--link MobileApp to Internet--><g class="link" data-entity-1="MobileApp" data-entity-2="Internet" data-source-line="35" data-uid="lnk19" id="link_MobileApp_Internet"><path d="M320.42,164.0644 C303.9,189.8544 276.847,232.0924 259.137,259.7324" fill="none" id="MobileApp-to-Internet" style="stroke:#181818;stroke-width:1;"/><polygon fill="#181818" points="255.9,264.7844,264.1234,259.3645,258.5975,260.5744,257.3875,255.0485,255.9,264.7844" style="stroke:#181818;stroke-width:1;"/><text fill="#000000" font-family="sans-serif" font-size="13" lengthAdjust="spacing" textLength="104" x="285" y="233.2734">HTTPS / REST API</text></g><!--link Internet to WebApp--><g class="link" data-entity-1="Internet" data-entity-2="WebApp" data-source-line="36" data-uid="lnk20" id="link_Internet_WebApp"><path d="M242,310.2144 C242,349.8044 242,426.9744 242,463.7944" fill="none" id="Internet-to-WebApp" style="stroke:#181818;stroke-width:1;"/><polygon fill="#181818" points="242,469.7944,246,460.7944,242,464.7944,238,460.7944,242,469.7944" style="stroke:#181818;stroke-width:1;"/><text fill="#000000" font-family="sans-serif" font-size="13" lengthAdjust="spacing" textLength="58.5" x="243" y="353.2734">HTTPS 443</text></g><!--link WebApp to ReportMod--><g class="link" data-entity-1="WebApp" data-entity-2="ReportMod" data-source-line="38" data-uid="lnk21" id="link_WebApp_ReportMod"><path d="M241.43,508.2344 C240.11,550.1544 237.0677,646.9373 235.7577,688.7973" fill="none" id="WebApp-to-ReportMod" style="stroke:#181818;stroke-width:1;"/><polygon fill="#181818" points="235.57,694.7944,239.8496,685.9239,235.7264,689.7968,231.8535,685.6737,235.57,694.7944" style="stroke:#181818;stroke-width:1;"/><text fill="#000000" font-family="sans-serif" font-size="13" lengthAdjust="spacing" textLength="71.5" x="241" y="560.2734">gRPC / HTTP</text></g><!--link WebApp to Postgres--><g class="link" data-entity-1="WebApp" data-entity-2="Postgres" data-source-line="39" data-uid="lnk22" id="link_WebApp_Postgres"><path d="M278.42,508.1944 C292.8,516.5544 308.77,527.4244 321,539.9844 C351.715,571.5494 377.1475,613.9519 395.0563,648.8769 C404.0106,666.3394 408.7157,676.4197 413.628,687.8541" fill="none" id="WebApp-to-Postgres" style="stroke:#181818;stroke-width:1;"/><polygon fill="#181818" points="415.9964,693.3669,416.1191,683.5188,414.0228,688.7729,408.7687,686.6766,415.9964,693.3669" style="stroke:#181818;stroke-width:1;"/><text fill="#000000" font-family="sans-serif" font-size="13" lengthAdjust="spacing" textLength="97.5" x="343" y="553.2734">JDBC / psycopg2</text><text fill="#000000" font-family="sans-serif" font-size="13" lengthAdjust="spacing" textLength="26" x="378.75" y="567.1875">5432</text></g><!--link Postgres to Backups--><g class="link" data-entity-1="Postgres" data-entity-2="Backups" data-source-line="41" data-uid="lnk23" id="link_Postgres_Backups"><path d="M424,757.5687 C424,757.8211 424,758.0743 424,758.3282 C424,758.8359 424,759.3465 424,759.8598 C424,768.0729 424,776.9853 424,786.2156 C424,823.1369 424,859.1444 424,881.8244" fill="none" id="Postgres-to-Backups" style="stroke:#181818;stroke-width:1;"/><polygon fill="#181818" points="424,887.8244,428,878.8244,424,882.8244,420,878.8244,424,887.8244" style="stroke:#181818;stroke-width:1;"/><text fill="#000000" font-family="sans-serif" font-size="13" lengthAdjust="spacing" textLength="45.5" x="438" y="818.2734">pg_dump</text><text fill="#000000" font-family="sans-serif" font-size="13" lengthAdjust="spacing" textLength="71.5" x="425" y="832.1875">(&#1077;&#1078;&#1077;&#1076;&#1085;&#1077;&#1074;&#1085;&#1086;)</text></g><!--SRC=[VLFHQXfH47tVhnZoqlP1f8bvoKCXQajJMh0gz4KegtkxiTdiBhlNb502HfEMOa4AUIYXjCqV61EJZLRp2tF_g3Dtbws2rO2vpZtdpDmpCx8f7G5uXX4Ey4grwViF_Gr07s_fE59VS8HJZ5GVCe3VSQfE-58TguvggowEwN-N8w0-uP3m7PofpyIOuHtGaOMcU4CNRHAA3CFrB05hU8uJoahIn3_6CP-1XBGiS_b4UeCrC4CeE4tXog8uQ3P421yDe4-YymlF0U-9CQPYxgcm3ebEL5_pIeK4p1ypaCrtPaCIwPj-GfTUI6LfP3xmFeGYqE2ZUVqBzeDUsb4db6Iw8jUkvuhbwNuGvP9UE55VjJ4ZKg4AA40_Rc9_SQHLNddrfYEsVJ-fv2Wrx49Ro0wtbz7lD9s85H4SY631fABNsADGmNEbsNH5K7Fp9aLSAtvwV5vQ-ZF73FUonVUcQtiihWblHFrVWQkob8Nl1HAu8cgSviQX9B8qPUbGafC9aFomMiuybGAhhRdaoLKzm6izULFLKwUQNymlM6EPqgoR8V5BNYZjG5HUluJ7ct4luqZud-d1Cy2VYvET307bQEoAVNDbYNeJRfC0pyCLpe1MO4Op5Udf7shfA17b1hKM-nfABp1j5luzhwLwF5k94aR0fSv9X5nGm_5Q5X5vbJkQEEMjrR0TLuh05T8m7W2LF5HzqewCP3aWatcIGc0BdbUhfOgHJkpIQyX2-Mcb2jkb7IEzOs0yH2aibzimZ2J6rscp2M6NQO-p6ZWFIPkq1I-AUKRuuM73y-trchkPsrWtZ1J1yCG2GllsMwkrxzVSX-GTxyyrMn3tuj5V]--></g></svg>