<svg xmlns="http://www.w3.org/2000/svg" xmlns:xlink="http://www.w3.org/1999/xlink" contentStyleType="text/css" data-diagram-type="ACTIVITY" height="996px" preserveAspectRatio="none" style="width:1010px;height:996px;background:#FFFFFF;" version="1.1" viewBox="0 0 1010 996" width="1010px" zoomAndPan="magnify"><title>&#1044;&#1080;&#1072;&#1075;&#1088;&#1072;&#1084;&#1084;&#1072; &#1076;&#1077;&#1103;&#1090;&#1077;&#1083;&#1100;&#1085;&#1086;&#1089;&#1090;&#1080; - &#1054;&#1073;&#1088;&#1072;&#1073;&#1086;&#1090;&#1082;&#1072; &#1079;&#1072;&#1082;&#1072;&#1079;&#1072; &#1094;&#1074;&#1077;&#1090;&#1086;&#1095;&#1085;&#1086;&#1081; &#1086;&#1088;&#1072;&#1085;&#1078;&#1077;&#1088;&#1077;&#1080;</title><defs/><g><g class="title" data-source-line="1"><text fill="#000000" font-family="sans-serif" font-size="14" font-weight="bold" lengthAdjust="spacing" textLength="427" x="290.125" y="33.2344">&#1044;&#1080;&#1072;&#1075;&#1088;&#1072;&#1084;&#1084;&#1072; &#1076;&#1077;&#1103;&#1090;&#1077;&#1083;&#1100;&#1085;&#1086;&#1089;&#1090;&#1080; - &#1054;&#1073;&#1088;&#1072;&#1073;&#1086;&#1090;&#1082;&#1072; &#1079;&#1072;&#1082;&#1072;&#1079;&#1072; &#1094;&#1074;&#1077;&#1090;&#1086;&#1095;&#1085;&#1086;&#1081; &#1086;&#1088;&#1072;&#1085;&#1078;&#1077;&#1088;&#1077;&#1080;</text></g><rect fill="none" height="19.2656" style="stroke:none;stroke-width:1;" width="977.25" x="15" y="46.9844"/><ellipse cx="180" cy="81.25" fill="#222222" rx="10" ry="10" style="stroke:#222222;stroke-width:1;"/><rect fill="#F1F1F1" height="32.8438" rx="12.5" ry="12.5" style="stroke:#181818;stroke-width:0.5;" width="200" x="80" y="111.25"/><text fill="#000000" font-family="sans-serif" font-size="12" lengthAdjust="spacing" textLength="180" x="90" y="132.5938">&#1055;&#1086;&#1083;&#1091;&#1095;&#1077;&#1085;&#1080;&#1077; &#1079;&#1072;&#1082;&#1072;&#1079;&#1072; &#1086;&#1090; &#1087;&#1086;&#1082;&#1091;&#1087;&#1072;&#1090;&#1077;&#1083;&#1103;</text><rect fill="#F1F1F1" height="32.8438" rx="12.5" ry="12.5" style="stroke:#181818;stroke-width:0.5;" width="164" x="98" y="164.0938"/><text fill="#000000" font-family="sans-serif" font-size="12" lengthAdjust="spacing" textLength="144" x="108" y="185.4375">&#1042;&#1085;&#1077;&#1089;&#1077;&#1085;&#1080;&#1077; &#1076;&#1072;&#1085;&#1085;&#1099;&#1093; &#1086; &#1079;&#1072;&#1082;&#1072;&#1079;&#1077;</text><rect fill="#F1F1F1" height="32.8438" rx="12.5" ry="12.5" style="stroke:#181818;stroke-width:0.5;" width="212" x="74" y="216.9375"/><text fill="#000000" font-family="sans-serif" font-size="12" lengthAdjust="spacing" textLength="192" x="84" y="238.2813">&#1054;&#1087;&#1088;&#1077;&#1076;&#1077;&#1083;&#1077;&#1085;&#1080;&#1077; &#1089;&#1088;&#1086;&#1095;&#1085;&#1086;&#1089;&#1090;&#1080; &#1074;&#1099;&#1087;&#1086;&#1083;&#1085;&#1077;&#1085;&#1080;&#1103;</text><rect fill="#F1F1F1" height="32.8438" rx="12.5" ry="12.5" style="stroke:#181818;stroke-width:0.5;" width="224" x="68" y="479.5078"/><text fill="#000000" font-family="sans-serif" font-size="12" lengthAdjust="spacing" textLength="204" x="78" y="500.8516">&#1055;&#1086;&#1076;&#1090;&#1074;&#1077;&#1088;&#1078;&#1076;&#1077;&#1085;&#1080;&#1077; &#1089;&#1090;&#1086;&#1080;&#1084;&#1086;&#1089;&#1090;&#1080; &#1087;&#1086;&#1082;&#1091;&#1087;&#1072;&#1090;&#1077;&#1083;&#1102;</text><polygon fill="#F1F1F1" points="125,532.3516,235,532.3516,247,544.3516,235,556.3516,125,556.3516,113,544.3516,125,532.3516" style="stroke:#181818;stroke-width:0.5;"/><text fill="#000000" font-family="sans-serif" font-size="11" lengthAdjust="spacing" textLength="110" x="125" y="548.8633">&#1055;&#1086;&#1082;&#1091;&#1087;&#1072;&#1090;&#1077;&#1083;&#1100; &#1089;&#1086;&#1075;&#1083;&#1072;&#1089;&#1077;&#1085;?</text><text fill="#000000" font-family="sans-serif" font-size="11" lengthAdjust="spacing" textLength="11" x="102" y="542.9766">&#1076;&#1072;</text><text fill="#000000" font-family="sans-serif" font-size="11" lengthAdjust="spacing" textLength="16.5" x="247" y="542.9766">&#1085;&#1077;&#1090;</text><rect fill="#F1F1F1" height="32.8438" rx="12.5" ry="12.5" style="stroke:#181818;stroke-width:0.5;" width="140" x="21" y="576.3516"/><text fill="#000000" font-family="sans-serif" font-size="12" lengthAdjust="spacing" textLength="120" x="31" y="597.6953">&#1060;&#1080;&#1082;&#1089;&#1072;&#1094;&#1080;&#1103; &#1079;&#1072;&#1082;&#1072;&#1079;&#1072; &#1074; &#1041;&#1044;</text><rect fill="#F1F1F1" height="32.8438" rx="12.5" ry="12.5" style="stroke:#181818;stroke-width:0.5;" width="122" x="30" y="734.8828"/><text fill="#000000" font-family="sans-serif" font-size="12" lengthAdjust="spacing" textLength="102" x="40" y="756.2266">&#1057;&#1073;&#1086;&#1088;&#1082;&#1072; &#1082;&#1086;&#1084;&#1087;&#1086;&#1079;&#1080;&#1094;&#1080;&#1080;</text><rect fill="#F1F1F1" height="32.8438" rx="12.5" ry="12.5" style="stroke:#181818;stroke-width:0.5;" width="122" x="30" y="787.7266"/><text fill="#000000" font-family="sans-serif" font-size="12" lengthAdjust="spacing" textLength="102" x="40" y="809.0703">&#1042;&#1099;&#1087;&#1086;&#1083;&#1085;&#1077;&#1085;&#1080;&#1077; &#1079;&#1072;&#1082;&#1072;&#1079;&#1072;</text><rect fill="#F1F1F1" height="32.8438" rx="12.5" ry="12.5" style="stroke:#181818;stroke-width:0.5;" width="122" x="30" y="840.5703"/><text fill="#000000" font-family="sans-serif" font-size="12" lengthAdjust="spacing" textLength="102" x="40" y="861.9141">&#1042;&#1099;&#1076;&#1072;&#1095;&#1072; &#1087;&#1086;&#1082;&#1091;&#1087;&#1072;&#1090;&#1077;&#1083;&#1102;</text><rect fill="#F1F1F1" height="32.8438" rx="12.5" ry="12.5" style="stroke:#181818;stroke-width:0.5;" width="140" x="21" y="893.4141"/><text fill="#000000" font-family="sans-serif" font-size="12" lengthAdjust="spacing" textLength="120" x="31" y="914.7578">&#1054;&#1090;&#1084;&#1077;&#1090;&#1082;&#1072; &#1086; &#1074;&#1099;&#1087;&#1086;&#1083;&#1085;&#1077;&#1085;&#1080;&#1080;</text><ellipse cx="91" cy="957.2578" fill="none" rx="11" ry="11" style="stroke:#222222;stroke-width:1;"/><ellipse cx="91" cy="957.2578" fill="#222222" rx="6" ry="6" style="stroke:#222222;stroke-width:1;"/><rect fill="#F1F1F1" height="32.8438" rx="12.5" ry="12.5" style="stroke:#181818;stroke-width:0.5;" width="98" x="220" y="576.3516"/><text fill="#000000" font-family="sans-serif" font-size="12" lengthAdjust="spacing" textLength="78" x="230" y="597.6953">&#1054;&#1090;&#1084;&#1077;&#1085;&#1072; &#1079;&#1072;&#1082;&#1072;&#1079;&#1072;</text><ellipse cx="269" cy="640.1953" fill="none" rx="11" ry="11" style="stroke:#222222;stroke-width:1;"/><ellipse cx="269" cy="640.1953" fill="#222222" rx="6" ry="6" style="stroke:#222222;stroke-width:1;"/><line style="stroke:#000000;stroke-width:1.5;" x1="15" x2="15" y1="46.9844" y2="984.2578"/><polygon fill="#F1F1F1" points="499.5,269.7813,593,269.7813,605,281.7813,593,293.7813,499.5,293.7813,487.5,281.7813,499.5,269.7813" style="stroke:#181818;stroke-width:0.5;"/><text fill="#000000" font-family="sans-serif" font-size="11" lengthAdjust="spacing" textLength="93.5" x="499.5" y="286.293">&#1057;&#1088;&#1086;&#1095;&#1085;&#1086;&#1089;&#1090;&#1100; &#1079;&#1072;&#1082;&#1072;&#1079;&#1072;?</text><rect fill="#F1F1F1" height="32.8438" rx="12.5" ry="12.5" style="stroke:#181818;stroke-width:0.5;" width="152" x="328" y="327.3281"/><text fill="#000000" font-family="sans-serif" font-size="12" lengthAdjust="spacing" textLength="132" x="338" y="348.6719">&#1059;&#1089;&#1090;&#1072;&#1085;&#1086;&#1074;&#1080;&#1090;&#1100; &#1085;&#1072;&#1094;&#1077;&#1085;&#1082;&#1091; 25%</text><rect fill="#F1F1F1" height="32.8438" rx="12.5" ry="12.5" style="stroke:#181818;stroke-width:0.5;" width="152" x="500" y="327.3281"/><text fill="#000000" font-family="sans-serif" font-size="12" lengthAdjust="spacing" textLength="132" x="510" y="348.6719">&#1059;&#1089;&#1090;&#1072;&#1085;&#1086;&#1074;&#1080;&#1090;&#1100; &#1085;&#1072;&#1094;&#1077;&#1085;&#1082;&#1091; 15%</text><rect fill="#F1F1F1" height="32.8438" rx="12.5" ry="12.5" style="stroke:#181818;stroke-width:0.5;" width="86" x="672" y="327.3281"/><text fill="#000000" font-family="sans-serif" font-size="12" lengthAdjust="spacing" textLength="66" x="682" y="348.6719">&#1041;&#1077;&#1079; &#1085;&#1072;&#1094;&#1077;&#1085;&#1082;&#1080;</text><polygon fill="#F1F1F1" points="546.25,380.1719,546.25,380.1719,558.25,392.1719,546.25,404.1719,546.25,404.1719,534.25,392.1719,546.25,380.1719" style="stroke:#181818;stroke-width:0.5;"/><path d="M657.25,421.6797 L657.25,436.5938 L637.25,440.5938 L657.25,444.5938 L657.25,459.5078 A0,0 0 0 0 657.25,459.5078 L983.75,459.5078 A0,0 0 0 0 983.75,459.5078 L983.75,431.6797 L973.75,421.6797 L657.25,421.6797 A0,0 0 0 0 657.25,421.6797" fill="#FEFFDD" style="stroke:#181818;stroke-width:0.5;"/><path d="M973.75,421.6797 L973.75,431.6797 L983.75,431.6797 L973.75,421.6797" fill="#FEFFDD" style="stroke:#181818;stroke-width:0.5;"/><text fill="#000000" font-family="sans-serif" font-size="13" lengthAdjust="spacing" textLength="299" x="663.25" y="438.9688">&#1057;&#1090;&#1086;&#1080;&#1084;&#1086;&#1089;&#1090;&#1100; = (&#1050;&#1086;&#1083;&#1080;&#1095;&#1077;&#1089;&#1090;&#1074;&#1086; &#1094;&#1074;&#1077;&#1090;&#1082;&#1086;&#1074; * &#1062;&#1077;&#1085;&#1072; &#1094;&#1074;&#1077;&#1090;&#1082;&#1072;)</text><text fill="#000000" font-family="sans-serif" font-size="13" lengthAdjust="spacing" textLength="143" x="663.25" y="452.8828">+ &#1053;&#1072;&#1094;&#1077;&#1085;&#1082;&#1072; &#1079;&#1072; &#1089;&#1088;&#1086;&#1095;&#1085;&#1086;&#1089;&#1090;&#1100;</text><rect fill="#F1F1F1" height="32.8438" rx="12.5" ry="12.5" style="stroke:#181818;stroke-width:0.5;" width="182" x="455.25" y="424.1719"/><text fill="#000000" font-family="sans-serif" font-size="12" lengthAdjust="spacing" textLength="162" x="465.25" y="445.5156">&#1056;&#1072;&#1089;&#1095;&#1077;&#1090; &#1089;&#1090;&#1086;&#1080;&#1084;&#1086;&#1089;&#1090;&#1080; &#1082;&#1086;&#1084;&#1087;&#1086;&#1079;&#1080;&#1094;&#1080;&#1080;</text><rect fill="#F1F1F1" height="32.8438" rx="12.5" ry="12.5" style="stroke:#181818;stroke-width:0.5;" width="218" x="348.25" y="629.1953"/><text fill="#000000" font-family="sans-serif" font-size="12" lengthAdjust="spacing" textLength="198" x="358.25" y="650.5391">&#1057;&#1086;&#1079;&#1076;&#1072;&#1085;&#1080;&#1077; &#1079;&#1072;&#1087;&#1080;&#1089;&#1080; &#1074; &#1090;&#1072;&#1073;&#1083;&#1080;&#1094;&#1077; &#1079;&#1072;&#1082;&#1072;&#1079;&#1086;&#1074;</text><rect fill="#F1F1F1" height="32.8438" rx="12.5" ry="12.5" style="stroke:#181818;stroke-width:0.5;" width="146" x="384.25" y="682.0391"/><text fill="#000000" font-family="sans-serif" font-size="12" lengthAdjust="spacing" textLength="126" x="394.25" y="703.3828">&#1054;&#1073;&#1085;&#1086;&#1074;&#1083;&#1077;&#1085;&#1080;&#1077; &#1089;&#1090;&#1072;&#1090;&#1080;&#1089;&#1090;&#1080;&#1082;&#1080;</text><line style="stroke:#000000;stroke-width:1.5;" x1="322" x2="322" y1="46.9844" y2="984.2578"/><line style="stroke:#000000;stroke-width:1.5;" x1="988.75" x2="988.75" y1="46.9844" y2="984.2578"/><line style="stroke:#181818;stroke-width:1;" x1="180" x2="180" y1="91.25" y2="111.25"/><polygon fill="#181818" points="176,101.25,180,111.25,184,101.25,180,105.25" style="stroke:#181818;stroke-width:1;"/><line style="stroke:#181818;stroke-width:1;" x1="180" x2="180" y1="144.0938" y2="164.0938"/><polygon fill="#181818" points="176,154.0938,180,164.0938,184,154.0938,180,158.0938" style="stroke:#181818;stroke-width:1;"/><line style="stroke:#181818;stroke-width:1;" x1="180" x2="180" y1="196.9375" y2="216.9375"/><polygon fill="#181818" points="176,206.9375,180,216.9375,184,206.9375,180,210.9375" style="stroke:#181818;stroke-width:1;"/><line style="stroke:#181818;stroke-width:1;" x1="91" x2="91" y1="767.7266" y2="787.7266"/><polygon fill="#181818" points="87,777.7266,91,787.7266,95,777.7266,91,781.7266" style="stroke:#181818;stroke-width:1;"/><line style="stroke:#181818;stroke-width:1;" x1="91" x2="91" y1="820.5703" y2="840.5703"/><polygon fill="#181818" points="87,830.5703,91,840.5703,95,830.5703,91,834.5703" style="stroke:#181818;stroke-width:1;"/><line style="stroke:#181818;stroke-width:1;" x1="91" x2="91" y1="873.4141" y2="893.4141"/><polygon fill="#181818" points="87,883.4141,91,893.4141,95,883.4141,91,887.4141" style="stroke:#181818;stroke-width:1;"/><line style="stroke:#181818;stroke-width:1;" x1="91" x2="91" y1="926.2578" y2="946.2578"/><polygon fill="#181818" points="87,936.2578,91,946.2578,95,936.2578,91,940.2578" style="stroke:#181818;stroke-width:1;"/><line style="stroke:#181818;stroke-width:1;" x1="269" x2="269" y1="609.1953" y2="629.1953"/><polygon fill="#181818" points="265,619.1953,269,629.1953,273,619.1953,269,623.1953" style="stroke:#181818;stroke-width:1;"/><line style="stroke:#181818;stroke-width:1;" x1="113" x2="91" y1="544.3516" y2="544.3516"/><line style="stroke:#181818;stroke-width:1;" x1="91" x2="91" y1="544.3516" y2="576.3516"/><polygon fill="#181818" points="87,566.3516,91,576.3516,95,566.3516,91,570.3516" style="stroke:#181818;stroke-width:1;"/><line style="stroke:#181818;stroke-width:1;" x1="247" x2="269" y1="544.3516" y2="544.3516"/><line style="stroke:#181818;stroke-width:1;" x1="269" x2="269" y1="544.3516" y2="576.3516"/><polygon fill="#181818" points="265,566.3516,269,576.3516,273,566.3516,269,570.3516" style="stroke:#181818;stroke-width:1;"/><line style="stroke:#181818;stroke-width:1;" x1="180" x2="180" y1="512.3516" y2="532.3516"/><polygon fill="#181818" points="176,522.3516,180,532.3516,184,522.3516,180,526.3516" style="stroke:#181818;stroke-width:1;"/><line style="stroke:#181818;stroke-width:1;" x1="487.5" x2="404" y1="281.7813" y2="281.7813"/><line style="stroke:#181818;stroke-width:1;" x1="404" x2="404" y1="281.7813" y2="327.3281"/><polygon fill="#181818" points="400,317.3281,404,327.3281,408,317.3281,404,321.3281" style="stroke:#181818;stroke-width:1;"/><text fill="#000000" font-family="sans-serif" font-size="11" lengthAdjust="spacing" textLength="38.5" x="409.5" y="309.0664">1 &#1089;&#1091;&#1090;&#1082;&#1080;</text><line style="stroke:#181818;stroke-width:1;" x1="605" x2="715" y1="281.7813" y2="281.7813"/><line style="stroke:#181818;stroke-width:1;" x1="715" x2="715" y1="281.7813" y2="327.3281"/><polygon fill="#181818" points="711,317.3281,715,327.3281,719,317.3281,715,321.3281" style="stroke:#181818;stroke-width:1;"/><text fill="#000000" font-family="sans-serif" font-size="11" lengthAdjust="spacing" textLength="38.5" x="720.5" y="309.0664">&#1086;&#1073;&#1099;&#1095;&#1085;&#1099;&#1081;</text><line style="stroke:#181818;stroke-width:1;" x1="546.25" x2="546.25" y1="293.7813" y2="304.9635"/><line style="stroke:#181818;stroke-width:1;" x1="546.25" x2="576" y1="304.9635" y2="304.9635"/><line style="stroke:#181818;stroke-width:1;" x1="576" x2="576" y1="304.9635" y2="327.3281"/><polygon fill="#181818" points="572,317.3281,576,327.3281,580,317.3281,576,321.3281" style="stroke:#181818;stroke-width:1;"/><text fill="#000000" font-family="sans-serif" font-size="11" lengthAdjust="spacing" textLength="38.5" x="551.75" y="310.0664">2 &#1089;&#1091;&#1090;&#1086;&#1082;</text><line style="stroke:#181818;stroke-width:1;" x1="404" x2="404" y1="360.1719" y2="392.1719"/><line style="stroke:#181818;stroke-width:1;" x1="404" x2="534.25" y1="392.1719" y2="392.1719"/><polygon fill="#181818" points="524.25,388.1719,534.25,392.1719,524.25,396.1719,528.25,392.1719" style="stroke:#181818;stroke-width:1;"/><line style="stroke:#181818;stroke-width:1;" x1="715" x2="715" y1="360.1719" y2="392.1719"/><line style="stroke:#181818;stroke-width:1;" x1="715" x2="558.25" y1="392.1719" y2="392.1719"/><polygon fill="#181818" points="568.25,388.1719,558.25,392.1719,568.25,396.1719,564.25,392.1719" style="stroke:#181818;stroke-width:1;"/><line style="stroke:#181818;stroke-width:1;" x1="576" x2="576" y1="360.1719" y2="365.1719"/><line style="stroke:#181818;stroke-width:1;" x1="576" x2="546.25" y1="365.1719" y2="365.1719"/><line style="stroke:#181818;stroke-width:1;" x1="546.25" x2="546.25" y1="365.1719" y2="380.1719"/><polygon fill="#181818" points="542.25,370.1719,546.25,380.1719,550.25,370.1719,546.25,374.1719" style="stroke:#181818;stroke-width:1;"/><line style="stroke:#181818;stroke-width:1;" x1="546.25" x2="546.25" y1="404.1719" y2="424.1719"/><polygon fill="#181818" points="542.25,414.1719,546.25,424.1719,550.25,414.1719,546.25,418.1719" style="stroke:#181818;stroke-width:1;"/><line style="stroke:#181818;stroke-width:1;" x1="457.25" x2="457.25" y1="662.0391" y2="682.0391"/><polygon fill="#181818" points="453.25,672.0391,457.25,682.0391,461.25,672.0391,457.25,676.0391" style="stroke:#181818;stroke-width:1;"/><line style="stroke:#181818;stroke-width:1;" x1="180" x2="180" y1="249.7813" y2="254.7813"/><line style="stroke:#181818;stroke-width:1;" x1="180" x2="546.25" y1="254.7813" y2="254.7813"/><line style="stroke:#181818;stroke-width:1;" x1="546.25" x2="546.25" y1="254.7813" y2="269.7813"/><polygon fill="#181818" points="542.25,259.7813,546.25,269.7813,550.25,259.7813,546.25,263.7813" style="stroke:#181818;stroke-width:1;"/><line style="stroke:#181818;stroke-width:1;" x1="546.25" x2="546.25" y1="457.0156" y2="464.5078"/><line style="stroke:#181818;stroke-width:1;" x1="546.25" x2="180" y1="464.5078" y2="464.5078"/><line style="stroke:#181818;stroke-width:1;" x1="180" x2="180" y1="464.5078" y2="479.5078"/><polygon fill="#181818" points="176,469.5078,180,479.5078,184,469.5078,180,473.5078" style="stroke:#181818;stroke-width:1;"/><line style="stroke:#181818;stroke-width:1;" x1="91" x2="91" y1="609.1953" y2="614.1953"/><line style="stroke:#181818;stroke-width:1;" x1="91" x2="457.25" y1="614.1953" y2="614.1953"/><line style="stroke:#181818;stroke-width:1;" x1="457.25" x2="457.25" y1="614.1953" y2="629.1953"/><polygon fill="#181818" points="453.25,619.1953,457.25,629.1953,461.25,619.1953,457.25,623.1953" style="stroke:#181818;stroke-width:1;"/><line style="stroke:#181818;stroke-width:1;" x1="457.25" x2="457.25" y1="714.8828" y2="719.8828"/><line style="stroke:#181818;stroke-width:1;" x1="457.25" x2="91" y1="719.8828" y2="719.8828"/><line style="stroke:#181818;stroke-width:1;" x1="91" x2="91" y1="719.8828" y2="734.8828"/><polygon fill="#181818" points="87,724.8828,91,734.8828,95,724.8828,91,728.8828" style="stroke:#181818;stroke-width:1;"/><text fill="#000000" font-family="sans-serif" font-size="18" lengthAdjust="spacing" textLength="117" x="110" y="64">&#1040;&#1076;&#1084;&#1080;&#1085;&#1080;&#1089;&#1090;&#1088;&#1072;&#1090;&#1086;&#1088;</text><text fill="#000000" font-family="sans-serif" font-size="18" lengthAdjust="spacing" textLength="63" x="623.875" y="64">&#1057;&#1080;&#1089;&#1090;&#1077;&#1084;&#1072;</text><!--SRC=[ZLJBQjjG4DtVhvXD8Mhf8e5k8ag-9IHABGXEYGNTPE47THOnJHkoAZIfQUbQKgnOjQNu5-R-KS_CzKEo-i9WIVVEd9bpvjmRXT5fG7pBESVyOBluB_2BYIUSsMlRvupdTiGbFzaUld9wINp7YKOcMEppJAAd-CIBFCaEEKLo7xkNaiW_2Q-IKF8ZDhh0p8svu8yeKg1ooRc0IuXcTIzC9peyZym-toDzRWS0oYICitefQO1uWQ2P7U0PBnk-zf5xWupCzZQP4ssXj5VsFJAhI9d4t_52Uvi8n3eBdNLNJ9OIS6gljEXSAcZxA0X2OqS4Qv0G9Dw5qL6BTdXSXx2Z6ei3pnmTTWBQeLsfDb1DS_8CqJv_Ky1OTKm1hyabY0wrCcZJtgjd_WfXRuK0HVuVORU2WAW42bsAJfYSm_Y4q6ajYtFV1ErZHz50lQ_OwycSC16j-0JvYercComKgjeKJGon2OJsMHJGUVYc5Q4CPAfbeS_N4E-p2fqhj62b6DtQOeAQqdFY7zfMNDs9FGBg2-8lbRQTLnjJjIDXGzBFFvpfF3dHHiJBZ-gNjLSQl9lc_02lX2TWTj_O6W42YmyW73ld7dWKjO8sek5UDuplA333hf22yxPEH4gOrgsFo8OV9Nci0t0dONsS5XAdnYQrIgA23-kd3KBx2e7ZlpJJlCvSMBY2kJC8aRRn5pLTIudU3pgStzf4ecwspzpMNR290ZaCDlw3zCe0dyNA9NeLD4wqAzk9pjwQu5GEXbucVQ-QhuRRxi6bj8_3ary0]--></g></svg>