<svg xmlns="http://www.w3.org/2000/svg" xmlns:xlink="http://www.w3.org/1999/xlink" contentStyleType="text/css" data-diagram-type="DESCRIPTION" height="697px" preserveAspectRatio="none" style="width:1406px;height:697px;background:#FFFFFF;" version="1.1" viewBox="0 0 1406 697" width="1406px" zoomAndPan="magnify"><title>&#1044;&#1080;&#1072;&#1075;&#1088;&#1072;&#1084;&#1084;&#1072; &#1082;&#1086;&#1084;&#1087;&#1086;&#1085;&#1077;&#1085;&#1090;&#1086;&#1074; - &#1057;&#1080;&#1089;&#1090;&#1077;&#1084;&#1072; &#1091;&#1087;&#1088;&#1072;&#1074;&#1083;&#1077;&#1085;&#1080;&#1103; &#1094;&#1074;&#1077;&#1090;&#1086;&#1095;&#1085;&#1086;&#1081; &#1086;&#1088;&#1072;&#1085;&#1078;&#1077;&#1088;&#1077;&#1077;&#1081;</title><defs/><g><g class="title" data-source-line="1"><text fill="#000000" font-family="sans-serif" font-size="14" font-weight="bold" lengthAdjust="spacing" textLength="441" x="475.5" y="23.2344">&#1044;&#1080;&#1072;&#1075;&#1088;&#1072;&#1084;&#1084;&#1072; &#1082;&#1086;&#1084;&#1087;&#1086;&#1085;&#1077;&#1085;&#1090;&#1086;&#1074; - &#1057;&#1080;&#1089;&#1090;&#1077;&#1084;&#1072; &#1091;&#1087;&#1088;&#1072;&#1074;&#1083;&#1077;&#1085;&#1080;&#1103; &#1094;&#1074;&#1077;&#1090;&#1086;&#1095;&#1085;&#1086;&#1081; &#1086;&#1088;&#1072;&#1085;&#1078;&#1077;&#1088;&#1077;&#1077;&#1081;</text></g><!--cluster ?????????? ???????--><g class="cluster" data-entity=".......... ......." data-source-line="3" data-uid="ent0002" id="cluster_.......... ......."><path d="M14.5,41.9844 L141.5,41.9844 A3.75,3.75 0 0 1 144,44.4844 L151,62.9688 L388.5,62.9688 A2.5,2.5 0 0 1 391,65.4688 L391,133.4844 A2.5,2.5 0 0 1 388.5,135.9844 L14.5,135.9844 A2.5,2.5 0 0 1 12,133.4844 L12,44.4844 A2.5,2.5 0 0 1 14.5,41.9844" fill="none" style="stroke:#000000;stroke-width:1.5;"/><line style="stroke:#000000;stroke-width:1.5;" x1="12" x2="151" y1="62.9688" y2="62.9688"/><text fill="#000000" font-family="sans-serif" font-size="14" font-weight="bold" lengthAdjust="spacing" textLength="126" x="16" y="57.2188">&#1050;&#1083;&#1080;&#1077;&#1085;&#1090;&#1089;&#1082;&#1080;&#1081; &#1091;&#1088;&#1086;&#1074;&#1077;&#1085;&#1100;</text></g><!--cluster ????????? ???????--><g class="cluster" data-entity="......... ......." data-source-line="8" data-uid="ent0005" id="cluster_......... ......."><path d="M8.5,182.9844 L128.5,182.9844 A3.75,3.75 0 0 1 131,185.4844 L138,203.9688 L811.5,203.9688 A2.5,2.5 0 0 1 814,206.4688 L814,413.4844 A2.5,2.5 0 0 1 811.5,415.9844 L8.5,415.9844 A2.5,2.5 0 0 1 6,413.4844 L6,185.4844 A2.5,2.5 0 0 1 8.5,182.9844" fill="none" style="stroke:#000000;stroke-width:1.5;"/><line style="stroke:#000000;stroke-width:1.5;" x1="6" x2="138" y1="203.9688" y2="203.9688"/><text fill="#000000" font-family="sans-serif" font-size="14" font-weight="bold" lengthAdjust="spacing" textLength="119" x="10" y="198.2188">&#1057;&#1077;&#1088;&#1074;&#1077;&#1088;&#1085;&#1099;&#1081; &#1091;&#1088;&#1086;&#1074;&#1077;&#1085;&#1100;</text></g><!--cluster ??????? ??????--><g class="cluster" data-entity="....... ......" data-source-line="16" data-uid="ent0011" id="cluster_....... ......"><path d="M989.5,462.9844 L1088.5,462.9844 A3.75,3.75 0 0 1 1091,465.4844 L1098,483.9688 L1190.5,483.9688 A2.5,2.5 0 0 1 1193,486.4688 L1193,688.4844 A2.5,2.5 0 0 1 1190.5,690.9844 L989.5,690.9844 A2.5,2.5 0 0 1 987,688.4844 L987,465.4844 A2.5,2.5 0 0 1 989.5,462.9844" fill="none" style="stroke:#000000;stroke-width:1.5;"/><line style="stroke:#000000;stroke-width:1.5;" x1="987" x2="1098" y1="483.9688" y2="483.9688"/><text fill="#000000" font-family="sans-serif" font-size="14" font-weight="bold" lengthAdjust="spacing" textLength="98" x="991" y="478.2188">&#1059;&#1088;&#1086;&#1074;&#1077;&#1085;&#1100; &#1076;&#1072;&#1085;&#1085;&#1099;&#1093;</text></g><!--cluster ??????? ???????--><g class="cluster" data-entity="....... ......." data-source-line="21" data-uid="ent0014" id="cluster_....... ......."><path d="M848.3539,330.2095 C852.1781,323.7539 858.3232,325.4047 860.9855,331.3894 C863.3978,325.517 869.3403,323.9367 873.4639,329.5263 C876.4639,322.2315 883.1221,321.311 887.445,328.2245 C890.912,322.5374 894.8571,323.4653 898.1212,328.4279 C902.4571,322.5574 906.5859,321.249 911.33,328.0006 C915.1933,320.4407 919.5085,320.2993 924.4807,326.9763 C928.0402,320.05 935.0633,319.2209 938.7829,326.8187 C943.6177,320.9126 947.6093,321.1746 951.5778,327.7097 C955.3432,321.4129 960.3122,321.8015 964.2221,327.558 C969.2669,320.825 974.8919,322.4115 977.9873,329.4994 C982.3074,322.5548 987.3992,322.3846 991.3952,329.8019 C994.1717,324.0048 999.5364,324.0662 1002.8828,329.2032 C1008.3329,321.9265 1013.0955,323.1843 1017.1139,330.5908 C1021.3948,325.3139 1025.9539,326.124 1028.3186,332.4425 C1035.7504,335.7491 1035.0661,341.0381 1029.3725,345.4113 C1036.4904,347.6243 1035.8941,353.7795 1031.0708,357.6496 C1037.7295,361.7888 1037.0258,366.5379 1030.9213,370.529 C1037.0587,374.6708 1035.6361,378.5604 1030.339,382.1283 C1036.6424,385.7891 1038.0655,391.0757 1030.9785,395.3826 C1036.5897,399.8405 1037.814,405.5558 1030.0365,409.0939 C1026.6155,415.9848 1021.8379,416.0777 1016.5783,411.1957 C1013.5198,416.5241 1008.4482,418.0847 1004.4073,412.2686 C1002.0581,420.167 995.1708,420.3923 990.8281,414.1881 C987.3854,422.0401 980.7043,421.0083 976.697,414.7536 C973.0974,421.64 967.7592,421.0412 964.0273,414.882 C960.4773,420.9028 956.7194,421.7531 951.7917,416.3587 C949.2833,423.6116 943.4151,424.5078 938.8621,418.3265 C933.8592,423.1827 929.7417,423.5469 925.9245,416.9832 C921.4876,423.1481 916.6271,423.5886 912.1341,417.0442 C907.4697,421.7644 902.1334,421.7082 899.2379,415.041 C895.0099,420.6069 889.4057,421.1741 886.2927,413.9156 C880.811,418.8663 876.5422,417.5006 874.0614,410.7726 C870.099,418.1276 865.4084,417.3346 860.9608,411.2453 C855.8557,417.2849 850.7383,415.8568 847.742,409.0716 C841.9245,406.5808 839.0699,402.8155 844.4212,397.2004 C837.4818,393.9522 836.6855,388.4027 842.4332,383.3354 C836.0628,380.3826 834.553,376.002 839.384,370.4073 C833.7207,365.8131 833.7206,359.0878 841.6994,356.8181 C837.1958,351.2155 838.0359,347.2372 844.6341,344.2209 C839.5335,338.815 839.7736,331.9833 848.3539,330.2095" fill="none" style="stroke:#181818;stroke-width:1;"/><text fill="#000000" font-family="sans-serif" font-size="14" font-weight="bold" lengthAdjust="spacing" textLength="105" x="884.5" y="348.2188">&#1042;&#1085;&#1077;&#1096;&#1085;&#1080;&#1077; &#1089;&#1077;&#1088;&#1074;&#1080;&#1089;&#1099;</text></g><!--entity WebUI--><g class="entity" data-entity="WebUI" data-source-line="4" data-uid="ent0003" id="entity_WebUI"><rect fill="#F1F1F1" height="44.9844" rx="2.5" ry="2.5" style="stroke:#181818;stroke-width:0.5;" width="131" x="243.5" y="74.9844"/><rect fill="#F1F1F1" height="10" style="stroke:#181818;stroke-width:0.5;" width="15" x="354.5" y="79.9844"/><rect fill="#F1F1F1" height="2" style="stroke:#181818;stroke-width:0.5;" width="4" x="352.5" y="81.9844"/><rect fill="#F1F1F1" height="2" style="stroke:#181818;stroke-width:0.5;" width="4" x="352.5" y="85.9844"/><text fill="#000000" font-family="sans-serif" font-size="14" lengthAdjust="spacing" textLength="91" x="258.5" y="108.2188">Web-&#1080;&#1085;&#1090;&#1077;&#1088;&#1092;&#1077;&#1081;&#1089;</text></g><!--entity MobileApp--><g class="entity" data-entity="MobileApp" data-source-line="5" data-uid="ent0004" id="entity_MobileApp"><rect fill="#F1F1F1" height="44.9844" rx="2.5" ry="2.5" style="stroke:#181818;stroke-width:0.5;" width="180" x="28" y="74.9844"/><rect fill="#F1F1F1" height="10" style="stroke:#181818;stroke-width:0.5;" width="15" x="188" y="79.9844"/><rect fill="#F1F1F1" height="2" style="stroke:#181818;stroke-width:0.5;" width="4" x="186" y="81.9844"/><rect fill="#F1F1F1" height="2" style="stroke:#181818;stroke-width:0.5;" width="4" x="186" y="85.9844"/><text fill="#000000" font-family="sans-serif" font-size="14" lengthAdjust="spacing" textLength="140" x="43" y="108.2188">&#1052;&#1086;&#1073;&#1080;&#1083;&#1100;&#1085;&#1086;&#1077; &#1087;&#1088;&#1080;&#1083;&#1086;&#1078;&#1077;&#1085;&#1080;&#1077;</text></g><!--entity OrderCtrl--><g class="entity" data-entity="OrderCtrl" data-source-line="9" data-uid="ent0006" id="entity_OrderCtrl"><rect fill="#F1F1F1" height="44.9844" rx="2.5" ry="2.5" style="stroke:#181818;stroke-width:0.5;" width="166" x="22" y="215.9844"/><rect fill="#F1F1F1" height="10" style="stroke:#181818;stroke-width:0.5;" width="15" x="168" y="220.9844"/><rect fill="#F1F1F1" height="2" style="stroke:#181818;stroke-width:0.5;" width="4" x="166" y="222.9844"/><rect fill="#F1F1F1" height="2" style="stroke:#181818;stroke-width:0.5;" width="4" x="166" y="226.9844"/><text fill="#000000" font-family="sans-serif" font-size="14" lengthAdjust="spacing" textLength="126" x="37" y="249.2188">&#1050;&#1086;&#1085;&#1090;&#1088;&#1086;&#1083;&#1083;&#1077;&#1088; &#1079;&#1072;&#1082;&#1072;&#1079;&#1086;&#1074;</text></g><!--entity CompCtrl--><g class="entity" data-entity="CompCtrl" data-source-line="10" data-uid="ent0007" id="entity_CompCtrl"><rect fill="#F1F1F1" height="44.9844" rx="2.5" ry="2.5" style="stroke:#181818;stroke-width:0.5;" width="187" x="223.5" y="215.9844"/><rect fill="#F1F1F1" height="10" style="stroke:#181818;stroke-width:0.5;" width="15" x="390.5" y="220.9844"/><rect fill="#F1F1F1" height="2" style="stroke:#181818;stroke-width:0.5;" width="4" x="388.5" y="222.9844"/><rect fill="#F1F1F1" height="2" style="stroke:#181818;stroke-width:0.5;" width="4" x="388.5" y="226.9844"/><text fill="#000000" font-family="sans-serif" font-size="14" lengthAdjust="spacing" textLength="147" x="238.5" y="249.2188">&#1050;&#1086;&#1085;&#1090;&#1088;&#1086;&#1083;&#1083;&#1077;&#1088; &#1082;&#1086;&#1084;&#1087;&#1086;&#1079;&#1080;&#1094;&#1080;&#1081;</text></g><!--entity FlowerCtrl--><g class="entity" data-entity="FlowerCtrl" data-source-line="11" data-uid="ent0008" id="entity_FlowerCtrl"><rect fill="#F1F1F1" height="44.9844" rx="2.5" ry="2.5" style="stroke:#181818;stroke-width:0.5;" width="159" x="445.5" y="215.9844"/><rect fill="#F1F1F1" height="10" style="stroke:#181818;stroke-width:0.5;" width="15" x="584.5" y="220.9844"/><rect fill="#F1F1F1" height="2" style="stroke:#181818;stroke-width:0.5;" width="4" x="582.5" y="222.9844"/><rect fill="#F1F1F1" height="2" style="stroke:#181818;stroke-width:0.5;" width="4" x="582.5" y="226.9844"/><text fill="#000000" font-family="sans-serif" font-size="14" lengthAdjust="spacing" textLength="119" x="460.5" y="249.2188">&#1050;&#1086;&#1085;&#1090;&#1088;&#1086;&#1083;&#1083;&#1077;&#1088; &#1094;&#1074;&#1077;&#1090;&#1086;&#1074;</text></g><!--entity PriceMod--><g class="entity" data-entity="PriceMod" data-source-line="12" data-uid="ent0009" id="entity_PriceMod"><rect fill="#F1F1F1" height="44.9844" rx="2.5" ry="2.5" style="stroke:#181818;stroke-width:0.5;" width="208" x="192" y="354.9844"/><rect fill="#F1F1F1" height="10" style="stroke:#181818;stroke-width:0.5;" width="15" x="380" y="359.9844"/><rect fill="#F1F1F1" height="2" style="stroke:#181818;stroke-width:0.5;" width="4" x="378" y="361.9844"/><rect fill="#F1F1F1" height="2" style="stroke:#181818;stroke-width:0.5;" width="4" x="378" y="365.9844"/><text fill="#000000" font-family="sans-serif" font-size="14" lengthAdjust="spacing" textLength="168" x="207" y="388.2188">&#1052;&#1086;&#1076;&#1091;&#1083;&#1100; &#1088;&#1072;&#1089;&#1095;&#1077;&#1090;&#1072; &#1089;&#1090;&#1086;&#1080;&#1084;&#1086;&#1089;&#1090;&#1080;</text></g><!--entity ReportMod--><g class="entity" data-entity="ReportMod" data-source-line="13" data-uid="ent0010" id="entity_ReportMod"><rect fill="#F1F1F1" height="44.9844" rx="2.5" ry="2.5" style="stroke:#181818;stroke-width:0.5;" width="159" x="639.5" y="215.9844"/><rect fill="#F1F1F1" height="10" style="stroke:#181818;stroke-width:0.5;" width="15" x="778.5" y="220.9844"/><rect fill="#F1F1F1" height="2" style="stroke:#181818;stroke-width:0.5;" width="4" x="776.5" y="222.9844"/><rect fill="#F1F1F1" height="2" style="stroke:#181818;stroke-width:0.5;" width="4" x="776.5" y="226.9844"/><text fill="#000000" font-family="sans-serif" font-size="14" lengthAdjust="spacing" textLength="119" x="654.5" y="249.2188">&#1052;&#1086;&#1076;&#1091;&#1083;&#1100; &#1086;&#1090;&#1095;&#1077;&#1090;&#1085;&#1086;&#1089;&#1090;&#1080;</text></g><!--entity TransMgr--><g class="entity" data-entity="TransMgr" data-source-line="17" data-uid="ent0012" id="entity_TransMgr"><rect fill="#F1F1F1" height="44.9844" rx="2.5" ry="2.5" style="stroke:#181818;stroke-width:0.5;" width="173" x="1003.5" y="495.9844"/><rect fill="#F1F1F1" height="10" style="stroke:#181818;stroke-width:0.5;" width="15" x="1156.5" y="500.9844"/><rect fill="#F1F1F1" height="2" style="stroke:#181818;stroke-width:0.5;" width="4" x="1154.5" y="502.9844"/><rect fill="#F1F1F1" height="2" style="stroke:#181818;stroke-width:0.5;" width="4" x="1154.5" y="506.9844"/><text fill="#000000" font-family="sans-serif" font-size="14" lengthAdjust="spacing" textLength="133" x="1018.5" y="529.2188">&#1052;&#1077;&#1085;&#1077;&#1076;&#1078;&#1077;&#1088; &#1090;&#1088;&#1072;&#1085;&#1079;&#1072;&#1082;&#1094;&#1080;&#1081;</text></g><!--entity DB--><g class="entity" data-entity="DB" data-source-line="18" data-uid="ent0013" id="entity_DB"><path d="M1038,625.9844 C1038,615.9844 1090,615.9844 1090,615.9844 C1090,615.9844 1142,615.9844 1142,625.9844 L1142,664.9531 C1142,674.9531 1090,674.9531 1090,674.9531 C1090,674.9531 1038,674.9531 1038,664.9531 L1038,625.9844" fill="#F1F1F1" style="stroke:#181818;stroke-width:0.5;"/><path d="M1038,625.9844 C1038,635.9844 1090,635.9844 1090,635.9844 C1090,635.9844 1142,635.9844 1142,625.9844" fill="none" style="stroke:#181818;stroke-width:0.5;"/><text fill="#000000" font-family="sans-serif" font-size="14" lengthAdjust="spacing" textLength="70" x="1048" y="653.2188">PostgreSQL</text><text fill="#000000" font-family="sans-serif" font-size="14" lengthAdjust="spacing" textLength="84" x="1048" y="668.2031">&#1041;&#1044; &#1054;&#1088;&#1072;&#1085;&#1078;&#1077;&#1088;&#1077;&#1103;</text></g><!--entity NotifySvc--><g class="entity" data-entity="NotifySvc" data-source-line="22" data-uid="ent0015" id="entity_NotifySvc"><rect fill="#F1F1F1" height="44.9844" rx="2.5" ry="2.5" style="stroke:#181818;stroke-width:0.5;" width="166" x="854" y="354.9844"/><rect fill="#F1F1F1" height="10" style="stroke:#181818;stroke-width:0.5;" width="15" x="1000" y="359.9844"/><rect fill="#F1F1F1" height="2" style="stroke:#181818;stroke-width:0.5;" width="4" x="998" y="361.9844"/><rect fill="#F1F1F1" height="2" style="stroke:#181818;stroke-width:0.5;" width="4" x="998" y="365.9844"/><text fill="#000000" font-family="sans-serif" font-size="14" lengthAdjust="spacing" textLength="126" x="869" y="388.2188">&#1057;&#1077;&#1088;&#1074;&#1080;&#1089; &#1091;&#1074;&#1077;&#1076;&#1086;&#1084;&#1083;&#1077;&#1085;&#1080;&#1081;</text></g><!--link WebUI to OrderCtrl--><g class="link" data-entity-1="WebUI" data-entity-2="OrderCtrl" data-source-line="26" data-uid="lnk16" id="link_WebUI_OrderCtrl"><path d="M277.12,120.2044 C238.8,146.3144 179.8389,186.4966 141.6089,212.5366" fill="none" id="WebUI-to-OrderCtrl" style="stroke:#181818;stroke-width:1;"/><polygon fill="#181818" points="136.65,215.9144,146.3402,214.1537,140.7824,213.0996,141.8366,207.5418,136.65,215.9144" style="stroke:#181818;stroke-width:1;"/><text fill="#000000" font-family="sans-serif" font-size="13" lengthAdjust="spacing" textLength="58.5" x="226" y="165.2734">HTTP REST</text></g><!--link MobileApp to OrderCtrl--><g class="link" data-entity-1="MobileApp" data-entity-2="OrderCtrl" data-source-line="27" data-uid="lnk17" id="link_MobileApp_OrderCtrl"><path d="M114.88,120.0544 C113.55,129.7944 112.06,141.4544 111,151.9844 C108.83,173.6044 107.5299,192.3846 106.5199,209.6746" fill="none" id="MobileApp-to-OrderCtrl" style="stroke:#181818;stroke-width:1;"/><polygon fill="#181818" points="106.17,215.6644,110.688,206.913,106.4616,210.6729,102.7016,206.4464,106.17,215.6644" style="stroke:#181818;stroke-width:1;"/><text fill="#000000" font-family="sans-serif" font-size="13" lengthAdjust="spacing" textLength="58.5" x="112" y="165.2734">HTTP REST</text></g><!--link WebUI to CompCtrl--><g class="link" data-entity-1="WebUI" data-entity-2="CompCtrl" data-source-line="28" data-uid="lnk18" id="link_WebUI_CompCtrl"><path d="M310.25,120.2044 C311.75,146.3144 313.9149,183.8843 315.4149,209.9243" fill="none" id="WebUI-to-CompCtrl" style="stroke:#181818;stroke-width:1;"/><polygon fill="#181818" points="315.76,215.9144,319.2358,206.6992,315.4725,210.9226,311.249,207.1593,315.76,215.9144" style="stroke:#181818;stroke-width:1;"/><text fill="#000000" font-family="sans-serif" font-size="13" lengthAdjust="spacing" textLength="58.5" x="313" y="165.2734">HTTP REST</text></g><!--link WebUI to FlowerCtrl--><g class="link" data-entity-1="WebUI" data-entity-2="FlowerCtrl" data-source-line="29" data-uid="lnk19" id="link_WebUI_FlowerCtrl"><path d="M342.6,120.0744 C366.44,135.3944 399.19,156.4444 428,174.9844 C449.06,188.5344 467.6371,200.5033 486.2971,212.5333" fill="none" id="WebUI-to-FlowerCtrl" style="stroke:#181818;stroke-width:1;"/><polygon fill="#181818" points="491.34,215.7844,485.9431,207.5458,487.1376,213.0751,481.6083,214.2696,491.34,215.7844" style="stroke:#181818;stroke-width:1;"/><text fill="#000000" font-family="sans-serif" font-size="13" lengthAdjust="spacing" textLength="58.5" x="416" y="165.2734">HTTP REST</text></g><!--link OrderCtrl to PriceMod--><g class="link" data-entity-1="OrderCtrl" data-entity-2="PriceMod" data-source-line="31" data-uid="lnk20" id="link_OrderCtrl_PriceMod"><path d="M135.26,261.1944 C171.03,286.8444 225.2943,325.7677 261.0043,351.3777" fill="none" id="OrderCtrl-to-PriceMod" style="stroke:#181818;stroke-width:1;"/><polygon fill="#181818" points="265.88,354.8744,260.8975,346.3788,261.8169,351.9604,256.2352,352.8798,265.88,354.8744" style="stroke:#181818;stroke-width:1;"/><text fill="#000000" font-family="sans-serif" font-size="13" lengthAdjust="spacing" textLength="65" x="195" y="304.2734">&#1080;&#1089;&#1087;&#1086;&#1083;&#1100;&#1079;&#1091;&#1077;&#1090;</text></g><!--link OrderCtrl to TransMgr--><g class="link" data-entity-1="OrderCtrl" data-entity-2="TransMgr" data-source-line="32" data-uid="lnk21" id="link_OrderCtrl_TransMgr"><path d="M188.05,257.8144 C251.33,272.1244 340.48,293.0444 418,313.9844 C447.86,322.0544 847.1802,443.5366 1013.6202,494.2166" fill="none" id="OrderCtrl-to-TransMgr" style="stroke:#181818;stroke-width:1;"/><polygon fill="#181818" points="1019.36,495.9644,1011.9154,489.5162,1014.5768,494.5079,1009.5851,497.1693,1019.36,495.9644" style="stroke:#181818;stroke-width:1;"/><text fill="#000000" font-family="sans-serif" font-size="13" lengthAdjust="spacing" textLength="52" x="779" y="383.2734">&#1074;&#1099;&#1079;&#1099;&#1074;&#1072;&#1077;&#1090;</text></g><!--link CompCtrl to TransMgr--><g class="link" data-entity-1="CompCtrl" data-entity-2="TransMgr" data-source-line="33" data-uid="lnk22" id="link_CompCtrl_TransMgr"><path d="M410.73,258.5344 C416.56,259.4444 422.35,260.2744 428,260.9844 C495.28,269.4644 987.01,267.0944 1036,313.9844 C1087.09,362.8944 1091.9081,448.1253 1091.1581,489.7653" fill="none" id="CompCtrl-to-TransMgr" style="stroke:#181818;stroke-width:1;"/><polygon fill="#181818" points="1091.05,495.7644,1095.2114,486.8379,1091.14,490.7652,1087.2127,486.6938,1091.05,495.7644" style="stroke:#181818;stroke-width:1;"/><text fill="#000000" font-family="sans-serif" font-size="13" lengthAdjust="spacing" textLength="52" x="1086" y="383.2734">&#1074;&#1099;&#1079;&#1099;&#1074;&#1072;&#1077;&#1090;</text></g><!--link FlowerCtrl to TransMgr--><g class="link" data-entity-1="FlowerCtrl" data-entity-2="TransMgr" data-source-line="34" data-uid="lnk23" id="link_FlowerCtrl_TransMgr"><path d="M604.75,258.2044 C610.57,259.2444 616.36,260.1944 622,260.9844 C730.91,276.2644 1011.42,256.9544 1116,290.9844 C1134.05,296.8544 1142.88,297.3344 1152,313.9844 C1175.49,356.8644 1166.11,377.1744 1152,423.9844 C1143.74,451.3944 1128.3642,473.5476 1113.4942,491.3676" fill="none" id="FlowerCtrl-to-TransMgr" style="stroke:#181818;stroke-width:1;"/><polygon fill="#181818" points="1109.65,495.9744,1118.4874,491.627,1112.8535,492.1354,1112.345,486.5014,1109.65,495.9744" style="stroke:#181818;stroke-width:1;"/><text fill="#000000" font-family="sans-serif" font-size="13" lengthAdjust="spacing" textLength="52" x="1167" y="383.2734">&#1074;&#1099;&#1079;&#1099;&#1074;&#1072;&#1077;&#1090;</text></g><!--link PriceMod to TransMgr--><g class="link" data-entity-1="PriceMod" data-entity-2="TransMgr" data-source-line="36" data-uid="lnk24" id="link_PriceMod_TransMgr"><path d="M384.3,400.0544 C445.46,414.5244 528.88,433.3744 603,446.9844 C742.48,472.6044 899.8873,493.8926 997.5173,506.2226" fill="none" id="PriceMod-to-TransMgr" style="stroke:#181818;stroke-width:1;"/><polygon fill="#181818" points="1003.47,506.9744,995.0421,501.8782,998.5094,506.3479,994.0397,509.8152,1003.47,506.9744" style="stroke:#181818;stroke-width:1;"/><text fill="#000000" font-family="sans-serif" font-size="13" lengthAdjust="spacing" textLength="71.5" x="604" y="445.2734">&#1095;&#1080;&#1090;&#1072;&#1077;&#1090; &#1094;&#1077;&#1085;&#1099;</text></g><!--link ReportMod to TransMgr--><g class="link" data-entity-1="ReportMod" data-entity-2="TransMgr" data-source-line="37" data-uid="lnk25" id="link_ReportMod_TransMgr"><path d="M798.66,242.8244 C923.85,248.8244 1160.56,263.4644 1240,290.9844 C1257.94,297.2044 1266.88,297.3344 1276,313.9844 C1299.49,356.8644 1299.49,381.1044 1276,423.9844 C1255.6,461.2344 1220.3875,481.9581 1182.1475,495.6781" fill="none" id="ReportMod-to-TransMgr" style="stroke:#181818;stroke-width:1;"/><polygon fill="#181818" points="1176.5,497.7044,1186.3221,498.43,1181.2063,496.0158,1183.6204,490.9,1176.5,497.7044" style="stroke:#181818;stroke-width:1;"/><text fill="#000000" font-family="sans-serif" font-size="13" lengthAdjust="spacing" textLength="104" x="1294" y="383.2734">&#1092;&#1086;&#1088;&#1084;&#1080;&#1088;&#1091;&#1077;&#1090; &#1086;&#1090;&#1095;&#1077;&#1090;&#1099;</text></g><!--link TransMgr to DB--><g class="link" data-entity-1="TransMgr" data-entity-2="DB" data-source-line="38" data-uid="lnk26" id="link_TransMgr_DB"><path d="M1090,541.2544 C1090,561.9644 1090,587.2244 1090,609.9244" fill="none" id="TransMgr-to-DB" style="stroke:#181818;stroke-width:1;"/><polygon fill="#181818" points="1090,615.9244,1094,606.9244,1090,610.9244,1086,606.9244,1090,615.9244" style="stroke:#181818;stroke-width:1;"/><text fill="#000000" font-family="sans-serif" font-size="13" lengthAdjust="spacing" textLength="71.5" x="1091" y="584.2734">SQL &#1079;&#1072;&#1087;&#1088;&#1086;&#1089;&#1099;</text></g><!--link OrderCtrl to NotifySvc--><g class="link" data-entity-1="OrderCtrl" data-entity-2="NotifySvc" data-source-line="40" data-uid="lnk27" id="link_OrderCtrl_NotifySvc"><path d="M188.05,258.2144 C194.11,259.2544 200.14,260.1944 206,260.9844 C436.31,291.9344 498.56,254.1044 728,290.9844 C767.06,297.2644 777.05,299.8344 814,313.9844 C843.75,325.3744 870.5321,338.9139 894.4521,352.0639" fill="none" id="OrderCtrl-to-NotifySvc" style="stroke:#181818;stroke-width:1;"/><polygon fill="#181818" points="899.71,354.9544,893.7502,347.1134,895.3285,352.5456,889.8962,354.1239,899.71,354.9544" style="stroke:#181818;stroke-width:1;"/><text fill="#000000" font-family="sans-serif" font-size="13" lengthAdjust="spacing" textLength="130" x="792" y="304.2734">&#1086;&#1090;&#1087;&#1088;&#1072;&#1074;&#1082;&#1072; &#1091;&#1074;&#1077;&#1076;&#1086;&#1084;&#1083;&#1077;&#1085;&#1080;&#1081;</text></g><!--SRC=[XLJBRjD05DtxAqRPiCeFi43g0mGIWT04iG0MJk964Q6s70D222b9IukKIb5HLwX2YlY1OkhOJPhq5-xy4UTUExOJsYQHhV7CENFFd7jih-MrBKMd5D4v_TLTtA_mFrSqeJa6rxZFAA2PxcFagwAY4KMwXyT0S7gVheNcqvHnM1mgVOZ7W2dw25DpkbGOCcf6OonqWGpeqZ0Si_xER5ggG3z1Z-92keVY4JXw7yWvRuNfuuBwOYZyNh-oQaMiioHifGzuAzrxgyoEmjBB9p6Apa3z0znK7uk6G8bIJE1X76kbG6WbkzPgMnkEOtpDQng9L5_kCpsuNH7KpqKvBqxP2DrL5EAy4rmXCwJESxTXkLkUsxwBbXaVmin3TaB8M_PxPmqtypqf-AXjVrggoAPSe6SmHN53qCaZOQ2JFI56A3wNSIHRbDrMtIhPZHis0AwVq6TBd1tBiLsFIKj-_iwRf-X2yW1ZzRVCoJDfJ835SNoaVf8RSJDdHzKrzpgbfYkyXkcPDRE38cMxupLTg_BYwPizEg5JHR-MWwU71QPlRxAsUjl-q82o7rnJVuyZ0IUIndFG1vcsKJRDkVT59ZShINwYx9djjNO_LpxMkS8zVc5yFUHc6X9FLIm-o9AWxgl7rMfPxJoiL8qqXtTWiZqMWRXbEUlz4i38jcNKeht0yBaaT_p6X3WW6hk2NfZEQ1zlH8ZBXxkCJEMi0-Q4hOCQgRmL968NSMePnR7dI0sCD7V_mG_a-tC5KZS-M2wy8APGvcrlWe40nMymVpCusuDLvz8sit1ibdu79_5dyOPu_0C0]--></g></svg>