<svg xmlns="http://www.w3.org/2000/svg" xmlns:xlink="http://www.w3.org/1999/xlink" contentStyleType="text/css" data-diagram-type="SEQUENCE" height="1121px" preserveAspectRatio="none" style="width:772px;height:1121px;background:#FFFFFF;" version="1.1" viewBox="0 0 772 1121" width="772px" zoomAndPan="magnify"><title>&#1044;&#1080;&#1072;&#1075;&#1088;&#1072;&#1084;&#1084;&#1072; &#1087;&#1086;&#1089;&#1083;&#1077;&#1076;&#1086;&#1074;&#1072;&#1090;&#1077;&#1083;&#1100;&#1085;&#1086;&#1089;&#1090;&#1080; - &#1060;&#1086;&#1088;&#1084;&#1080;&#1088;&#1086;&#1074;&#1072;&#1085;&#1080;&#1077; &#1080; &#1074;&#1099;&#1087;&#1086;&#1083;&#1085;&#1077;&#1085;&#1080;&#1077; &#1079;&#1072;&#1082;&#1072;&#1079;&#1072;</title><defs/><g><text fill="#000000" font-family="sans-serif" font-size="14" font-weight="bold" lengthAdjust="spacing" textLength="441" x="161.5" y="28.2344">&#1044;&#1080;&#1072;&#1075;&#1088;&#1072;&#1084;&#1084;&#1072; &#1087;&#1086;&#1089;&#1083;&#1077;&#1076;&#1086;&#1074;&#1072;&#1090;&#1077;&#1083;&#1100;&#1085;&#1086;&#1089;&#1090;&#1080; - &#1060;&#1086;&#1088;&#1084;&#1080;&#1088;&#1086;&#1074;&#1072;&#1085;&#1080;&#1077; &#1080; &#1074;&#1099;&#1087;&#1086;&#1083;&#1085;&#1077;&#1085;&#1080;&#1077; &#1079;&#1072;&#1082;&#1072;&#1079;&#1072;</text><g><title>Web-..........</title><rect fill="#FFFFFF" height="529.2813" style="stroke:#181818;stroke-width:1;" width="10" x="218" y="201.7109"/></g><g><title>Web-..........</title><rect fill="#FFFFFF" height="83.7422" style="stroke:#181818;stroke-width:1;" width="10" x="218" y="800.8203"/></g><g><title>Web-..........</title><rect fill="#FFFFFF" height="83.7422" style="stroke:#181818;stroke-width:1;" width="10" x="218" y="912.4766"/></g><g><title>.. .........</title><rect fill="#FFFFFF" height="27.9141" style="stroke:#181818;stroke-width:1;" width="10" x="377" y="243.5391"/></g><g><title>.. .........</title><rect fill="#FFFFFF" height="27.9141" style="stroke:#181818;stroke-width:1;" width="10" x="377" y="508.6797"/></g><g><title>.. .........</title><rect fill="#FFFFFF" height="27.9141" style="stroke:#181818;stroke-width:1;" width="10" x="377" y="633.3359"/></g><g><title>.. .........</title><rect fill="#FFFFFF" height="27.9141" style="stroke:#181818;stroke-width:1;" width="10" x="377" y="828.7344"/></g><g><title>.. .........</title><rect fill="#FFFFFF" height="27.9141" style="stroke:#181818;stroke-width:1;" width="10" x="377" y="940.3906"/></g><g><title>.......</title><rect fill="#FFFFFF" height="27.9141" style="stroke:#181818;stroke-width:1;" width="10" x="555.5" y="299.3672"/></g><g><title>.......</title><rect fill="#FFFFFF" height="124.6563" style="stroke:#181818;stroke-width:1;" width="10" x="555.5" y="480.7656"/></g><g><title>..........</title><rect fill="#000000" fill-opacity="0.00000" height="926.1641" width="8" x="39" y="115.9688"/><line style="stroke:#181818;stroke-width:0.5;stroke-dasharray:5,5;" x1="43" x2="43" y1="115.9688" y2="1042.1328"/></g><g><title>Web-..........</title><rect fill="#000000" fill-opacity="0.00000" height="926.1641" width="8" x="219" y="115.9688"/><line style="stroke:#181818;stroke-width:0.5;stroke-dasharray:5,5;" x1="223" x2="223" y1="115.9688" y2="1042.1328"/></g><g><title>.. .........</title><rect fill="#000000" fill-opacity="0.00000" height="926.1641" width="8" x="378" y="115.9688"/><line style="stroke:#181818;stroke-width:0.5;stroke-dasharray:5,5;" x1="382" x2="382" y1="115.9688" y2="1042.1328"/></g><g><title>.......</title><rect fill="#000000" fill-opacity="0.00000" height="926.1641" width="8" x="556.5" y="115.9688"/><line style="stroke:#181818;stroke-width:0.5;stroke-dasharray:5,5;" x1="560" x2="560" y1="115.9688" y2="1042.1328"/></g><g><title>.............</title><rect fill="#000000" fill-opacity="0.00000" height="926.1641" width="8" x="707.5" y="115.9688"/><line style="stroke:#181818;stroke-width:0.5;stroke-dasharray:5,5;" x1="711" x2="711" y1="115.9688" y2="1042.1328"/></g><g class="participant participant-head" data-participant="Buyer"><text fill="#000000" font-family="sans-serif" font-size="14" lengthAdjust="spacing" textLength="70" x="5" y="114.2188">&#1055;&#1086;&#1082;&#1091;&#1087;&#1072;&#1090;&#1077;&#1083;&#1100;</text><ellipse cx="43" cy="49.4844" fill="#E2E2F0" rx="8" ry="8" style="stroke:#181818;stroke-width:0.5;"/><path d="M43,57.4844 L43,84.4844 M30,65.4844 L56,65.4844 M43,84.4844 L30,99.4844 M43,84.4844 L56,99.4844" fill="none" style="stroke:#181818;stroke-width:0.5;"/></g><g class="participant participant-tail" data-participant="Buyer"><text fill="#000000" font-family="sans-serif" font-size="14" lengthAdjust="spacing" textLength="70" x="5" y="1054.3672">&#1055;&#1086;&#1082;&#1091;&#1087;&#1072;&#1090;&#1077;&#1083;&#1100;</text><ellipse cx="43" cy="1064.6172" fill="#E2E2F0" rx="8" ry="8" style="stroke:#181818;stroke-width:0.5;"/><path d="M43,1072.6172 L43,1099.6172 M30,1080.6172 L56,1080.6172 M43,1099.6172 L30,1114.6172 M43,1099.6172 L56,1114.6172" fill="none" style="stroke:#181818;stroke-width:0.5;"/></g><g class="participant participant-head" data-participant="Web"><rect fill="#E2E2F0" height="28.9844" rx="2.5" ry="2.5" style="stroke:#181818;stroke-width:0.5;" width="112" x="167" y="85.9844"/><text fill="#000000" font-family="sans-serif" font-size="14" lengthAdjust="spacing" textLength="98" x="174" y="106.2188">Web-&#1055;&#1088;&#1080;&#1083;&#1086;&#1078;&#1077;&#1085;&#1080;&#1077;</text></g><g class="participant participant-tail" data-participant="Web"><rect fill="#E2E2F0" height="28.9844" rx="2.5" ry="2.5" style="stroke:#181818;stroke-width:0.5;" width="112" x="167" y="1041.1328"/><text fill="#000000" font-family="sans-serif" font-size="14" lengthAdjust="spacing" textLength="98" x="174" y="1061.3672">Web-&#1055;&#1088;&#1080;&#1083;&#1086;&#1078;&#1077;&#1085;&#1080;&#1077;</text></g><g class="participant participant-head" data-participant="DB"><text fill="#000000" font-family="sans-serif" font-size="14" lengthAdjust="spacing" textLength="84" x="337" y="114.2188">&#1041;&#1044; &#1054;&#1088;&#1072;&#1085;&#1078;&#1077;&#1088;&#1077;&#1080;</text><path d="M364,64.9844 C364,54.9844 382,54.9844 382,54.9844 C382,54.9844 400,54.9844 400,64.9844 L400,90.9844 C400,100.9844 382,100.9844 382,100.9844 C382,100.9844 364,100.9844 364,90.9844 L364,64.9844" fill="#E2E2F0" style="stroke:#181818;stroke-width:0.5;"/><path d="M364,64.9844 C364,74.9844 382,74.9844 382,74.9844 C382,74.9844 400,74.9844 400,64.9844" fill="none" style="stroke:#181818;stroke-width:0.5;"/></g><g class="participant participant-tail" data-participant="DB"><text fill="#000000" font-family="sans-serif" font-size="14" lengthAdjust="spacing" textLength="84" x="337" y="1054.3672">&#1041;&#1044; &#1054;&#1088;&#1072;&#1085;&#1078;&#1077;&#1088;&#1077;&#1080;</text><path d="M364,1066.1172 C364,1056.1172 382,1056.1172 382,1056.1172 C382,1056.1172 400,1056.1172 400,1066.1172 L400,1092.1172 C400,1102.1172 382,1102.1172 382,1102.1172 C382,1102.1172 364,1102.1172 364,1092.1172 L364,1066.1172" fill="#E2E2F0" style="stroke:#181818;stroke-width:0.5;"/><path d="M364,1066.1172 C364,1076.1172 382,1076.1172 382,1076.1172 C382,1076.1172 400,1076.1172 400,1066.1172" fill="none" style="stroke:#181818;stroke-width:0.5;"/></g><g class="participant participant-head" data-participant="Calc"><rect fill="#E2E2F0" height="43.9688" rx="2.5" ry="2.5" style="stroke:#181818;stroke-width:0.5;" width="63" x="529" y="71"/><text fill="#000000" font-family="sans-serif" font-size="14" lengthAdjust="spacing" textLength="49" x="536" y="91.2344">&#1057;&#1080;&#1089;&#1090;&#1077;&#1084;&#1072;</text><text fill="#000000" font-family="sans-serif" font-size="14" lengthAdjust="spacing" textLength="49" x="536" y="106.2188">&#1088;&#1072;&#1089;&#1095;&#1077;&#1090;&#1072;</text></g><g class="participant participant-tail" data-participant="Calc"><rect fill="#E2E2F0" height="43.9688" rx="2.5" ry="2.5" style="stroke:#181818;stroke-width:0.5;" width="63" x="529" y="1041.1328"/><text fill="#000000" font-family="sans-serif" font-size="14" lengthAdjust="spacing" textLength="49" x="536" y="1061.3672">&#1057;&#1080;&#1089;&#1090;&#1077;&#1084;&#1072;</text><text fill="#000000" font-family="sans-serif" font-size="14" lengthAdjust="spacing" textLength="49" x="536" y="1076.3516">&#1088;&#1072;&#1089;&#1095;&#1077;&#1090;&#1072;</text></g><g class="participant participant-head" data-participant="Admin"><text fill="#000000" font-family="sans-serif" font-size="14" lengthAdjust="spacing" textLength="91" x="663" y="114.2188">&#1040;&#1076;&#1084;&#1080;&#1085;&#1080;&#1089;&#1090;&#1088;&#1072;&#1090;&#1086;&#1088;</text><ellipse cx="711.5" cy="49.4844" fill="#E2E2F0" rx="8" ry="8" style="stroke:#181818;stroke-width:0.5;"/><path d="M711.5,57.4844 L711.5,84.4844 M698.5,65.4844 L724.5,65.4844 M711.5,84.4844 L698.5,99.4844 M711.5,84.4844 L724.5,99.4844" fill="none" style="stroke:#181818;stroke-width:0.5;"/></g><g class="participant participant-tail" data-participant="Admin"><text fill="#000000" font-family="sans-serif" font-size="14" lengthAdjust="spacing" textLength="91" x="663" y="1054.3672">&#1040;&#1076;&#1084;&#1080;&#1085;&#1080;&#1089;&#1090;&#1088;&#1072;&#1090;&#1086;&#1088;</text><ellipse cx="711.5" cy="1064.6172" fill="#E2E2F0" rx="8" ry="8" style="stroke:#181818;stroke-width:0.5;"/><path d="M711.5,1072.6172 L711.5,1099.6172 M698.5,1080.6172 L724.5,1080.6172 M711.5,1099.6172 L698.5,1114.6172 M711.5,1099.6172 L724.5,1114.6172" fill="none" style="stroke:#181818;stroke-width:0.5;"/></g><g><title>Web-..........</title><rect fill="#FFFFFF" height="529.2813" style="stroke:#181818;stroke-width:1;" width="10" x="218" y="201.7109"/></g><g><title>Web-..........</title><rect fill="#FFFFFF" height="83.7422" style="stroke:#181818;stroke-width:1;" width="10" x="218" y="800.8203"/></g><g><title>Web-..........</title><rect fill="#FFFFFF" height="83.7422" style="stroke:#181818;stroke-width:1;" width="10" x="218" y="912.4766"/></g><g><title>.. .........</title><rect fill="#FFFFFF" height="27.9141" style="stroke:#181818;stroke-width:1;" width="10" x="377" y="243.5391"/></g><g><title>.. .........</title><rect fill="#FFFFFF" height="27.9141" style="stroke:#181818;stroke-width:1;" width="10" x="377" y="508.6797"/></g><g><title>.. .........</title><rect fill="#FFFFFF" height="27.9141" style="stroke:#181818;stroke-width:1;" width="10" x="377" y="633.3359"/></g><g><title>.. .........</title><rect fill="#FFFFFF" height="27.9141" style="stroke:#181818;stroke-width:1;" width="10" x="377" y="828.7344"/></g><g><title>.. .........</title><rect fill="#FFFFFF" height="27.9141" style="stroke:#181818;stroke-width:1;" width="10" x="377" y="940.3906"/></g><g><title>.......</title><rect fill="#FFFFFF" height="27.9141" style="stroke:#181818;stroke-width:1;" width="10" x="555.5" y="299.3672"/></g><g><title>.......</title><rect fill="#FFFFFF" height="124.6563" style="stroke:#181818;stroke-width:1;" width="10" x="555.5" y="480.7656"/></g><rect fill="#EEEEEE" height="3" style="stroke:#EEEEEE;stroke-width:1;" width="765" x="0" y="145.9258"/><line style="stroke:#000000;stroke-width:1;" x1="0" x2="765" y1="145.9258" y2="145.9258"/><line style="stroke:#000000;stroke-width:1;" x1="0" x2="765" y1="148.9258" y2="148.9258"/><rect fill="#EEEEEE" height="21.9141" style="stroke:#000000;stroke-width:2;" width="144" x="310.5" y="135.9688"/><text fill="#000000" font-family="sans-serif" font-size="13" font-weight="bold" lengthAdjust="spacing" textLength="123.5" x="316.5" y="152.2578">&#1060;&#1086;&#1088;&#1084;&#1080;&#1088;&#1086;&#1074;&#1072;&#1085;&#1080;&#1077; &#1079;&#1072;&#1082;&#1072;&#1079;&#1072;</text><g class="message" data-participant-1="Buyer" data-participant-2="Web"><polygon fill="#181818" points="206,197.7109,216,201.7109,206,205.7109,210,201.7109" style="stroke:#181818;stroke-width:1;"/><line style="stroke:#181818;stroke-width:1;" x1="43" x2="212" y1="201.7109" y2="201.7109"/><text fill="#000000" font-family="sans-serif" font-size="13" lengthAdjust="spacing" textLength="110.5" x="50" y="184.1719">&#1042;&#1099;&#1073;&#1086;&#1088; &#1082;&#1086;&#1084;&#1087;&#1086;&#1079;&#1080;&#1094;&#1080;&#1080;,</text><text fill="#000000" font-family="sans-serif" font-size="13" lengthAdjust="spacing" textLength="123.5" x="50" y="198.0859">&#1091;&#1082;&#1072;&#1079;&#1072;&#1085;&#1080;&#1077; &#1082;&#1086;&#1083;&#1080;&#1095;&#1077;&#1089;&#1090;&#1074;&#1072;</text></g><g class="message" data-participant-1="Web" data-participant-2="DB"><polygon fill="#181818" points="365,239.5391,375,243.5391,365,247.5391,369,243.5391" style="stroke:#181818;stroke-width:1;"/><line style="stroke:#181818;stroke-width:1;" x1="228" x2="371" y1="243.5391" y2="243.5391"/><text fill="#000000" font-family="sans-serif" font-size="13" lengthAdjust="spacing" textLength="117" x="235" y="226">SELECT &#1082;&#1086;&#1084;&#1087;&#1086;&#1079;&#1080;&#1094;&#1080;&#1103;,</text><text fill="#000000" font-family="sans-serif" font-size="13" lengthAdjust="spacing" textLength="71.5" x="235" y="239.9141">&#1094;&#1074;&#1077;&#1090;&#1099;, &#1094;&#1077;&#1085;&#1099;</text></g><g class="message" data-participant-1="DB" data-participant-2="Web"><polygon fill="#181818" points="239,267.4531,229,271.4531,239,275.4531,235,271.4531" style="stroke:#181818;stroke-width:1;"/><line style="stroke:#181818;stroke-width:1;stroke-dasharray:2,2;" x1="233" x2="381" y1="271.4531" y2="271.4531"/><text fill="#000000" font-family="sans-serif" font-size="13" lengthAdjust="spacing" textLength="123.5" x="245" y="267.8281">&#1044;&#1072;&#1085;&#1085;&#1099;&#1077; &#1086; &#1082;&#1086;&#1084;&#1087;&#1086;&#1079;&#1080;&#1094;&#1080;&#1080;</text></g><g class="message" data-participant-1="Web" data-participant-2="Calc"><polygon fill="#181818" points="543.5,295.3672,553.5,299.3672,543.5,303.3672,547.5,299.3672" style="stroke:#181818;stroke-width:1;"/><line style="stroke:#181818;stroke-width:1;" x1="228" x2="549.5" y1="299.3672" y2="299.3672"/><text fill="#000000" font-family="sans-serif" font-size="13" lengthAdjust="spacing" textLength="156" x="235" y="295.7422">&#1056;&#1072;&#1089;&#1095;&#1077;&#1090; &#1073;&#1072;&#1079;&#1086;&#1074;&#1086;&#1081; &#1089;&#1090;&#1086;&#1080;&#1084;&#1086;&#1089;&#1090;&#1080;</text></g><g class="message" data-participant-1="Calc" data-participant-2="Web"><polygon fill="#181818" points="239,323.2813,229,327.2813,239,331.2813,235,327.2813" style="stroke:#181818;stroke-width:1;"/><line style="stroke:#181818;stroke-width:1;stroke-dasharray:2,2;" x1="233" x2="559.5" y1="327.2813" y2="327.2813"/><text fill="#000000" font-family="sans-serif" font-size="13" lengthAdjust="spacing" textLength="110.5" x="245" y="323.6563">&#1041;&#1072;&#1079;&#1086;&#1074;&#1072;&#1103; &#1089;&#1090;&#1086;&#1080;&#1084;&#1086;&#1089;&#1090;&#1100;</text></g><g class="message" data-participant-1="Web" data-participant-2="Buyer"><polygon fill="#181818" points="54,365.1094,44,369.1094,54,373.1094,50,369.1094" style="stroke:#181818;stroke-width:1;"/><line style="stroke:#181818;stroke-width:1;stroke-dasharray:2,2;" x1="48" x2="217" y1="369.1094" y2="369.1094"/><text fill="#000000" font-family="sans-serif" font-size="13" lengthAdjust="spacing" textLength="143" x="60" y="351.5703">&#1054;&#1090;&#1086;&#1073;&#1088;&#1072;&#1078;&#1077;&#1085;&#1080;&#1077; &#1080;&#1085;&#1092;&#1086;&#1088;&#1084;&#1072;&#1094;&#1080;&#1080;</text><text fill="#000000" font-family="sans-serif" font-size="13" lengthAdjust="spacing" textLength="123.5" x="60" y="365.4844">&#1086; &#1082;&#1086;&#1084;&#1087;&#1086;&#1079;&#1080;&#1094;&#1080;&#1080; &#1080; &#1094;&#1077;&#1085;&#1077;</text></g><rect fill="#EEEEEE" height="3" style="stroke:#EEEEEE;stroke-width:1;" width="765" x="0" y="397.0664"/><line style="stroke:#000000;stroke-width:1;" x1="0" x2="765" y1="397.0664" y2="397.0664"/><line style="stroke:#000000;stroke-width:1;" x1="0" x2="765" y1="400.0664" y2="400.0664"/><rect fill="#EEEEEE" height="21.9141" style="stroke:#000000;stroke-width:2;" width="131" x="317" y="387.1094"/><text fill="#000000" font-family="sans-serif" font-size="13" font-weight="bold" lengthAdjust="spacing" textLength="110.5" x="323" y="403.3984">&#1054;&#1092;&#1086;&#1088;&#1084;&#1083;&#1077;&#1085;&#1080;&#1077; &#1079;&#1072;&#1082;&#1072;&#1079;&#1072;</text><g class="message" data-participant-1="Buyer" data-participant-2="Web"><polygon fill="#181818" points="206,448.8516,216,452.8516,206,456.8516,210,452.8516" style="stroke:#181818;stroke-width:1;"/><line style="stroke:#181818;stroke-width:1;" x1="43" x2="212" y1="452.8516" y2="452.8516"/><text fill="#000000" font-family="sans-serif" font-size="13" lengthAdjust="spacing" textLength="136.5" x="50" y="435.3125">&#1055;&#1086;&#1076;&#1090;&#1074;&#1077;&#1088;&#1078;&#1076;&#1077;&#1085;&#1080;&#1077; &#1079;&#1072;&#1082;&#1072;&#1079;&#1072;,</text><text fill="#000000" font-family="sans-serif" font-size="13" lengthAdjust="spacing" textLength="117" x="50" y="449.2266">&#1091;&#1082;&#1072;&#1079;&#1072;&#1085;&#1080;&#1077; &#1089;&#1088;&#1086;&#1095;&#1085;&#1086;&#1089;&#1090;&#1080;</text></g><g class="message" data-participant-1="Web" data-participant-2="Calc"><polygon fill="#181818" points="543.5,476.7656,553.5,480.7656,543.5,484.7656,547.5,480.7656" style="stroke:#181818;stroke-width:1;"/><line style="stroke:#181818;stroke-width:1;" x1="228" x2="549.5" y1="480.7656" y2="480.7656"/><text fill="#000000" font-family="sans-serif" font-size="13" lengthAdjust="spacing" textLength="162.5" x="235" y="477.1406">&#1056;&#1072;&#1089;&#1095;&#1077;&#1090; &#1080;&#1090;&#1086;&#1075;&#1086;&#1074;&#1086;&#1081; &#1089;&#1090;&#1086;&#1080;&#1084;&#1086;&#1089;&#1090;&#1080;</text></g><g class="message" data-participant-1="Calc" data-participant-2="DB"><polygon fill="#181818" points="398,504.6797,388,508.6797,398,512.6797,394,508.6797" style="stroke:#181818;stroke-width:1;"/><line style="stroke:#181818;stroke-width:1;" x1="392" x2="554.5" y1="508.6797" y2="508.6797"/><text fill="#000000" font-family="sans-serif" font-size="13" lengthAdjust="spacing" textLength="149.5" x="404" y="505.0547">SELECT &#1090;&#1072;&#1088;&#1080;&#1092;&#1099; &#1089;&#1088;&#1086;&#1095;&#1085;&#1086;&#1089;&#1090;&#1080;</text></g><g class="message" data-participant-1="DB" data-participant-2="Calc"><polygon fill="#181818" points="543.5,532.5938,553.5,536.5938,543.5,540.5938,547.5,536.5938" style="stroke:#181818;stroke-width:1;"/><line style="stroke:#181818;stroke-width:1;stroke-dasharray:2,2;" x1="382" x2="549.5" y1="536.5938" y2="536.5938"/><text fill="#000000" font-family="sans-serif" font-size="13" lengthAdjust="spacing" textLength="97.5" x="389" y="532.9688">&#1055;&#1088;&#1086;&#1094;&#1077;&#1085;&#1090; &#1085;&#1072;&#1094;&#1077;&#1085;&#1082;&#1080;</text></g><g class="message" data-participant-1="Calc" data-participant-2="Calc"><line style="stroke:#181818;stroke-width:1;" x1="565.5" x2="607.5" y1="564.5078" y2="564.5078"/><line style="stroke:#181818;stroke-width:1;" x1="607.5" x2="607.5" y1="564.5078" y2="577.5078"/><line style="stroke:#181818;stroke-width:1;" x1="566.5" x2="607.5" y1="577.5078" y2="577.5078"/><polygon fill="#181818" points="576.5,573.5078,566.5,577.5078,576.5,581.5078,572.5,577.5078" style="stroke:#181818;stroke-width:1;"/><text fill="#000000" font-family="sans-serif" font-size="13" lengthAdjust="spacing" textLength="117" x="572.5" y="560.8828">&#1055;&#1088;&#1080;&#1084;&#1077;&#1085;&#1077;&#1085;&#1080;&#1077; &#1085;&#1072;&#1094;&#1077;&#1085;&#1082;&#1080;</text></g><g class="message" data-participant-1="Calc" data-participant-2="Web"><polygon fill="#181818" points="239,601.4219,229,605.4219,239,609.4219,235,605.4219" style="stroke:#181818;stroke-width:1;"/><line style="stroke:#181818;stroke-width:1;stroke-dasharray:2,2;" x1="233" x2="559.5" y1="605.4219" y2="605.4219"/><text fill="#000000" font-family="sans-serif" font-size="13" lengthAdjust="spacing" textLength="117" x="245" y="601.7969">&#1048;&#1090;&#1086;&#1075;&#1086;&#1074;&#1072;&#1103; &#1089;&#1090;&#1086;&#1080;&#1084;&#1086;&#1089;&#1090;&#1100;</text></g><g class="message" data-participant-1="Web" data-participant-2="DB"><polygon fill="#181818" points="365,629.3359,375,633.3359,365,637.3359,369,633.3359" style="stroke:#181818;stroke-width:1;"/><line style="stroke:#181818;stroke-width:1;" x1="228" x2="371" y1="633.3359" y2="633.3359"/><text fill="#000000" font-family="sans-serif" font-size="13" lengthAdjust="spacing" textLength="78" x="235" y="629.7109">INSERT &#1079;&#1072;&#1082;&#1072;&#1079;</text></g><g class="message" data-participant-1="DB" data-participant-2="Web"><polygon fill="#181818" points="239,657.25,229,661.25,239,665.25,235,661.25" style="stroke:#181818;stroke-width:1;"/><line style="stroke:#181818;stroke-width:1;stroke-dasharray:2,2;" x1="233" x2="381" y1="661.25" y2="661.25"/><text fill="#000000" font-family="sans-serif" font-size="13" lengthAdjust="spacing" textLength="58.5" x="245" y="657.625">ID &#1079;&#1072;&#1082;&#1072;&#1079;&#1072;</text></g><g class="message" data-participant-1="Web" data-participant-2="Buyer"><polygon fill="#181818" points="54,699.0781,44,703.0781,54,707.0781,50,703.0781" style="stroke:#181818;stroke-width:1;"/><line style="stroke:#181818;stroke-width:1;stroke-dasharray:2,2;" x1="48" x2="217" y1="703.0781" y2="703.0781"/><text fill="#000000" font-family="sans-serif" font-size="13" lengthAdjust="spacing" textLength="130" x="60" y="685.5391">&#1055;&#1086;&#1076;&#1090;&#1074;&#1077;&#1088;&#1078;&#1076;&#1077;&#1085;&#1080;&#1077; &#1079;&#1072;&#1082;&#1072;&#1079;&#1072;</text><text fill="#000000" font-family="sans-serif" font-size="13" lengthAdjust="spacing" textLength="110.5" x="60" y="699.4531">&#1089; &#1080;&#1090;&#1086;&#1075;&#1086;&#1074;&#1086;&#1081; &#1089;&#1091;&#1084;&#1084;&#1086;&#1081;</text></g><g class="message" data-participant-1="Web" data-participant-2="Admin"><polygon fill="#181818" points="699.5,726.9922,709.5,730.9922,699.5,734.9922,703.5,730.9922" style="stroke:#181818;stroke-width:1;"/><line style="stroke:#181818;stroke-width:1;" x1="223" x2="705.5" y1="730.9922" y2="730.9922"/><text fill="#000000" font-family="sans-serif" font-size="13" lengthAdjust="spacing" textLength="169" x="230" y="727.3672">&#1059;&#1074;&#1077;&#1076;&#1086;&#1084;&#1083;&#1077;&#1085;&#1080;&#1077; &#1086; &#1085;&#1086;&#1074;&#1086;&#1084; &#1079;&#1072;&#1082;&#1072;&#1079;&#1077;</text></g><rect fill="#EEEEEE" height="3" style="stroke:#EEEEEE;stroke-width:1;" width="765" x="0" y="758.9492"/><line style="stroke:#000000;stroke-width:1;" x1="0" x2="765" y1="758.9492" y2="758.9492"/><line style="stroke:#000000;stroke-width:1;" x1="0" x2="765" y1="761.9492" y2="761.9492"/><rect fill="#EEEEEE" height="21.9141" style="stroke:#000000;stroke-width:2;" width="124.5" x="320.25" y="748.9922"/><text fill="#000000" font-family="sans-serif" font-size="13" font-weight="bold" lengthAdjust="spacing" textLength="104" x="326.25" y="765.2813">&#1054;&#1073;&#1088;&#1072;&#1073;&#1086;&#1090;&#1082;&#1072; &#1079;&#1072;&#1082;&#1072;&#1079;&#1072;</text><g class="message" data-participant-1="Admin" data-participant-2="Web"><polygon fill="#181818" points="239,796.8203,229,800.8203,239,804.8203,235,800.8203" style="stroke:#181818;stroke-width:1;"/><line style="stroke:#181818;stroke-width:1;" x1="233" x2="710.5" y1="800.8203" y2="800.8203"/><text fill="#000000" font-family="sans-serif" font-size="13" lengthAdjust="spacing" textLength="97.5" x="245" y="797.1953">&#1055;&#1088;&#1086;&#1089;&#1084;&#1086;&#1090;&#1088; &#1079;&#1072;&#1082;&#1072;&#1079;&#1072;</text></g><g class="message" data-participant-1="Web" data-participant-2="DB"><polygon fill="#181818" points="365,824.7344,375,828.7344,365,832.7344,369,828.7344" style="stroke:#181818;stroke-width:1;"/><line style="stroke:#181818;stroke-width:1;" x1="228" x2="371" y1="828.7344" y2="828.7344"/><text fill="#000000" font-family="sans-serif" font-size="13" lengthAdjust="spacing" textLength="130" x="235" y="825.1094">SELECT &#1076;&#1077;&#1090;&#1072;&#1083;&#1080; &#1079;&#1072;&#1082;&#1072;&#1079;&#1072;</text></g><g class="message" data-participant-1="DB" data-participant-2="Web"><polygon fill="#181818" points="239,852.6484,229,856.6484,239,860.6484,235,856.6484" style="stroke:#181818;stroke-width:1;"/><line style="stroke:#181818;stroke-width:1;stroke-dasharray:2,2;" x1="233" x2="381" y1="856.6484" y2="856.6484"/><text fill="#000000" font-family="sans-serif" font-size="13" lengthAdjust="spacing" textLength="84.5" x="245" y="853.0234">&#1044;&#1072;&#1085;&#1085;&#1099;&#1077; &#1079;&#1072;&#1082;&#1072;&#1079;&#1072;</text></g><g class="message" data-participant-1="Web" data-participant-2="Admin"><polygon fill="#181818" points="699.5,880.5625,709.5,884.5625,699.5,888.5625,703.5,884.5625" style="stroke:#181818;stroke-width:1;"/><line style="stroke:#181818;stroke-width:1;stroke-dasharray:2,2;" x1="223" x2="705.5" y1="884.5625" y2="884.5625"/><text fill="#000000" font-family="sans-serif" font-size="13" lengthAdjust="spacing" textLength="123.5" x="230" y="880.9375">&#1048;&#1085;&#1092;&#1086;&#1088;&#1084;&#1072;&#1094;&#1080;&#1103; &#1086; &#1079;&#1072;&#1082;&#1072;&#1079;&#1077;</text></g><g class="message" data-participant-1="Admin" data-participant-2="Web"><polygon fill="#181818" points="239,908.4766,229,912.4766,239,916.4766,235,912.4766" style="stroke:#181818;stroke-width:1;"/><line style="stroke:#181818;stroke-width:1;" x1="233" x2="710.5" y1="912.4766" y2="912.4766"/><text fill="#000000" font-family="sans-serif" font-size="13" lengthAdjust="spacing" textLength="130" x="245" y="908.8516">&#1054;&#1090;&#1084;&#1077;&#1090;&#1082;&#1072; &#1086; &#1074;&#1099;&#1087;&#1086;&#1083;&#1085;&#1077;&#1085;&#1080;&#1080;</text></g><g class="message" data-participant-1="Web" data-participant-2="DB"><polygon fill="#181818" points="365,936.3906,375,940.3906,365,944.3906,369,940.3906" style="stroke:#181818;stroke-width:1;"/><line style="stroke:#181818;stroke-width:1;" x1="228" x2="371" y1="940.3906" y2="940.3906"/><text fill="#000000" font-family="sans-serif" font-size="13" lengthAdjust="spacing" textLength="130" x="235" y="936.7656">UPDATE &#1089;&#1090;&#1072;&#1090;&#1091;&#1089; &#1079;&#1072;&#1082;&#1072;&#1079;&#1072;</text></g><g class="message" data-participant-1="DB" data-participant-2="Web"><polygon fill="#181818" points="239,964.3047,229,968.3047,239,972.3047,235,968.3047" style="stroke:#181818;stroke-width:1;"/><line style="stroke:#181818;stroke-width:1;stroke-dasharray:2,2;" x1="233" x2="381" y1="968.3047" y2="968.3047"/><text fill="#000000" font-family="sans-serif" font-size="13" lengthAdjust="spacing" textLength="13" x="245" y="964.6797">OK</text></g><g class="message" data-participant-1="Web" data-participant-2="Admin"><polygon fill="#181818" points="699.5,992.2188,709.5,996.2188,699.5,1000.2188,703.5,996.2188" style="stroke:#181818;stroke-width:1;"/><line style="stroke:#181818;stroke-width:1;stroke-dasharray:2,2;" x1="223" x2="705.5" y1="996.2188" y2="996.2188"/><text fill="#000000" font-family="sans-serif" font-size="13" lengthAdjust="spacing" textLength="84.5" x="230" y="992.5938">&#1055;&#1086;&#1076;&#1090;&#1074;&#1077;&#1088;&#1078;&#1076;&#1077;&#1085;&#1080;&#1077;</text></g><g class="message" data-participant-1="Web" data-participant-2="Buyer"><polygon fill="#181818" points="54,1020.1328,44,1024.1328,54,1028.1328,50,1024.1328" style="stroke:#181818;stroke-width:1;"/><line style="stroke:#181818;stroke-width:1;" x1="48" x2="222" y1="1024.1328" y2="1024.1328"/><text fill="#000000" font-family="sans-serif" font-size="13" lengthAdjust="spacing" textLength="156" x="60" y="1020.5078">&#1059;&#1074;&#1077;&#1076;&#1086;&#1084;&#1083;&#1077;&#1085;&#1080;&#1077; &#1086; &#1075;&#1086;&#1090;&#1086;&#1074;&#1085;&#1086;&#1089;&#1090;&#1080;</text></g><!--SRC=[bLNBRjfG4DtxAwwo3ZyGYKeXi8XQjLL3rKqs3dY1bD28k9Mw2n2b2oAbgLXa5Lgr7-04J5mUxY_C_QEU6MDp3JPDX00RpvmxvyoPmMsunuwYFWNaqL2VutE6bwVeBuMwJLFoQKGXFP2dExYUwYkQynFS1QgWw3Tkpf4Hu5F2y3WWN-4fFUWUmm1aZjJ5xuy8cU2DRykoQ-x7bjgY0Q8ckelev9WjPP-fqgSlJiiwjLjkezOujPkkslhW71LeWDC2u8OqZf4b7W-jkktQH_QP0zWRwYkw4rPpZiILJu54bajfMFe92cqv7FGFcvo4-wz8wf0dANlsSIsf-1ja0Mi-czCalCDQIEXk_QJHjAnYSOD0XX2gMBGiuQeABvY4sb7q7UhTSx92M0W4bl8HE9V83xPHOZVEZo4d8dOWLJCNdCO5DpxRhYFQM8oD8yebd71GULNPgsQWwsj6lqGwoElUji8rLDQz9HZa0qPXMMrVga0Crn5cbcpL7JC_heLbPOGVIy4LY3CnrYkaFqh8XC2OnTPRLY9T4GoZcfiatTFNQ-dwoYn50A9Y011rOOTjmpdtOfxnqhxekBvOjDIBU1qsSmZp44JIaH-PuIx9dMPEHAOHU3X6qaqsy1Z6oqhDCWJ8mdJGD1dPpQe7mdduNDtJVk9vuV7K5xgNLK66X-9Y1X8ScGtbp4LX9ZjPSqzyifdATVhchaa3h9harc3xB9ii-Ew_FgYygnfDo1-F_N9wyMLDWcc-fxKS7MzdDgqhInmtIS6oa1Zv5sFAIazvC6In8eIPUOPlbYeRH6oyc0jUJnsEN3TnTA1XOcbjMxJjy4upvKYTaBMYHj4QvkMMaxbv8ULh7qkV27IxEk1m1ikpIPDLihmxPbAoQ1Dc_HK6-QpVlotlLYkH7_6lehlSvYUnVlFoV_HodRL6Qb5Huibyvmp51koUPCh_0G00]--></g></svg>