<svg xmlns="http://www.w3.org/2000/svg" xmlns:xlink="http://www.w3.org/1999/xlink" contentStyleType="text/css" data-diagram-type="DESCRIPTION" height="1011px" preserveAspectRatio="none" style="width:837px;height:1011px;background:#FFFFFF;" version="1.1" viewBox="0 0 837 1011" width="837px" zoomAndPan="magnify"><defs/><g><!--cluster ??????? ?????????? ??????????--><g class="cluster" data-entity="....... .......... .........." data-source-line="7" data-uid="ent0004" id="cluster_....... .......... .........."><rect fill="none" height="904" rx="2.5" ry="2.5" style="stroke:#181818;stroke-width:1;" width="652" x="179" y="101.7"/><text fill="#000000" font-family="sans-serif" font-size="14" font-weight="bold" lengthAdjust="spacing" textLength="203" x="403.5" y="116.9344">&#1057;&#1080;&#1089;&#1090;&#1077;&#1084;&#1072; &#171;&#1062;&#1074;&#1077;&#1090;&#1086;&#1095;&#1085;&#1072;&#1103; &#1086;&#1088;&#1072;&#1085;&#1078;&#1077;&#1088;&#1077;&#1103;&#187;</text></g><!--entity UC1--><g class="entity" data-entity="UC1" data-source-line="9" data-uid="ent0005" id="entity_UC1"><ellipse cx="693.0037" cy="227.5007" fill="#F1F1F1" rx="122.0037" ry="26.8007" style="stroke:#181818;stroke-width:0.5;"/><text fill="#000000" font-family="sans-serif" font-size="14" lengthAdjust="spacing" textLength="126" x="630.0037" y="218.7932">&#1059;&#1087;&#1088;&#1072;&#1074;&#1083;&#1077;&#1085;&#1080;&#1077; &#1094;&#1074;&#1077;&#1090;&#1072;&#1084;&#1080;</text><text fill="#000000" font-family="sans-serif" font-size="14" lengthAdjust="spacing" textLength="217" x="584.5037" y="233.7775">(&#1076;&#1086;&#1073;&#1072;&#1074;&#1083;&#1077;&#1085;&#1080;&#1077;/&#1080;&#1079;&#1084;&#1077;&#1085;&#1077;&#1085;&#1080;&#1077;/&#1091;&#1076;&#1072;&#1083;&#1077;&#1085;&#1080;&#1077;)</text></g><!--entity UC2--><g class="entity" data-entity="UC2" data-source-line="10" data-uid="ent0006" id="entity_UC2"><ellipse cx="323.184" cy="336.7368" fill="#F1F1F1" rx="125.684" ry="27.5368" style="stroke:#181818;stroke-width:0.5;"/><text fill="#000000" font-family="sans-serif" font-size="14" lengthAdjust="spacing" textLength="161" x="242.684" y="329.7051">&#1059;&#1087;&#1088;&#1072;&#1074;&#1083;&#1077;&#1085;&#1080;&#1077; &#1082;&#1086;&#1084;&#1087;&#1086;&#1079;&#1080;&#1094;&#1080;&#1103;&#1084;&#1080;</text><text fill="#000000" font-family="sans-serif" font-size="14" lengthAdjust="spacing" textLength="217" x="214.684" y="344.6895">(&#1076;&#1086;&#1073;&#1072;&#1074;&#1083;&#1077;&#1085;&#1080;&#1077;/&#1080;&#1079;&#1084;&#1077;&#1085;&#1077;&#1085;&#1080;&#1077;/&#1091;&#1076;&#1072;&#1083;&#1077;&#1085;&#1080;&#1077;)</text></g><!--entity UC3--><g class="entity" data-entity="UC3" data-source-line="11" data-uid="ent0007" id="entity_UC3"><ellipse cx="322.8105" cy="664.7621" fill="#F1F1F1" rx="73.3105" ry="17.0621" style="stroke:#181818;stroke-width:0.5;"/><text fill="#000000" font-family="sans-serif" font-size="14" lengthAdjust="spacing" textLength="119" x="263.3105" y="668.7543">&#1054;&#1073;&#1088;&#1072;&#1073;&#1086;&#1090;&#1082;&#1072; &#1079;&#1072;&#1082;&#1072;&#1079;&#1086;&#1074;</text></g><!--entity UC4--><g class="entity" data-entity="UC4" data-source-line="12" data-uid="ent0008" id="entity_UC4"><ellipse cx="323.1709" cy="739.5342" fill="#F1F1F1" rx="99.6709" ry="22.3342" style="stroke:#181818;stroke-width:0.5;"/><text fill="#000000" font-family="sans-serif" font-size="14" lengthAdjust="spacing" textLength="154" x="246.1709" y="739.3288">&#1055;&#1088;&#1086;&#1089;&#1084;&#1086;&#1090;&#1088; &#1089;&#1091;&#1084;&#1084;&#1099; &#1076;&#1086;&#1093;&#1086;&#1076;&#1086;&#1074;</text><text fill="#000000" font-family="sans-serif" font-size="14" lengthAdjust="spacing" textLength="63" x="291.6709" y="754.3132">&#1079;&#1072; &#1087;&#1077;&#1088;&#1080;&#1086;&#1076;</text></g><!--entity UC5--><g class="entity" data-entity="UC5" data-source-line="13" data-uid="ent0009" id="entity_UC5"><ellipse cx="323.0399" cy="504.708" fill="#F1F1F1" rx="105.5399" ry="23.508" style="stroke:#181818;stroke-width:0.5;"/><text fill="#000000" font-family="sans-serif" font-size="14" lengthAdjust="spacing" textLength="175" x="235.5399" y="505.5">&#1055;&#1088;&#1086;&#1089;&#1084;&#1086;&#1090;&#1088; &#1089;&#1072;&#1084;&#1086;&#1081; &#1087;&#1086;&#1087;&#1091;&#1083;&#1103;&#1088;&#1085;&#1086;&#1081;</text><text fill="#000000" font-family="sans-serif" font-size="14" lengthAdjust="spacing" textLength="70" x="288.0399" y="520.4843">&#1082;&#1086;&#1084;&#1087;&#1086;&#1079;&#1080;&#1094;&#1080;&#1080;</text></g><!--entity UC6--><g class="entity" data-entity="UC6" data-source-line="14" data-uid="ent0010" id="entity_UC6"><ellipse cx="322.8882" cy="587.6776" fill="#F1F1F1" rx="110.3882" ry="24.4776" style="stroke:#181818;stroke-width:0.5;"/><text fill="#000000" font-family="sans-serif" font-size="14" lengthAdjust="spacing" textLength="189" x="228.3882" y="588.9601">&#1055;&#1088;&#1086;&#1089;&#1084;&#1086;&#1090;&#1088; &#1089;&#1090;&#1072;&#1090;&#1080;&#1089;&#1090;&#1080;&#1082;&#1080; &#1079;&#1072;&#1082;&#1072;&#1079;&#1086;&#1074;</text><text fill="#000000" font-family="sans-serif" font-size="14" lengthAdjust="spacing" textLength="84" x="280.8882" y="603.9445">&#1087;&#1086; &#1089;&#1088;&#1086;&#1095;&#1085;&#1086;&#1089;&#1090;&#1080;</text></g><!--entity UC7--><g class="entity" data-entity="UC7" data-source-line="15" data-uid="ent0011" id="entity_UC7"><ellipse cx="323.0591" cy="162.7118" fill="#F1F1F1" rx="128.0591" ry="28.0118" style="stroke:#181818;stroke-width:0.5;"/><text fill="#000000" font-family="sans-serif" font-size="14" lengthAdjust="spacing" textLength="210" x="218.0591" y="160.6098">&#1055;&#1088;&#1086;&#1089;&#1084;&#1086;&#1090;&#1088; &#1080;&#1089;&#1087;&#1086;&#1083;&#1100;&#1079;&#1086;&#1074;&#1072;&#1085;&#1085;&#1099;&#1093; &#1094;&#1074;&#1077;&#1090;&#1086;&#1074;</text><text fill="#000000" font-family="sans-serif" font-size="14" lengthAdjust="spacing" textLength="189" x="228.5591" y="175.5941">&#1087;&#1086; &#1074;&#1080;&#1076;&#1072;&#1084; &#1080; &#1089;&#1086;&#1088;&#1090;&#1072;&#1084; &#1079;&#1072; &#1087;&#1077;&#1088;&#1080;&#1086;&#1076;</text></g><!--entity UC8--><g class="entity" data-entity="UC8" data-source-line="16" data-uid="ent0012" id="entity_UC8"><ellipse cx="322.7863" cy="249.4573" fill="#F1F1F1" rx="106.7863" ry="23.7573" style="stroke:#181818;stroke-width:0.5;"/><text fill="#000000" font-family="sans-serif" font-size="14" lengthAdjust="spacing" textLength="182" x="231.7863" y="250.9605">&#1055;&#1088;&#1086;&#1089;&#1084;&#1086;&#1090;&#1088; &#1087;&#1088;&#1086;&#1076;&#1072;&#1078; &#1082;&#1086;&#1084;&#1087;&#1086;&#1079;&#1080;&#1094;&#1080;&#1081;</text><text fill="#000000" font-family="sans-serif" font-size="14" lengthAdjust="spacing" textLength="56" x="294.7863" y="265.9448">&#1087;&#1086; &#1074;&#1080;&#1076;&#1072;&#1084;</text></g><!--entity UC9--><g class="entity" data-entity="UC9" data-source-line="17" data-uid="ent0013" id="entity_UC9"><ellipse cx="322.9809" cy="422.7962" fill="#F1F1F1" rx="105.9809" ry="23.5962" style="stroke:#181818;stroke-width:0.5;"/><text fill="#000000" font-family="sans-serif" font-size="14" lengthAdjust="spacing" textLength="154" x="245.9809" y="420.6042">&#1050;&#1086;&#1085;&#1090;&#1088;&#1086;&#1083;&#1100; &#1080;&#1079;&#1084;&#1077;&#1085;&#1077;&#1085;&#1080;&#1103; &#1094;&#1077;&#1085;</text><text fill="#000000" font-family="sans-serif" font-size="14" lengthAdjust="spacing" textLength="126" x="259.9809" y="435.5886">(&#1086;&#1075;&#1088;&#1072;&#1085;&#1080;&#1095;&#1077;&#1085;&#1080;&#1077; +10%)</text></g><!--entity UC10--><g class="entity" data-entity="UC10" data-source-line="18" data-uid="ent0014" id="entity_UC10"><ellipse cx="693.1448" cy="800.8106" fill="#F1F1F1" rx="101.6448" ry="23.1106" style="stroke:#181818;stroke-width:0.5;"/><text fill="#000000" font-family="sans-serif" font-size="14" lengthAdjust="spacing" textLength="147" x="619.6448" y="798.8821">&#1040;&#1074;&#1090;&#1086;&#1084;&#1072;&#1090;&#1080;&#1095;&#1077;&#1089;&#1082;&#1080;&#1081; &#1088;&#1072;&#1089;&#1095;&#1105;&#1090;</text><text fill="#000000" font-family="sans-serif" font-size="14" lengthAdjust="spacing" textLength="112" x="637.1448" y="813.8665">&#1089;&#1090;&#1086;&#1080;&#1084;&#1086;&#1089;&#1090;&#1080; &#1079;&#1072;&#1082;&#1072;&#1079;&#1072;</text></g><!--entity UC11--><g class="entity" data-entity="UC11" data-source-line="20" data-uid="ent0015" id="entity_UC11"><ellipse cx="322.8105" cy="814.7621" fill="#F1F1F1" rx="73.3105" ry="17.0621" style="stroke:#181818;stroke-width:0.5;"/><text fill="#000000" font-family="sans-serif" font-size="14" lengthAdjust="spacing" textLength="119" x="263.3105" y="818.7543">&#1054;&#1092;&#1086;&#1088;&#1084;&#1083;&#1077;&#1085;&#1080;&#1077; &#1079;&#1072;&#1082;&#1072;&#1079;&#1072;</text></g><!--entity UC12--><g class="entity" data-entity="UC12" data-source-line="21" data-uid="ent0016" id="entity_UC12"><ellipse cx="323.129" cy="886.8258" fill="#F1F1F1" rx="88.629" ry="20.1258" style="stroke:#181818;stroke-width:0.5;"/><text fill="#000000" font-family="sans-serif" font-size="14" lengthAdjust="spacing" textLength="154" x="246.129" y="890.818">&#1055;&#1088;&#1086;&#1089;&#1084;&#1086;&#1090;&#1088; &#1089;&#1074;&#1086;&#1080;&#1093; &#1079;&#1072;&#1082;&#1072;&#1079;&#1086;&#1074;</text></g><!--entity UC13--><g class="entity" data-entity="UC13" data-source-line="22" data-uid="ent0017" id="entity_UC13"><ellipse cx="323.1542" cy="965.5308" fill="#F1F1F1" rx="104.6542" ry="23.3308" style="stroke:#181818;stroke-width:0.5;"/><text fill="#000000" font-family="sans-serif" font-size="14" lengthAdjust="spacing" textLength="189" x="228.6542" y="969.523">&#1054;&#1090;&#1089;&#1083;&#1077;&#1078;&#1080;&#1074;&#1072;&#1085;&#1080;&#1077; &#1089;&#1090;&#1072;&#1090;&#1091;&#1089;&#1072; &#1079;&#1072;&#1082;&#1072;&#1079;&#1072;</text></g><!--entity UC14--><g class="entity" data-entity="UC14" data-source-line="23" data-uid="ent0018" id="entity_UC14"><ellipse cx="692.909" cy="698.8818" fill="#F1F1F1" rx="101.409" ry="22.6818" style="stroke:#181818;stroke-width:0.5;"/><text fill="#000000" font-family="sans-serif" font-size="14" lengthAdjust="spacing" textLength="182" x="601.909" y="702.874">&#1042;&#1099;&#1073;&#1086;&#1088; &#1089;&#1088;&#1086;&#1095;&#1085;&#1086;&#1089;&#1090;&#1080; &#1074;&#1099;&#1087;&#1086;&#1083;&#1085;&#1077;&#1085;&#1080;&#1103;</text></g><!--entity Director--><g class="entity" data-entity="Director" data-source-line="4" data-uid="ent0002" id="entity_Director"><ellipse cx="69" cy="397.7" fill="#F1F1F1" rx="8" ry="8" style="stroke:#181818;stroke-width:0.5;"/><path d="M69,405.7 L69,432.7 M56,413.7 L82,413.7 M69,432.7 L56,447.7 M69,432.7 L82,447.7" fill="none" style="stroke:#181818;stroke-width:0.5;"/><text fill="#000000" font-family="sans-serif" font-size="14" lengthAdjust="spacing" textLength="126" x="6" y="462.4344">&#1044;&#1080;&#1088;&#1077;&#1082;&#1090;&#1086;&#1088; &#1086;&#1088;&#1072;&#1085;&#1078;&#1077;&#1088;&#1077;&#1080;</text></g><!--entity Customer--><g class="entity" data-entity="Customer" data-source-line="5" data-uid="ent0003" id="entity_Customer"><ellipse cx="69" cy="857.7" fill="#F1F1F1" rx="8" ry="8" style="stroke:#181818;stroke-width:0.5;"/><path d="M69,865.7 L69,892.7 M56,873.7 L82,873.7 M69,892.7 L56,907.7 M69,892.7 L82,907.7" fill="none" style="stroke:#181818;stroke-width:0.5;"/><text fill="#000000" font-family="sans-serif" font-size="14" lengthAdjust="spacing" textLength="70" x="34" y="922.4344">&#1055;&#1086;&#1082;&#1091;&#1087;&#1072;&#1090;&#1077;&#1083;&#1100;</text></g><!--link Director to UC1--><g class="link" data-entity-1="Director" data-entity-2="UC1" data-source-line="26" data-uid="lnk19" id="link_Director_UC1"><path d="M69.31,389.18 C70.35,321.52 83.51,180.21 171,116.7 C323.49,6 558.2633,138.5387 649.7933,198.5887" fill="none" id="Director-to-UC1" style="stroke:#181818;stroke-width:1;"/><polygon fill="#181818" points="654.81,201.88,649.4791,193.5986,650.6294,199.1372,645.0907,200.2875,654.81,201.88" style="stroke:#181818;stroke-width:1;"/></g><!--link Director to UC2--><g class="link" data-entity-1="Director" data-entity-2="UC2" data-source-line="27" data-uid="lnk20" id="link_Director_UC2"><path d="M132.25,397.46 C144.95,391.92 158.31,386.4 171,381.7 C194.22,373.11 214.1359,366.67 237.6259,359.73" fill="none" id="Director-to-UC2" style="stroke:#181818;stroke-width:1;"/><polygon fill="#181818" points="243.38,358.03,233.6155,356.744,238.5849,359.4467,235.8822,364.4161,243.38,358.03" style="stroke:#181818;stroke-width:1;"/></g><!--link Director to UC3--><g class="link" data-entity-1="Director" data-entity-2="UC3" data-source-line="28" data-uid="lnk21" id="link_Director_UC3"><path d="M78.32,464.37 C90.54,510.52 117.86,587.74 171,629.7 C193.6,647.55 217.7588,655.6208 245.1288,660.1008" fill="none" id="Director-to-UC3" style="stroke:#181818;stroke-width:1;"/><polygon fill="#181818" points="251.05,661.07,242.8143,655.6687,246.1157,660.2623,241.5221,663.5637,251.05,661.07" style="stroke:#181818;stroke-width:1;"/></g><!--link Director to UC4--><g class="link" data-entity-1="Director" data-entity-2="UC4" data-source-line="29" data-uid="lnk22" id="link_Director_UC4"><path d="M73.23,464.31 C80.33,523.02 102.57,636.19 171,698.7 C188.05,714.27 204.6315,722.4411 226.9215,728.5211" fill="none" id="Director-to-UC4" style="stroke:#181818;stroke-width:1;"/><polygon fill="#181818" points="232.71,730.1,225.0798,723.8726,227.8862,728.7842,222.9746,731.5906,232.71,730.1" style="stroke:#181818;stroke-width:1;"/></g><!--link Director to UC5--><g class="link" data-entity-1="Director" data-entity-2="UC5" data-source-line="30" data-uid="lnk23" id="link_Director_UC5"><path d="M132.21,450.44 C144.97,455.04 158.37,459.68 171,463.7 C197.4,472.1 220.9412,478.7791 246.6812,485.6191" fill="none" id="Director-to-UC5" style="stroke:#181818;stroke-width:1;"/><polygon fill="#181818" points="252.48,487.16,244.8092,480.9828,247.6477,485.8759,242.7546,488.7144,252.48,487.16" style="stroke:#181818;stroke-width:1;"/></g><!--link Director to UC6--><g class="link" data-entity-1="Director" data-entity-2="UC6" data-source-line="31" data-uid="lnk24" id="link_Director_UC6"><path d="M93.16,464.42 C111.25,490.86 138.7,525.04 171,545.7 C190.14,557.94 207.0865,565.037 229.0065,571.237" fill="none" id="Director-to-UC6" style="stroke:#181818;stroke-width:1;"/><polygon fill="#181818" points="234.78,572.87,227.2084,566.5715,229.9688,571.5092,225.0311,574.2695,234.78,572.87" style="stroke:#181818;stroke-width:1;"/></g><!--link Director to UC7--><g class="link" data-entity-1="Director" data-entity-2="UC7" data-source-line="32" data-uid="lnk25" id="link_Director_UC7"><path d="M77.41,388.79 C88.92,339.92 115.79,255.55 171,207.7 C185.37,195.25 197.4129,188.2675 215.5729,181.7475" fill="none" id="Director-to-UC7" style="stroke:#181818;stroke-width:1;"/><polygon fill="#181818" points="221.22,179.72,211.3978,178.9965,216.5141,181.4096,214.101,186.5259,221.22,179.72" style="stroke:#181818;stroke-width:1;"/></g><!--link Director to UC8--><g class="link" data-entity-1="Director" data-entity-2="UC8" data-source-line="33" data-uid="lnk26" id="link_Director_UC8"><path d="M88.97,389.18 C106.31,358.58 134.76,316.49 171,291.7 C189.98,278.72 207.1024,271.3484 229.2724,265.1384" fill="none" id="Director-to-UC8" style="stroke:#181818;stroke-width:1;"/><polygon fill="#181818" points="235.05,263.52,225.3047,262.0958,230.2353,264.8686,227.4625,269.7993,235.05,263.52" style="stroke:#181818;stroke-width:1;"/></g><!--link UC3 to UC10--><g class="link" data-entity-1="UC3" data-entity-2="UC10" data-source-line="36" data-uid="lnk27" id="link_UC3_UC10"><path d="M374.21,676.96 C397.74,683.1 426.03,691.07 451,699.7 C520.89,723.86 594.0176,755.7175 641.8976,777.4775" fill="none" id="UC3-to-UC10" style="stroke:#181818;stroke-width:1;stroke-dasharray:7,7;"/><polygon fill="#181818" points="647.36,779.96,640.8214,772.5947,642.808,777.8913,637.5115,779.8779,647.36,779.96" style="stroke:#181818;stroke-width:1;"/><text fill="#000000" font-family="sans-serif" font-size="13" lengthAdjust="spacing" textLength="58.5" x="482" y="710.9891">&#171;include&#187;</text></g><!--link UC3 to UC14--><g class="link" data-entity-1="UC3" data-entity-2="UC14" data-source-line="37" data-uid="lnk28" id="link_UC3_UC14"><path d="M391.5,670.94 C449.7,676.31 528.3454,683.5781 592.9754,689.5481" fill="none" id="UC3-to-UC14" style="stroke:#181818;stroke-width:1;stroke-dasharray:7,7;"/><polygon fill="#181818" points="598.95,690.1,590.3561,685.2891,593.9712,689.6401,589.6202,693.2552,598.95,690.1" style="stroke:#181818;stroke-width:1;"/><text fill="#000000" font-family="sans-serif" font-size="13" lengthAdjust="spacing" textLength="58.5" x="482" y="677.9891">&#171;include&#187;</text></g><!--reverse link UC9 to UC1--><g class="link" data-entity-1="UC9" data-entity-2="UC1" data-source-line="38" data-uid="lnk29" id="link_UC9_UC1"><path d="M396.8688,402.7347 C416.5588,396.4847 432.14,390.59 451,381.7 C529.15,344.87 612.4,286.96 657.72,253.64" fill="none" id="UC9-backto-UC1" style="stroke:#181818;stroke-width:1;stroke-dasharray:7,7;"/><polygon fill="#181818" points="391.15,404.55,400.9384,405.6396,395.9157,403.0373,398.518,398.0146,391.15,404.55" style="stroke:#181818;stroke-width:1;"/><text fill="#000000" font-family="sans-serif" font-size="13" lengthAdjust="spacing" textLength="52" x="485" y="331.9891">&#171;extend&#187;</text></g><!--link Customer to UC11--><g class="link" data-entity-1="Customer" data-entity-2="UC11" data-source-line="41" data-uid="lnk30" id="link_Customer_UC11"><path d="M104.19,872.49 C123.56,864.78 148.38,855.47 171,848.7 C201.89,839.46 231.1255,832.6305 259.7155,826.6905" fill="none" id="Customer-to-UC11" style="stroke:#181818;stroke-width:1;"/><polygon fill="#181818" points="265.59,825.47,255.9645,823.3844,260.6945,826.4871,257.5919,831.2172,265.59,825.47" style="stroke:#181818;stroke-width:1;"/></g><!--link Customer to UC12--><g class="link" data-entity-1="Customer" data-entity-2="UC12" data-source-line="42" data-uid="lnk31" id="link_Customer_UC12"><path d="M104.25,886.7 C137.55,886.7 183.54,886.7 228.37,886.7" fill="none" id="Customer-to-UC12" style="stroke:#181818;stroke-width:1;"/><polygon fill="#181818" points="234.37,886.7,225.37,882.7,229.37,886.7,225.37,890.7,234.37,886.7" style="stroke:#181818;stroke-width:1;"/></g><!--link Customer to UC13--><g class="link" data-entity-1="Customer" data-entity-2="UC13" data-source-line="43" data-uid="lnk32" id="link_Customer_UC13"><path d="M104.35,900.06 C123.78,907.42 148.6,916.49 171,923.7 C197.94,932.37 222.121,939.343 248.221,946.453" fill="none" id="Customer-to-UC13" style="stroke:#181818;stroke-width:1;"/><polygon fill="#181818" points="254.01,948.03,246.3778,941.8051,249.1858,946.7158,244.2751,949.5238,254.01,948.03" style="stroke:#181818;stroke-width:1;"/></g><!--link UC11 to UC14--><g class="link" data-entity-1="UC11" data-entity-2="UC14" data-source-line="44" data-uid="lnk33" id="link_UC11_UC14"><path d="M385.81,805.85 C429.79,798.61 489.9,786.75 541,769.7 C580.98,756.36 618.9788,738.0413 648.9288,722.3013" fill="none" id="UC11-to-UC14" style="stroke:#181818;stroke-width:1;stroke-dasharray:7,7;"/><polygon fill="#181818" points="654.24,719.51,644.4124,720.1561,649.814,721.8361,648.134,727.2377,654.24,719.51" style="stroke:#181818;stroke-width:1;"/><text fill="#000000" font-family="sans-serif" font-size="13" lengthAdjust="spacing" textLength="58.5" x="482" y="767.9891">&#171;include&#187;</text></g><!--link UC11 to UC10--><g class="link" data-entity-1="UC11" data-entity-2="UC10" data-source-line="45" data-uid="lnk34" id="link_UC11_UC10"><path d="M389.59,821.98 C432.67,825.71 490.24,828.71 541,824.7 C565.08,822.8 585.1977,820.1823 608.7677,816.3523" fill="none" id="UC11-to-UC10" style="stroke:#181818;stroke-width:1;stroke-dasharray:7,7;"/><polygon fill="#181818" points="614.69,815.39,605.165,812.8853,609.7547,816.192,606.4481,820.7817,614.69,815.39" style="stroke:#181818;stroke-width:1;"/><text fill="#000000" font-family="sans-serif" font-size="13" lengthAdjust="spacing" textLength="58.5" x="482" y="822.9891">&#171;include&#187;</text></g><!--SRC=[hLNBJjjG4DtdAqP8LLjL10pXLI4sz0ygTcoiuDA8uA34IAsgIY6KWaJLqAghBa1LfMwwCIu1Dt4SYI-O-qSzTsmdE3PaKoboudcSCpFtp4tLUkMGKwDwPVkrGrkLkbLsAZMxqDYfs7jctTobFREyOsvRBvstLOkqsxItgrQXO9QTMfsc-1lxgiaTxgeMXwf9-i4kz_cQE-BmfyXiq0k1hjM7UHSS8kUG1-mYiyCzzKa2r_SRJctNgXSAGp94_m3BWSG5xDBjR_x57l0rvJ6uNDNE4AlsRM-AtXM8yDblM6MpeP5-ya3YFEu1hSy-TqXzZD5SmFkRzXE-GdMNwQWPF6xWrw-92VLV8MeOyrHQs5Wt9b9o5mm1kWy1wgC0NxN_4_bSYloSBuNy4lDfWTKb0Bdw1xv3zkAa-LJI1L92TG129E5GCVj3l0Jgb7HrwWYPkaflqzPeX3xqp7rjZW5B4m1brY7_9Pd10FWzrKPKNni1cvbFBAIDzOL9fRP4Kf5WV03vOoq37RWwiXdh9unYOuB51maqiDG5nKPuehg-EbL78oMDQ63mvQ02fEh6eTD8QdJVx9OUBa2hAHJ8wnmToVJIn37iSWhsErBw6Z1gXSOLXfK277vgIORy9zuk7mDBHFpCc7sKg6ub1Nx6dWmXY8y2EUYWgwiZ3OHv7wilghLfo-H3E8Ba5EwUbfiirEpu7f-h3xBnmTsboaaq9kdGq-mukjorCCQM2Ka7GdWDmkZWvGA9HQSEjR1pwqWls5TrAXlPp54X3WvUKTZeB1AOKZI7nuGhqSELSQFZh_JkwA_KLSmk0fDxbwQdr-ABQSmqbpNDPqsbh6aXQrhCcfQofkLX3vYdz7qoabmaZfEu5J7EOD9TjFWvaPvg8nrbKh4eJStISrfThTZbwlwMjRQMTfPod2kqMYngf_YiDuvbRudhlj4EClzMkeJaloePhf5ZcyknpKiHXl5GYIFlU7Vl_m40]--></g></svg>